<svg width="200" height="80" viewBox="0 0 200 80" fill="none" xmlns="http://www.w3.org/2000/svg">
<g clip-path="url(#clip0_1_1447)">
<path d="M67.8301 31.4317C65.8998 30.4666 63.8729 30.0805 61.6531 30.0805C59.5297 30.0805 57.5994 30.4666 55.7656 31.2387C53.9318 32.0108 52.3875 32.976 50.9398 34.3272C49.5886 35.6785 48.5269 37.2227 47.7547 38.96C46.9826 40.6973 46.5965 42.5311 46.5965 44.3649C46.5965 46.8743 47.1756 48.9977 48.3338 50.928C49.492 52.8583 51.1328 54.3061 53.1597 55.3677C55.1865 56.4294 57.3098 56.912 59.7227 56.912C61.7496 56.912 63.5834 56.5259 65.3207 55.8494C67.058 55.1747 68.6022 54.1121 69.9535 52.8574C71.3047 51.6027 72.2698 50.0584 73.042 48.2246C73.8141 46.3908 74.2002 44.557 74.2002 42.4336C74.2002 39.7312 73.6211 37.4148 72.4629 35.581C71.3047 33.7481 69.7604 32.3969 67.8301 31.4317ZM64.9346 45.7161C64.452 46.8743 63.7764 47.743 62.9078 48.5151C62.0391 49.1907 61.074 49.5768 59.9158 49.5768C58.5646 49.5768 57.4064 49.0942 56.6342 48.129C55.7656 47.1639 55.3795 46.0057 55.3795 44.5579C55.3795 43.5928 55.5726 42.5311 55.9586 41.3729C56.3447 40.2147 57.0203 39.2496 57.8889 38.4774C58.7576 37.7053 59.8193 37.3192 61.1705 37.3192C62.5217 37.3192 63.5834 37.8018 64.3555 38.6705C65.2242 39.5391 65.6102 40.7938 65.6102 42.3381C65.6102 43.4963 65.4172 44.6545 64.9346 45.7161ZM177.569 30.6596C176.893 30.5631 176.314 30.4666 175.639 30.3701C174.963 30.2735 174.288 30.2735 173.708 30.177C173.033 30.0805 172.454 30.0805 171.971 30.0805C169.365 30.0805 168.014 30.2735 165.794 30.6596C163.574 31.0457 161.644 31.5283 160.003 31.9143L156.142 56.3329H164.926L168.015 36.6446C168.4 36.5481 170.137 36.2585 170.717 36.2585C171.972 36.2585 173.033 36.355 174.095 36.5481C175.157 36.7411 176.026 36.9341 176.798 37.0306L179.211 31.0466C178.727 30.8526 178.245 30.7561 177.569 30.6596ZM126.512 24L112.131 56.3329H120.142L135.295 24H126.512ZM48.2373 30.4666H24.8804L24.0118 36.4506H34.9181L21.0198 56.3329H44.4732L45.3418 50.1559H34.532L48.2373 30.4666ZM113.965 33.7481H105.182L110.78 56.3329L115.799 44.751L113.965 33.7481ZM149.676 31.3352C148.035 30.4666 146.2 30.0805 144.174 30.0805C141.472 30.0805 139.059 30.7561 136.936 32.1074C134.812 33.4586 133.075 35.1959 131.917 37.5123C130.662 39.7321 130.083 42.2416 130.083 44.8475C130.083 46.5848 130.469 48.4186 131.146 50.2524C131.918 52.0862 133.269 53.6305 135.296 54.8852C137.323 56.2364 140.122 56.8155 143.596 56.8155C145.237 56.8155 146.589 56.719 147.747 56.4304C148.809 56.1408 150.257 55.6583 152.091 54.9826L153.345 48.6126C151.415 49.3847 149.774 49.9638 148.422 50.3499C147.072 50.735 145.527 50.929 143.694 50.929C140.218 50.929 138.385 49.0952 138.385 45.5241H154.793C154.986 44.1728 155.178 42.9181 155.178 41.7599C155.178 39.154 154.696 37.0306 153.634 35.1968C152.752 33.5265 151.367 32.1757 149.676 31.3352ZM147.07 40.6973V41.0834H139.156C139.735 39.5391 140.41 38.2844 141.086 37.3192C141.761 36.3541 142.727 35.8715 143.981 35.8715C146.008 35.8715 146.973 37.3192 146.973 40.2147C147.07 40.5043 147.07 40.6008 147.07 40.6973ZM97.8466 31.4317C95.9163 30.4666 93.8895 30.0805 91.6696 30.0805C89.5462 30.0805 87.6159 30.4666 85.7821 31.2387C83.9483 32.0108 82.404 32.976 80.9563 34.3272C79.6051 35.6785 78.5434 37.2227 77.7713 38.96C76.9991 40.6973 76.6131 42.5311 76.6131 44.3649C76.6131 46.8743 77.1922 48.9977 78.3504 50.928C79.5086 52.8583 81.1493 54.3061 83.1762 55.3677C85.203 56.4304 87.3264 56.913 89.7393 56.913C91.7661 56.913 93.5999 56.5269 95.3372 55.8503C97.0745 55.1757 98.6188 54.113 99.97 52.8583C101.32 51.6036 102.285 50.0594 103.058 48.2256C103.831 46.3917 104.216 44.5579 104.216 42.4346C104.216 39.7321 103.637 37.4157 102.478 35.5819C101.32 33.7481 99.7769 32.3969 97.8466 31.4317ZM94.9511 45.7161C94.4686 46.8743 93.7929 47.743 92.9243 48.5151C92.0557 49.1907 91.0905 49.5768 89.9323 49.5768C88.5811 49.5768 87.4229 49.0942 86.6507 48.129C85.7821 47.1639 85.396 46.0057 85.396 44.5579C85.396 43.5928 85.5891 42.5311 85.9751 41.3729C86.3612 40.2147 87.0368 39.2496 87.9055 38.4774C88.7741 37.7053 89.8358 37.3192 91.2835 37.3192C92.6348 37.3192 93.6964 37.8018 94.4686 38.6705C95.3372 39.5391 95.7233 40.7938 95.7233 42.3381C95.6268 43.4963 95.4337 44.6545 94.9511 45.7161Z" fill="#B7C0CC"/>
</g>
<defs>
<clipPath id="clip0_1_1447">
<rect width="158.231" height="32.912" fill="white" transform="translate(21 24)"/>
</clipPath>
</defs>
</svg>
