<svg width="449" height="320" viewBox="0 0 449 320" fill="none" xmlns="http://www.w3.org/2000/svg">
<g filter="url(#filter0_dd_1_1425)">
<rect x="110" y="70" width="229" height="80" fill="white"/>
</g>
<path fill-rule="evenodd" clip-rule="evenodd" d="M147.844 93.8555H163.346L163.345 109.216H147.844V93.8555Z" fill="#F1511B"/>
<path fill-rule="evenodd" clip-rule="evenodd" d="M164.928 93.8555H180.43C180.43 98.9757 180.431 104.096 180.429 109.216C175.263 109.215 170.096 109.216 164.929 109.216C164.928 104.096 164.928 98.9757 164.928 93.8555Z" fill="#80CC28"/>
<path fill-rule="evenodd" clip-rule="evenodd" d="M287.633 99.7081C289.062 98.7866 290.908 98.7005 292.519 99.1397C292.533 100.088 292.521 101.038 292.525 101.987C291.76 101.653 290.859 101.435 290.054 101.762C289.415 102.014 289.035 102.663 288.936 103.312C288.816 104.136 288.894 104.971 288.874 105.8C290.509 105.803 292.143 105.801 293.778 105.801C293.791 104.75 293.765 103.697 293.792 102.645C294.904 102.332 296.003 101.98 297.109 101.65C297.119 103.036 297.097 104.422 297.122 105.809C298.227 105.793 299.333 105.805 300.439 105.801V108.499C299.329 108.454 298.218 108.487 297.109 108.483C297.113 110.034 297.109 111.585 297.11 113.137C297.128 113.996 297.064 114.859 297.165 115.715C297.227 116.22 297.412 116.779 297.889 117.04C298.69 117.484 299.704 117.29 300.439 116.803V119.527C299.481 119.94 298.41 120.065 297.374 119.992C296.391 119.92 295.372 119.566 294.731 118.791C293.99 117.916 293.799 116.73 293.784 115.621C293.776 113.241 293.785 110.861 293.78 108.48C292.144 108.478 290.509 108.478 288.874 108.481C288.872 112.216 288.873 115.952 288.873 119.687H285.52C285.52 115.952 285.515 112.219 285.522 108.484C284.744 108.47 283.966 108.488 283.189 108.472C283.192 107.586 283.195 106.698 283.187 105.811C283.961 105.793 284.735 105.801 285.511 105.806C285.568 104.627 285.386 103.414 285.742 102.265C286.042 101.229 286.711 100.293 287.633 99.7081ZM215.853 99.9018C216.529 99.8002 217.26 100.029 217.708 100.553C218.233 101.127 218.33 102.04 217.941 102.711C217.511 103.467 216.548 103.819 215.709 103.637C214.839 103.483 214.114 102.68 214.152 101.787C214.127 100.846 214.921 100.007 215.853 99.9015V99.9018ZM190.159 100.313H195.035C196.552 104.132 198.081 107.946 199.601 111.765C199.989 112.72 200.352 113.686 200.759 114.633C202.711 109.862 204.691 105.102 206.629 100.324C208.192 100.299 209.756 100.319 211.32 100.315C211.317 106.772 211.318 113.229 211.32 119.686C210.191 119.683 209.064 119.696 207.936 119.679C207.948 114.915 207.935 110.15 207.942 105.384C207.944 105.169 207.936 104.955 207.921 104.742C207.855 104.841 207.797 104.945 207.745 105.052C205.808 109.929 203.833 114.793 201.907 119.675C201.104 119.704 200.301 119.677 199.497 119.689C197.499 114.812 195.525 109.924 193.536 105.042C193.484 104.941 193.428 104.842 193.367 104.747C193.326 106.835 193.361 108.924 193.35 111.012C193.35 113.903 193.348 116.795 193.35 119.686C192.287 119.689 191.223 119.686 190.159 119.687C190.158 113.229 190.157 106.771 190.159 100.313ZM225.079 105.789C226.697 105.332 228.442 105.35 230.059 105.803C230.393 105.896 230.715 106.024 231.016 106.198C230.997 107.256 231.016 108.316 231.005 109.375C229.924 108.556 228.553 108.038 227.179 108.209C226.087 108.307 225.047 108.868 224.394 109.742C223.555 110.825 223.361 112.263 223.506 113.588C223.614 114.625 224.046 115.661 224.86 116.348C225.706 117.093 226.891 117.356 227.997 117.274C229.09 117.149 230.122 116.69 231.005 116.05C231.014 117.053 231 118.056 231.013 119.059C229.642 119.867 227.999 120.075 226.43 119.999C224.825 119.915 223.224 119.312 222.063 118.194C220.8 116.988 220.115 115.269 220.034 113.547C219.952 111.756 220.32 109.887 221.36 108.392C222.231 107.116 223.594 106.213 225.079 105.789ZM261.701 105.577C263.251 105.307 264.874 105.505 266.341 106.056C266.343 107.075 266.341 108.092 266.342 109.11C265.317 108.411 264.065 108.036 262.821 108.079C262.194 108.103 261.505 108.366 261.219 108.957C260.992 109.541 261.15 110.306 261.706 110.656C262.656 111.286 263.79 111.554 264.775 112.118C265.55 112.55 266.303 113.115 266.696 113.929C267.434 115.452 267.122 117.467 265.823 118.603C264.584 119.751 262.8 120.068 261.158 120.007C259.992 119.932 258.821 119.704 257.75 119.232C257.754 118.161 257.743 117.091 257.755 116.021C258.656 116.669 259.696 117.133 260.797 117.322C261.563 117.445 262.397 117.451 263.11 117.111C263.794 116.774 263.917 115.812 263.511 115.223C263.131 114.77 262.573 114.52 262.047 114.274C261.06 113.834 260.021 113.466 259.154 112.807C258.544 112.335 258.082 111.671 257.901 110.922C257.633 109.817 257.717 108.573 258.365 107.608C259.105 106.483 260.391 105.809 261.701 105.577ZM238.512 106.015C239.437 105.464 240.613 105.418 241.623 105.755C241.619 106.863 241.623 107.97 241.621 109.078C240.959 108.654 240.135 108.472 239.355 108.551C238.403 108.658 237.649 109.382 237.258 110.213C236.833 111.091 236.753 112.086 236.78 113.047C236.78 115.26 236.781 117.474 236.78 119.687H233.475C233.472 115.061 233.479 110.435 233.472 105.809C234.575 105.795 235.679 105.801 236.782 105.806C236.778 106.601 236.782 107.395 236.779 108.19C237.138 107.326 237.671 106.486 238.512 106.014V106.015ZM214.457 105.806C215.569 105.801 216.681 105.791 217.793 105.812C217.78 110.437 217.792 115.062 217.787 119.687H214.459C214.456 115.06 214.46 110.434 214.457 105.806V105.806ZM247.793 105.55C249.402 105.347 251.099 105.437 252.593 106.111C253.889 106.69 254.939 107.761 255.521 109.044C256.141 110.408 256.293 111.942 256.187 113.423C256.084 114.868 255.626 116.317 254.713 117.465C253.78 118.685 252.372 119.512 250.865 119.819C249.576 120.085 248.228 120.083 246.939 119.815C245.398 119.488 243.97 118.602 243.066 117.312C242.005 115.818 241.704 113.917 241.838 112.127C241.929 110.607 242.406 109.076 243.386 107.884C244.458 106.549 246.104 105.761 247.793 105.55ZM248.793 108.186C247.992 108.231 247.182 108.499 246.588 109.049C245.768 109.784 245.394 110.88 245.292 111.946C245.181 113.117 245.262 114.353 245.802 115.421C246.222 116.25 246.993 116.902 247.903 117.139C248.797 117.369 249.77 117.349 250.636 117.02C251.376 116.734 251.962 116.13 252.283 115.416C252.766 114.357 252.814 113.166 252.755 112.023C252.672 110.979 252.372 109.884 251.597 109.129C250.873 108.403 249.801 108.121 248.793 108.186ZM274.515 105.545C276.188 105.34 277.964 105.451 279.491 106.215C280.823 106.875 281.855 108.067 282.37 109.445C282.774 110.499 282.915 111.638 282.892 112.76C282.895 114.437 282.438 116.159 281.375 117.489C280.381 118.777 278.86 119.614 277.254 119.877C275.683 120.129 274.024 120.064 272.531 119.481C271.02 118.892 269.763 117.689 269.126 116.207C268.462 114.697 268.392 112.997 268.599 111.384C268.816 109.77 269.553 108.193 270.81 107.12C271.84 106.224 273.165 105.717 274.515 105.545ZM275.42 108.189C274.492 108.241 273.572 108.637 272.973 109.352C272.315 110.119 272.033 111.131 271.957 112.117C271.878 113.136 271.957 114.19 272.354 115.142C272.685 115.941 273.313 116.636 274.122 116.976C274.873 117.296 275.719 117.353 276.521 117.234C277.269 117.125 277.993 116.771 278.48 116.19C278.963 115.611 279.218 114.882 279.346 114.152C279.509 113.171 279.51 112.161 279.319 111.185C279.148 110.353 278.777 109.526 278.105 108.974C277.378 108.341 276.367 108.124 275.42 108.189Z" fill="#282C4B"/>
<path fill-rule="evenodd" clip-rule="evenodd" d="M147.844 110.783C153.011 110.785 158.179 110.783 163.346 110.785C163.347 115.905 163.346 121.025 163.346 126.145H147.844V110.783Z" fill="#00ADEF"/>
<path fill-rule="evenodd" clip-rule="evenodd" d="M164.929 110.785C170.096 110.784 175.263 110.784 180.43 110.784V126.145H164.928C164.929 121.025 164.928 115.905 164.929 110.785Z" fill="#FBBC09"/>
<defs>
<filter id="filter0_dd_1_1425" x="0" y="0" width="449" height="320" filterUnits="userSpaceOnUse" color-interpolation-filters="sRGB">
<feFlood flood-opacity="0" result="BackgroundImageFix"/>
<feColorMatrix in="SourceAlpha" type="matrix" values="0 0 0 0 0 0 0 0 0 0 0 0 0 0 0 0 0 0 127 0" result="hardAlpha"/>
<feOffset dx="-40" dy="100"/>
<feGaussianBlur stdDeviation="35"/>
<feColorMatrix type="matrix" values="0 0 0 0 0.47451 0 0 0 0 0.47451 0 0 0 0 0.47451 0 0 0 0.05 0"/>
<feBlend mode="normal" in2="BackgroundImageFix" result="effect1_dropShadow_1_1425"/>
<feColorMatrix in="SourceAlpha" type="matrix" values="0 0 0 0 0 0 0 0 0 0 0 0 0 0 0 0 0 0 127 0" result="hardAlpha"/>
<feOffset dx="40"/>
<feGaussianBlur stdDeviation="35"/>
<feColorMatrix type="matrix" values="0 0 0 0 0.475 0 0 0 0 0.475 0 0 0 0 0.475 0 0 0 0.05 0"/>
<feBlend mode="normal" in2="effect1_dropShadow_1_1425" result="effect2_dropShadow_1_1425"/>
<feBlend mode="normal" in="SourceGraphic" in2="effect2_dropShadow_1_1425" result="shape"/>
</filter>
</defs>
</svg>
