<svg width="471" height="527" viewBox="0 0 471 527" fill="none" xmlns="http://www.w3.org/2000/svg">
<g filter="url(#filter0_dd_1_1392)">
<rect x="110" y="70" width="251" height="287" fill="white"/>
</g>
<path d="M157.82 190.3C156.78 190.3 155.847 190.14 155.02 189.82C154.193 189.5 153.493 189.033 152.92 188.42C152.347 187.793 151.907 187.033 151.6 186.14C151.293 185.247 151.14 184.22 151.14 183.06C151.14 181.9 151.313 180.873 151.66 179.98C152.02 179.087 152.507 178.333 153.12 177.72C153.733 177.093 154.453 176.62 155.28 176.3C156.107 175.98 156.993 175.82 157.94 175.82C158.513 175.82 159.033 175.867 159.5 175.96C159.967 176.04 160.373 176.133 160.72 176.24C161.067 176.347 161.353 176.46 161.58 176.58C161.807 176.7 161.967 176.787 162.06 176.84L161.32 178.9C161 178.7 160.54 178.513 159.94 178.34C159.353 178.153 158.713 178.06 158.02 178.06C157.42 178.06 156.86 178.167 156.34 178.38C155.82 178.58 155.367 178.887 154.98 179.3C154.607 179.713 154.313 180.233 154.1 180.86C153.887 181.487 153.78 182.213 153.78 183.04C153.78 183.773 153.86 184.447 154.02 185.06C154.193 185.673 154.453 186.207 154.8 186.66C155.147 187.1 155.587 187.447 156.12 187.7C156.653 187.94 157.293 188.06 158.04 188.06C158.933 188.06 159.66 187.973 160.22 187.8C160.78 187.613 161.213 187.44 161.52 187.28L162.2 189.34C162.04 189.447 161.82 189.553 161.54 189.66C161.273 189.767 160.953 189.873 160.58 189.98C160.207 190.073 159.787 190.147 159.32 190.2C158.853 190.267 158.353 190.3 157.82 190.3ZM173.5 184.76C173.5 185.587 173.38 186.34 173.14 187.02C172.9 187.7 172.56 188.28 172.12 188.76C171.68 189.24 171.147 189.613 170.52 189.88C169.907 190.147 169.227 190.28 168.48 190.28C167.733 190.28 167.053 190.147 166.44 189.88C165.827 189.613 165.3 189.24 164.86 188.76C164.42 188.28 164.073 187.7 163.82 187.02C163.58 186.34 163.46 185.587 163.46 184.76C163.46 183.933 163.58 183.187 163.82 182.52C164.073 181.84 164.42 181.26 164.86 180.78C165.313 180.3 165.847 179.933 166.46 179.68C167.073 179.413 167.747 179.28 168.48 179.28C169.213 179.28 169.887 179.413 170.5 179.68C171.127 179.933 171.66 180.3 172.1 180.78C172.54 181.26 172.88 181.84 173.12 182.52C173.373 183.187 173.5 183.933 173.5 184.76ZM171.02 184.76C171.02 183.72 170.793 182.9 170.34 182.3C169.9 181.687 169.28 181.38 168.48 181.38C167.68 181.38 167.053 181.687 166.6 182.3C166.16 182.9 165.94 183.72 165.94 184.76C165.94 185.813 166.16 186.647 166.6 187.26C167.053 187.873 167.68 188.18 168.48 188.18C169.28 188.18 169.9 187.873 170.34 187.26C170.793 186.647 171.02 185.813 171.02 184.76ZM179.633 190.2C178.913 190.187 178.313 190.107 177.833 189.96C177.366 189.813 176.993 189.607 176.713 189.34C176.433 189.06 176.233 188.72 176.113 188.32C176.006 187.907 175.953 187.44 175.953 186.92V174.88L178.373 174.48V186.46C178.373 186.753 178.393 187 178.433 187.2C178.486 187.4 178.573 187.573 178.693 187.72C178.813 187.853 178.973 187.96 179.173 188.04C179.386 188.107 179.653 188.16 179.973 188.2L179.633 190.2ZM185.571 190.2C184.851 190.187 184.251 190.107 183.771 189.96C183.304 189.813 182.931 189.607 182.651 189.34C182.371 189.06 182.171 188.72 182.051 188.32C181.944 187.907 181.891 187.44 181.891 186.92V174.88L184.311 174.48V186.46C184.311 186.753 184.331 187 184.371 187.2C184.424 187.4 184.511 187.573 184.631 187.72C184.751 187.853 184.911 187.96 185.111 188.04C185.324 188.107 185.591 188.16 185.911 188.2L185.571 190.2ZM191.548 188.3C192.295 188.3 192.861 188.26 193.248 188.18V185.5C193.115 185.46 192.921 185.42 192.668 185.38C192.415 185.34 192.135 185.32 191.828 185.32C191.561 185.32 191.288 185.34 191.008 185.38C190.741 185.42 190.495 185.493 190.268 185.6C190.055 185.707 189.881 185.86 189.748 186.06C189.615 186.247 189.548 186.487 189.548 186.78C189.548 187.353 189.728 187.753 190.088 187.98C190.448 188.193 190.935 188.3 191.548 188.3ZM191.348 179.28C192.148 179.28 192.821 179.38 193.368 179.58C193.915 179.78 194.348 180.06 194.668 180.42C195.001 180.78 195.235 181.22 195.368 181.74C195.515 182.247 195.588 182.807 195.588 183.42V189.76C195.215 189.84 194.648 189.933 193.888 190.04C193.141 190.16 192.295 190.22 191.348 190.22C190.721 190.22 190.148 190.16 189.628 190.04C189.108 189.92 188.661 189.727 188.288 189.46C187.928 189.193 187.641 188.847 187.428 188.42C187.228 187.993 187.128 187.467 187.128 186.84C187.128 186.24 187.241 185.733 187.468 185.32C187.708 184.907 188.028 184.573 188.428 184.32C188.828 184.053 189.288 183.867 189.808 183.76C190.341 183.64 190.895 183.58 191.468 183.58C191.735 183.58 192.015 183.6 192.308 183.64C192.601 183.667 192.915 183.72 193.248 183.8V183.4C193.248 183.12 193.215 182.853 193.148 182.6C193.081 182.347 192.961 182.127 192.788 181.94C192.628 181.74 192.408 181.587 192.128 181.48C191.861 181.373 191.521 181.32 191.108 181.32C190.548 181.32 190.035 181.36 189.568 181.44C189.101 181.52 188.721 181.613 188.428 181.72L188.128 179.76C188.435 179.653 188.881 179.547 189.468 179.44C190.055 179.333 190.681 179.28 191.348 179.28ZM205.492 184.74C205.492 183.713 205.285 182.9 204.872 182.3C204.472 181.7 203.832 181.4 202.952 181.4C202.552 181.4 202.172 181.46 201.812 181.58C201.465 181.7 201.185 181.833 200.972 181.98V188C201.145 188.04 201.365 188.08 201.632 188.12C201.912 188.147 202.245 188.16 202.632 188.16C203.525 188.16 204.225 187.86 204.732 187.26C205.238 186.647 205.492 185.807 205.492 184.74ZM207.972 184.78C207.972 185.62 207.845 186.38 207.592 187.06C207.352 187.727 206.998 188.3 206.532 188.78C206.078 189.26 205.525 189.627 204.872 189.88C204.218 190.133 203.478 190.26 202.652 190.26C201.852 190.26 201.085 190.2 200.352 190.08C199.632 189.96 199.032 189.827 198.552 189.68V174.88L200.972 174.48V179.9C201.252 179.753 201.592 179.62 201.992 179.5C202.405 179.38 202.858 179.32 203.352 179.32C204.085 179.32 204.738 179.453 205.312 179.72C205.898 179.973 206.385 180.34 206.772 180.82C207.158 181.3 207.452 181.88 207.652 182.56C207.865 183.227 207.972 183.967 207.972 184.78ZM219.926 184.76C219.926 185.587 219.806 186.34 219.566 187.02C219.326 187.7 218.986 188.28 218.546 188.76C218.106 189.24 217.572 189.613 216.946 189.88C216.332 190.147 215.652 190.28 214.906 190.28C214.159 190.28 213.479 190.147 212.866 189.88C212.252 189.613 211.726 189.24 211.286 188.76C210.846 188.28 210.499 187.7 210.246 187.02C210.006 186.34 209.886 185.587 209.886 184.76C209.886 183.933 210.006 183.187 210.246 182.52C210.499 181.84 210.846 181.26 211.286 180.78C211.739 180.3 212.272 179.933 212.886 179.68C213.499 179.413 214.172 179.28 214.906 179.28C215.639 179.28 216.312 179.413 216.926 179.68C217.552 179.933 218.086 180.3 218.526 180.78C218.966 181.26 219.306 181.84 219.546 182.52C219.799 183.187 219.926 183.933 219.926 184.76ZM217.446 184.76C217.446 183.72 217.219 182.9 216.766 182.3C216.326 181.687 215.706 181.38 214.906 181.38C214.106 181.38 213.479 181.687 213.026 182.3C212.586 182.9 212.366 183.72 212.366 184.76C212.366 185.813 212.586 186.647 213.026 187.26C213.479 187.873 214.106 188.18 214.906 188.18C215.706 188.18 216.326 187.873 216.766 187.26C217.219 186.647 217.446 185.813 217.446 184.76ZM228.379 181.72C228.179 181.653 227.899 181.587 227.539 181.52C227.192 181.44 226.786 181.4 226.319 181.4C226.052 181.4 225.766 181.427 225.459 181.48C225.166 181.533 224.959 181.58 224.839 181.62V190H222.419V180.04C222.886 179.867 223.466 179.707 224.159 179.56C224.866 179.4 225.646 179.32 226.499 179.32C226.659 179.32 226.846 179.333 227.059 179.36C227.272 179.373 227.486 179.4 227.699 179.44C227.912 179.467 228.119 179.507 228.319 179.56C228.519 179.6 228.679 179.64 228.799 179.68L228.379 181.72ZM234.165 188.3C234.912 188.3 235.479 188.26 235.865 188.18V185.5C235.732 185.46 235.539 185.42 235.285 185.38C235.032 185.34 234.752 185.32 234.445 185.32C234.179 185.32 233.905 185.34 233.625 185.38C233.359 185.42 233.112 185.493 232.885 185.6C232.672 185.707 232.499 185.86 232.365 186.06C232.232 186.247 232.165 186.487 232.165 186.78C232.165 187.353 232.345 187.753 232.705 187.98C233.065 188.193 233.552 188.3 234.165 188.3ZM233.965 179.28C234.765 179.28 235.439 179.38 235.985 179.58C236.532 179.78 236.965 180.06 237.285 180.42C237.619 180.78 237.852 181.22 237.985 181.74C238.132 182.247 238.205 182.807 238.205 183.42V189.76C237.832 189.84 237.265 189.933 236.505 190.04C235.759 190.16 234.912 190.22 233.965 190.22C233.339 190.22 232.765 190.16 232.245 190.04C231.725 189.92 231.279 189.727 230.905 189.46C230.545 189.193 230.259 188.847 230.045 188.42C229.845 187.993 229.745 187.467 229.745 186.84C229.745 186.24 229.859 185.733 230.085 185.32C230.325 184.907 230.645 184.573 231.045 184.32C231.445 184.053 231.905 183.867 232.425 183.76C232.959 183.64 233.512 183.58 234.085 183.58C234.352 183.58 234.632 183.6 234.925 183.64C235.219 183.667 235.532 183.72 235.865 183.8V183.4C235.865 183.12 235.832 182.853 235.765 182.6C235.699 182.347 235.579 182.127 235.405 181.94C235.245 181.74 235.025 181.587 234.745 181.48C234.479 181.373 234.139 181.32 233.725 181.32C233.165 181.32 232.652 181.36 232.185 181.44C231.719 181.52 231.339 181.613 231.045 181.72L230.745 179.76C231.052 179.653 231.499 179.547 232.085 179.44C232.672 179.333 233.299 179.28 233.965 179.28ZM241.049 176.78L243.469 176.38V179.54H247.189V181.56H243.469V185.82C243.469 186.66 243.602 187.26 243.869 187.62C244.136 187.98 244.589 188.16 245.229 188.16C245.669 188.16 246.056 188.113 246.389 188.02C246.736 187.927 247.009 187.84 247.209 187.76L247.609 189.68C247.329 189.8 246.962 189.92 246.509 190.04C246.056 190.173 245.522 190.24 244.909 190.24C244.162 190.24 243.536 190.14 243.029 189.94C242.536 189.74 242.142 189.453 241.849 189.08C241.556 188.693 241.349 188.233 241.229 187.7C241.109 187.153 241.049 186.533 241.049 185.84V176.78ZM248.773 184.82C248.773 183.9 248.906 183.093 249.173 182.4C249.453 181.707 249.819 181.133 250.273 180.68C250.726 180.213 251.246 179.867 251.833 179.64C252.419 179.4 253.019 179.28 253.633 179.28C255.073 179.28 256.193 179.727 256.993 180.62C257.806 181.513 258.213 182.847 258.213 184.62C258.213 184.753 258.206 184.907 258.193 185.08C258.193 185.24 258.186 185.387 258.173 185.52H251.273C251.339 186.36 251.633 187.013 252.153 187.48C252.686 187.933 253.453 188.16 254.453 188.16C255.039 188.16 255.573 188.107 256.053 188C256.546 187.893 256.933 187.78 257.213 187.66L257.533 189.64C257.399 189.707 257.213 189.78 256.973 189.86C256.746 189.927 256.479 189.987 256.173 190.04C255.879 190.107 255.559 190.16 255.213 190.2C254.866 190.24 254.513 190.26 254.153 190.26C253.233 190.26 252.433 190.127 251.753 189.86C251.073 189.58 250.513 189.2 250.073 188.72C249.633 188.227 249.306 187.653 249.093 187C248.879 186.333 248.773 185.607 248.773 184.82ZM255.793 183.74C255.793 183.407 255.746 183.093 255.653 182.8C255.559 182.493 255.419 182.233 255.233 182.02C255.059 181.793 254.839 181.62 254.573 181.5C254.319 181.367 254.013 181.3 253.653 181.3C253.279 181.3 252.953 181.373 252.673 181.52C252.393 181.653 252.153 181.833 251.953 182.06C251.766 182.287 251.619 182.547 251.513 182.84C251.406 183.133 251.333 183.433 251.293 183.74H255.793Z" fill="#14183E"/>
<path d="M157.635 227.885H159.09V232.745C158.97 232.785 158.795 232.83 158.565 232.88C158.345 232.93 158.085 232.98 157.785 233.03C157.495 233.08 157.175 233.12 156.825 233.15C156.475 233.19 156.12 233.21 155.76 233.21C155.03 233.21 154.365 233.09 153.765 232.85C153.165 232.61 152.65 232.26 152.22 231.8C151.79 231.34 151.455 230.775 151.215 230.105C150.985 229.435 150.87 228.665 150.87 227.795C150.87 226.925 151 226.155 151.26 225.485C151.53 224.805 151.89 224.235 152.34 223.775C152.79 223.315 153.315 222.965 153.915 222.725C154.525 222.485 155.175 222.365 155.865 222.365C156.335 222.365 156.75 222.395 157.11 222.455C157.48 222.515 157.795 222.585 158.055 222.665C158.315 222.745 158.525 222.825 158.685 222.905C158.855 222.985 158.97 223.045 159.03 223.085L158.565 224.3C158.275 224.11 157.89 223.955 157.41 223.835C156.93 223.705 156.44 223.64 155.94 223.64C155.41 223.64 154.925 223.735 154.485 223.925C154.055 224.115 153.685 224.39 153.375 224.75C153.075 225.11 152.84 225.55 152.67 226.07C152.5 226.58 152.415 227.155 152.415 227.795C152.415 228.415 152.485 228.98 152.625 229.49C152.775 230 152.995 230.44 153.285 230.81C153.585 231.17 153.95 231.45 154.38 231.65C154.82 231.85 155.335 231.95 155.925 231.95C156.345 231.95 156.7 231.93 156.99 231.89C157.29 231.84 157.505 231.795 157.635 231.755V227.885ZM164.158 225.035C164.278 225.035 164.413 225.045 164.563 225.065C164.723 225.075 164.878 225.095 165.028 225.125C165.178 225.145 165.313 225.17 165.433 225.2C165.563 225.22 165.658 225.24 165.718 225.26L165.478 226.475C165.368 226.435 165.183 226.39 164.923 226.34C164.673 226.28 164.348 226.25 163.948 226.25C163.688 226.25 163.428 226.28 163.168 226.34C162.918 226.39 162.753 226.425 162.673 226.445V233H161.278V225.53C161.608 225.41 162.018 225.3 162.508 225.2C162.998 225.09 163.548 225.035 164.158 225.035ZM173.949 229.1C173.949 229.72 173.859 230.28 173.679 230.78C173.499 231.28 173.244 231.71 172.914 232.07C172.594 232.43 172.209 232.71 171.759 232.91C171.309 233.1 170.819 233.195 170.289 233.195C169.759 233.195 169.269 233.1 168.819 232.91C168.369 232.71 167.979 232.43 167.649 232.07C167.329 231.71 167.079 231.28 166.899 230.78C166.719 230.28 166.629 229.72 166.629 229.1C166.629 228.49 166.719 227.935 166.899 227.435C167.079 226.925 167.329 226.49 167.649 226.13C167.979 225.77 168.369 225.495 168.819 225.305C169.269 225.105 169.759 225.005 170.289 225.005C170.819 225.005 171.309 225.105 171.759 225.305C172.209 225.495 172.594 225.77 172.914 226.13C173.244 226.49 173.499 226.925 173.679 227.435C173.859 227.935 173.949 228.49 173.949 229.1ZM172.494 229.1C172.494 228.22 172.294 227.525 171.894 227.015C171.504 226.495 170.969 226.235 170.289 226.235C169.609 226.235 169.069 226.495 168.669 227.015C168.279 227.525 168.084 228.22 168.084 229.1C168.084 229.98 168.279 230.68 168.669 231.2C169.069 231.71 169.609 231.965 170.289 231.965C170.969 231.965 171.504 231.71 171.894 231.2C172.294 230.68 172.494 229.98 172.494 229.1ZM182.096 233C181.816 232.28 181.516 231.46 181.196 230.54C180.886 229.61 180.601 228.645 180.341 227.645C180.081 228.645 179.796 229.61 179.486 230.54C179.176 231.46 178.881 232.28 178.601 233H177.386C176.926 231.97 176.476 230.795 176.036 229.475C175.596 228.155 175.181 226.73 174.791 225.2H176.291C176.391 225.67 176.511 226.18 176.651 226.73C176.791 227.28 176.936 227.83 177.086 228.38C177.246 228.93 177.411 229.46 177.581 229.97C177.751 230.48 177.911 230.925 178.061 231.305C178.231 230.835 178.396 230.34 178.556 229.82C178.726 229.29 178.886 228.76 179.036 228.23C179.186 227.69 179.326 227.165 179.456 226.655C179.596 226.135 179.716 225.65 179.816 225.2H180.971C181.061 225.65 181.171 226.135 181.301 226.655C181.431 227.165 181.571 227.69 181.721 228.23C181.871 228.76 182.026 229.29 182.186 229.82C182.356 230.34 182.526 230.835 182.696 231.305C182.846 230.925 183.001 230.48 183.161 229.97C183.331 229.46 183.496 228.93 183.656 228.38C183.816 227.83 183.966 227.28 184.106 226.73C184.246 226.18 184.366 225.67 184.466 225.2H185.906C185.516 226.73 185.101 228.155 184.661 229.475C184.221 230.795 183.771 231.97 183.311 233H182.096ZM192.158 225.2H195.113V226.37H192.158V229.97C192.158 230.36 192.188 230.685 192.248 230.945C192.308 231.195 192.398 231.395 192.518 231.545C192.638 231.685 192.788 231.785 192.968 231.845C193.148 231.905 193.358 231.935 193.598 231.935C194.018 231.935 194.353 231.89 194.603 231.8C194.863 231.7 195.043 231.63 195.143 231.59L195.413 232.745C195.273 232.815 195.028 232.9 194.678 233C194.328 233.11 193.928 233.165 193.478 233.165C192.948 233.165 192.508 233.1 192.158 232.97C191.818 232.83 191.543 232.625 191.333 232.355C191.123 232.085 190.973 231.755 190.883 231.365C190.803 230.965 190.763 230.505 190.763 229.985V223.025L192.158 222.785V225.2ZM196.888 233V221.6L198.283 221.36V225.35C198.543 225.25 198.818 225.175 199.108 225.125C199.408 225.065 199.703 225.035 199.993 225.035C200.613 225.035 201.128 225.125 201.538 225.305C201.948 225.475 202.273 225.72 202.513 226.04C202.763 226.35 202.938 226.725 203.038 227.165C203.138 227.605 203.188 228.09 203.188 228.62V233H201.793V228.92C201.793 228.44 201.758 228.03 201.688 227.69C201.628 227.35 201.523 227.075 201.373 226.865C201.223 226.655 201.023 226.505 200.773 226.415C200.523 226.315 200.213 226.265 199.843 226.265C199.693 226.265 199.538 226.275 199.378 226.295C199.218 226.315 199.063 226.34 198.913 226.37C198.773 226.39 198.643 226.415 198.523 226.445C198.413 226.475 198.333 226.5 198.283 226.52V233H196.888ZM205.023 229.115C205.023 228.425 205.123 227.825 205.323 227.315C205.523 226.795 205.788 226.365 206.118 226.025C206.448 225.685 206.828 225.43 207.258 225.26C207.688 225.09 208.128 225.005 208.578 225.005C209.628 225.005 210.433 225.335 210.993 225.995C211.553 226.645 211.833 227.64 211.833 228.98C211.833 229.04 211.833 229.12 211.833 229.22C211.833 229.31 211.828 229.395 211.818 229.475H206.478C206.538 230.285 206.773 230.9 207.183 231.32C207.593 231.74 208.233 231.95 209.103 231.95C209.593 231.95 210.003 231.91 210.333 231.83C210.673 231.74 210.928 231.655 211.098 231.575L211.293 232.745C211.123 232.835 210.823 232.93 210.393 233.03C209.973 233.13 209.493 233.18 208.953 233.18C208.273 233.18 207.683 233.08 207.183 232.88C206.693 232.67 206.288 232.385 205.968 232.025C205.648 231.665 205.408 231.24 205.248 230.75C205.098 230.25 205.023 229.705 205.023 229.115ZM210.378 228.35C210.388 227.72 210.228 227.205 209.898 226.805C209.578 226.395 209.133 226.19 208.563 226.19C208.243 226.19 207.958 226.255 207.708 226.385C207.468 226.505 207.263 226.665 207.093 226.865C206.923 227.065 206.788 227.295 206.688 227.555C206.598 227.815 206.538 228.08 206.508 228.35H210.378ZM217.308 233V221.6L218.703 221.36V225.35C218.963 225.25 219.238 225.175 219.528 225.125C219.828 225.065 220.123 225.035 220.413 225.035C221.033 225.035 221.548 225.125 221.958 225.305C222.368 225.475 222.693 225.72 222.933 226.04C223.183 226.35 223.358 226.725 223.458 227.165C223.558 227.605 223.608 228.09 223.608 228.62V233H222.213V228.92C222.213 228.44 222.178 228.03 222.108 227.69C222.048 227.35 221.943 227.075 221.793 226.865C221.643 226.655 221.443 226.505 221.193 226.415C220.943 226.315 220.633 226.265 220.263 226.265C220.113 226.265 219.958 226.275 219.798 226.295C219.638 226.315 219.483 226.34 219.333 226.37C219.193 226.39 219.063 226.415 218.943 226.445C218.833 226.475 218.753 226.5 218.703 226.52V233H217.308ZM232.763 229.1C232.763 229.72 232.673 230.28 232.493 230.78C232.313 231.28 232.058 231.71 231.728 232.07C231.408 232.43 231.023 232.71 230.573 232.91C230.123 233.1 229.633 233.195 229.103 233.195C228.573 233.195 228.083 233.1 227.633 232.91C227.183 232.71 226.793 232.43 226.463 232.07C226.143 231.71 225.893 231.28 225.713 230.78C225.533 230.28 225.443 229.72 225.443 229.1C225.443 228.49 225.533 227.935 225.713 227.435C225.893 226.925 226.143 226.49 226.463 226.13C226.793 225.77 227.183 225.495 227.633 225.305C228.083 225.105 228.573 225.005 229.103 225.005C229.633 225.005 230.123 225.105 230.573 225.305C231.023 225.495 231.408 225.77 231.728 226.13C232.058 226.49 232.313 226.925 232.493 227.435C232.673 227.935 232.763 228.49 232.763 229.1ZM231.308 229.1C231.308 228.22 231.108 227.525 230.708 227.015C230.318 226.495 229.783 226.235 229.103 226.235C228.423 226.235 227.883 226.495 227.483 227.015C227.093 227.525 226.898 228.22 226.898 229.1C226.898 229.98 227.093 230.68 227.483 231.2C227.883 231.71 228.423 231.965 229.103 231.965C229.783 231.965 230.318 231.71 230.708 231.2C231.108 230.68 231.308 229.98 231.308 229.1ZM237.065 233.15C236.205 233.13 235.595 232.945 235.235 232.595C234.875 232.245 234.695 231.7 234.695 230.96V221.6L236.09 221.36V230.735C236.09 230.965 236.11 231.155 236.15 231.305C236.19 231.455 236.255 231.575 236.345 231.665C236.435 231.755 236.555 231.825 236.705 231.875C236.855 231.915 237.04 231.95 237.26 231.98L237.065 233.15ZM240.222 233H238.827V225.2H240.222V233ZM239.517 223.79C239.267 223.79 239.052 223.71 238.872 223.55C238.702 223.38 238.617 223.155 238.617 222.875C238.617 222.595 238.702 222.375 238.872 222.215C239.052 222.045 239.267 221.96 239.517 221.96C239.767 221.96 239.977 222.045 240.147 222.215C240.327 222.375 240.417 222.595 240.417 222.875C240.417 223.155 240.327 223.38 240.147 223.55C239.977 223.71 239.767 223.79 239.517 223.79ZM244.436 231.995C245.006 231.995 245.426 231.92 245.696 231.77C245.976 231.62 246.116 231.38 246.116 231.05C246.116 230.71 245.981 230.44 245.711 230.24C245.441 230.04 244.996 229.815 244.376 229.565C244.076 229.445 243.786 229.325 243.506 229.205C243.236 229.075 243.001 228.925 242.801 228.755C242.601 228.585 242.441 228.38 242.321 228.14C242.201 227.9 242.141 227.605 242.141 227.255C242.141 226.565 242.396 226.02 242.906 225.62C243.416 225.21 244.111 225.005 244.991 225.005C245.211 225.005 245.431 225.02 245.651 225.05C245.871 225.07 246.076 225.1 246.266 225.14C246.456 225.17 246.621 225.205 246.761 225.245C246.911 225.285 247.026 225.32 247.106 225.35L246.851 226.55C246.701 226.47 246.466 226.39 246.146 226.31C245.826 226.22 245.441 226.175 244.991 226.175C244.601 226.175 244.261 226.255 243.971 226.415C243.681 226.565 243.536 226.805 243.536 227.135C243.536 227.305 243.566 227.455 243.626 227.585C243.696 227.715 243.796 227.835 243.926 227.945C244.066 228.045 244.236 228.14 244.436 228.23C244.636 228.32 244.876 228.415 245.156 228.515C245.526 228.655 245.856 228.795 246.146 228.935C246.436 229.065 246.681 229.22 246.881 229.4C247.091 229.58 247.251 229.8 247.361 230.06C247.471 230.31 247.526 230.62 247.526 230.99C247.526 231.71 247.256 232.255 246.716 232.625C246.186 232.995 245.426 233.18 244.436 233.18C243.746 233.18 243.206 233.12 242.816 233C242.426 232.89 242.161 232.805 242.021 232.745L242.276 231.545C242.436 231.605 242.691 231.695 243.041 231.815C243.391 231.935 243.856 231.995 244.436 231.995ZM250.62 225.2H253.575V226.37H250.62V229.97C250.62 230.36 250.65 230.685 250.71 230.945C250.77 231.195 250.86 231.395 250.98 231.545C251.1 231.685 251.25 231.785 251.43 231.845C251.61 231.905 251.82 231.935 252.06 231.935C252.48 231.935 252.815 231.89 253.065 231.8C253.325 231.7 253.505 231.63 253.605 231.59L253.875 232.745C253.735 232.815 253.49 232.9 253.14 233C252.79 233.11 252.39 233.165 251.94 233.165C251.41 233.165 250.97 233.1 250.62 232.97C250.28 232.83 250.005 232.625 249.795 232.355C249.585 232.085 249.435 231.755 249.345 231.365C249.265 230.965 249.225 230.505 249.225 229.985V223.025L250.62 222.785V225.2ZM256.745 233H255.35V225.2H256.745V233ZM256.04 223.79C255.79 223.79 255.575 223.71 255.395 223.55C255.225 223.38 255.14 223.155 255.14 222.875C255.14 222.595 255.225 222.375 255.395 222.215C255.575 222.045 255.79 221.96 256.04 221.96C256.29 221.96 256.5 222.045 256.67 222.215C256.85 222.375 256.94 222.595 256.94 222.875C256.94 223.155 256.85 223.38 256.67 223.55C256.5 223.71 256.29 223.79 256.04 223.79ZM262.534 233.18C261.904 233.18 261.349 233.08 260.869 232.88C260.399 232.68 259.999 232.4 259.669 232.04C259.349 231.68 259.109 231.255 258.949 230.765C258.789 230.265 258.709 229.715 258.709 229.115C258.709 228.515 258.794 227.965 258.964 227.465C259.144 226.965 259.394 226.535 259.714 226.175C260.034 225.805 260.424 225.52 260.884 225.32C261.354 225.11 261.874 225.005 262.444 225.005C262.794 225.005 263.144 225.035 263.494 225.095C263.844 225.155 264.179 225.25 264.499 225.38L264.184 226.565C263.974 226.465 263.729 226.385 263.449 226.325C263.179 226.265 262.889 226.235 262.579 226.235C261.799 226.235 261.199 226.48 260.779 226.97C260.369 227.46 260.164 228.175 260.164 229.115C260.164 229.535 260.209 229.92 260.299 230.27C260.399 230.62 260.549 230.92 260.749 231.17C260.959 231.42 261.224 231.615 261.544 231.755C261.864 231.885 262.254 231.95 262.714 231.95C263.084 231.95 263.419 231.915 263.719 231.845C264.019 231.775 264.254 231.7 264.424 231.62L264.619 232.79C264.539 232.84 264.424 232.89 264.274 232.94C264.124 232.98 263.954 233.015 263.764 233.045C263.574 233.085 263.369 233.115 263.149 233.135C262.939 233.165 262.734 233.18 262.534 233.18ZM275.964 233C275.684 232.28 275.384 231.46 275.064 230.54C274.754 229.61 274.469 228.645 274.209 227.645C273.949 228.645 273.664 229.61 273.354 230.54C273.044 231.46 272.749 232.28 272.469 233H271.254C270.794 231.97 270.344 230.795 269.904 229.475C269.464 228.155 269.049 226.73 268.659 225.2H270.159C270.259 225.67 270.379 226.18 270.519 226.73C270.659 227.28 270.804 227.83 270.954 228.38C271.114 228.93 271.279 229.46 271.449 229.97C271.619 230.48 271.779 230.925 271.929 231.305C272.099 230.835 272.264 230.34 272.424 229.82C272.594 229.29 272.754 228.76 272.904 228.23C273.054 227.69 273.194 227.165 273.324 226.655C273.464 226.135 273.584 225.65 273.684 225.2H274.839C274.929 225.65 275.039 226.135 275.169 226.655C275.299 227.165 275.439 227.69 275.589 228.23C275.739 228.76 275.894 229.29 276.054 229.82C276.224 230.34 276.394 230.835 276.564 231.305C276.714 230.925 276.869 230.48 277.029 229.97C277.199 229.46 277.364 228.93 277.524 228.38C277.684 227.83 277.834 227.28 277.974 226.73C278.114 226.18 278.234 225.67 278.334 225.2H279.774C279.384 226.73 278.969 228.155 278.529 229.475C278.089 230.795 277.639 231.97 277.179 233H275.964ZM287.958 229.1C287.958 229.72 287.868 230.28 287.688 230.78C287.508 231.28 287.253 231.71 286.923 232.07C286.603 232.43 286.218 232.71 285.768 232.91C285.318 233.1 284.828 233.195 284.298 233.195C283.768 233.195 283.278 233.1 282.828 232.91C282.378 232.71 281.988 232.43 281.658 232.07C281.338 231.71 281.088 231.28 280.908 230.78C280.728 230.28 280.638 229.72 280.638 229.1C280.638 228.49 280.728 227.935 280.908 227.435C281.088 226.925 281.338 226.49 281.658 226.13C281.988 225.77 282.378 225.495 282.828 225.305C283.278 225.105 283.768 225.005 284.298 225.005C284.828 225.005 285.318 225.105 285.768 225.305C286.218 225.495 286.603 225.77 286.923 226.13C287.253 226.49 287.508 226.925 287.688 227.435C287.868 227.935 287.958 228.49 287.958 229.1ZM286.503 229.1C286.503 228.22 286.303 227.525 285.903 227.015C285.513 226.495 284.978 226.235 284.298 226.235C283.618 226.235 283.078 226.495 282.678 227.015C282.288 227.525 282.093 228.22 282.093 229.1C282.093 229.98 282.288 230.68 282.678 231.2C283.078 231.71 283.618 231.965 284.298 231.965C284.978 231.965 285.513 231.71 285.903 231.2C286.303 230.68 286.503 229.98 286.503 229.1ZM292.801 225.035C292.921 225.035 293.056 225.045 293.206 225.065C293.366 225.075 293.521 225.095 293.671 225.125C293.821 225.145 293.956 225.17 294.076 225.2C294.206 225.22 294.301 225.24 294.361 225.26L294.121 226.475C294.011 226.435 293.826 226.39 293.566 226.34C293.316 226.28 292.991 226.25 292.591 226.25C292.331 226.25 292.071 226.28 291.811 226.34C291.561 226.39 291.396 226.425 291.316 226.445V233H289.921V225.53C290.251 225.41 290.661 225.3 291.151 225.2C291.641 225.09 292.191 225.035 292.801 225.035ZM298.047 233.15C297.187 233.13 296.577 232.945 296.217 232.595C295.857 232.245 295.677 231.7 295.677 230.96V221.6L297.072 221.36V230.735C297.072 230.965 297.092 231.155 297.132 231.305C297.172 231.455 297.237 231.575 297.327 231.665C297.417 231.755 297.537 231.825 297.687 231.875C297.837 231.915 298.022 231.95 298.242 231.98L298.047 233.15ZM304.848 226.85C304.678 226.71 304.433 226.575 304.113 226.445C303.793 226.315 303.443 226.25 303.063 226.25C302.663 226.25 302.318 226.325 302.028 226.475C301.748 226.615 301.518 226.815 301.338 227.075C301.158 227.325 301.028 227.625 300.948 227.975C300.868 228.325 300.828 228.7 300.828 229.1C300.828 230.01 301.053 230.715 301.503 231.215C301.953 231.705 302.553 231.95 303.303 231.95C303.683 231.95 303.998 231.935 304.248 231.905C304.508 231.865 304.708 231.825 304.848 231.785V226.85ZM304.848 221.6L306.243 221.36V232.775C305.923 232.865 305.513 232.955 305.013 233.045C304.513 233.135 303.938 233.18 303.288 233.18C302.688 233.18 302.148 233.085 301.668 232.895C301.188 232.705 300.778 232.435 300.438 232.085C300.098 231.735 299.833 231.31 299.643 230.81C299.463 230.3 299.373 229.73 299.373 229.1C299.373 228.5 299.448 227.95 299.598 227.45C299.758 226.95 299.988 226.52 300.288 226.16C300.588 225.8 300.953 225.52 301.383 225.32C301.823 225.12 302.323 225.02 302.883 225.02C303.333 225.02 303.728 225.08 304.068 225.2C304.418 225.32 304.678 225.435 304.848 225.545V221.6ZM157.29 252.2C156.9 253.66 156.44 255.06 155.91 256.4C155.39 257.74 154.885 258.94 154.395 260H153.135C152.645 258.94 152.135 257.74 151.605 256.4C151.085 255.06 150.63 253.66 150.24 252.2H151.74C151.86 252.69 152 253.215 152.16 253.775C152.33 254.325 152.505 254.875 152.685 255.425C152.875 255.965 153.065 256.49 153.255 257C153.445 257.51 153.625 257.965 153.795 258.365C153.965 257.965 154.145 257.51 154.335 257C154.525 256.49 154.71 255.965 154.89 255.425C155.08 254.875 155.255 254.325 155.415 253.775C155.585 253.215 155.73 252.69 155.85 252.2H157.29ZM160.124 260H158.729V252.2H160.124V260ZM159.419 250.79C159.169 250.79 158.954 250.71 158.774 250.55C158.604 250.38 158.519 250.155 158.519 249.875C158.519 249.595 158.604 249.375 158.774 249.215C158.954 249.045 159.169 248.96 159.419 248.96C159.669 248.96 159.879 249.045 160.049 249.215C160.229 249.375 160.319 249.595 160.319 249.875C160.319 250.155 160.229 250.38 160.049 250.55C159.879 250.71 159.669 250.79 159.419 250.79ZM162.088 256.115C162.088 255.425 162.188 254.825 162.388 254.315C162.588 253.795 162.853 253.365 163.183 253.025C163.513 252.685 163.893 252.43 164.323 252.26C164.753 252.09 165.193 252.005 165.643 252.005C166.693 252.005 167.498 252.335 168.058 252.995C168.618 253.645 168.898 254.64 168.898 255.98C168.898 256.04 168.898 256.12 168.898 256.22C168.898 256.31 168.893 256.395 168.883 256.475H163.543C163.603 257.285 163.838 257.9 164.248 258.32C164.658 258.74 165.298 258.95 166.168 258.95C166.658 258.95 167.068 258.91 167.398 258.83C167.738 258.74 167.993 258.655 168.163 258.575L168.358 259.745C168.188 259.835 167.888 259.93 167.458 260.03C167.038 260.13 166.558 260.18 166.018 260.18C165.338 260.18 164.748 260.08 164.248 259.88C163.758 259.67 163.353 259.385 163.033 259.025C162.713 258.665 162.473 258.24 162.313 257.75C162.163 257.25 162.088 256.705 162.088 256.115ZM167.443 255.35C167.453 254.72 167.293 254.205 166.963 253.805C166.643 253.395 166.198 253.19 165.628 253.19C165.308 253.19 165.023 253.255 164.773 253.385C164.533 253.505 164.328 253.665 164.158 253.865C163.988 254.065 163.853 254.295 163.753 254.555C163.663 254.815 163.603 255.08 163.573 255.35H167.443ZM177.277 260C176.997 259.28 176.697 258.46 176.377 257.54C176.067 256.61 175.782 255.645 175.522 254.645C175.262 255.645 174.977 256.61 174.667 257.54C174.357 258.46 174.062 259.28 173.782 260H172.567C172.107 258.97 171.657 257.795 171.217 256.475C170.777 255.155 170.362 253.73 169.972 252.2H171.472C171.572 252.67 171.692 253.18 171.832 253.73C171.972 254.28 172.117 254.83 172.267 255.38C172.427 255.93 172.592 256.46 172.762 256.97C172.932 257.48 173.092 257.925 173.242 258.305C173.412 257.835 173.577 257.34 173.737 256.82C173.907 256.29 174.067 255.76 174.217 255.23C174.367 254.69 174.507 254.165 174.637 253.655C174.777 253.135 174.897 252.65 174.997 252.2H176.152C176.242 252.65 176.352 253.135 176.482 253.655C176.612 254.165 176.752 254.69 176.902 255.23C177.052 255.76 177.207 256.29 177.367 256.82C177.537 257.34 177.707 257.835 177.877 258.305C178.027 257.925 178.182 257.48 178.342 256.97C178.512 256.46 178.677 255.93 178.837 255.38C178.997 254.83 179.147 254.28 179.287 253.73C179.427 253.18 179.547 252.67 179.647 252.2H181.087C180.697 253.73 180.282 255.155 179.842 256.475C179.402 257.795 178.952 258.97 178.492 260H177.277ZM192.919 256.1C192.919 256.72 192.829 257.28 192.649 257.78C192.469 258.28 192.214 258.71 191.884 259.07C191.564 259.43 191.179 259.71 190.729 259.91C190.279 260.1 189.789 260.195 189.259 260.195C188.729 260.195 188.239 260.1 187.789 259.91C187.339 259.71 186.949 259.43 186.619 259.07C186.299 258.71 186.049 258.28 185.869 257.78C185.689 257.28 185.599 256.72 185.599 256.1C185.599 255.49 185.689 254.935 185.869 254.435C186.049 253.925 186.299 253.49 186.619 253.13C186.949 252.77 187.339 252.495 187.789 252.305C188.239 252.105 188.729 252.005 189.259 252.005C189.789 252.005 190.279 252.105 190.729 252.305C191.179 252.495 191.564 252.77 191.884 253.13C192.214 253.49 192.469 253.925 192.649 254.435C192.829 254.935 192.919 255.49 192.919 256.1ZM191.464 256.1C191.464 255.22 191.264 254.525 190.864 254.015C190.474 253.495 189.939 253.235 189.259 253.235C188.579 253.235 188.039 253.495 187.639 254.015C187.249 254.525 187.054 255.22 187.054 256.1C187.054 256.98 187.249 257.68 187.639 258.2C188.039 258.71 188.579 258.965 189.259 258.965C189.939 258.965 190.474 258.71 190.864 258.2C191.264 257.68 191.464 256.98 191.464 256.1ZM197.927 248.36C198.337 248.36 198.687 248.39 198.977 248.45C199.277 248.51 199.487 248.565 199.607 248.615L199.352 249.815C199.232 249.755 199.062 249.7 198.842 249.65C198.622 249.59 198.352 249.56 198.032 249.56C197.382 249.56 196.927 249.74 196.667 250.1C196.407 250.45 196.277 250.925 196.277 251.525V252.2H199.277V253.37H196.277V260H194.882V251.495C194.882 250.495 195.127 249.725 195.617 249.185C196.107 248.635 196.877 248.36 197.927 248.36ZM209.179 253.85C209.009 253.71 208.764 253.575 208.444 253.445C208.124 253.315 207.774 253.25 207.394 253.25C206.994 253.25 206.649 253.325 206.359 253.475C206.079 253.615 205.849 253.815 205.669 254.075C205.489 254.325 205.359 254.625 205.279 254.975C205.199 255.325 205.159 255.7 205.159 256.1C205.159 257.01 205.384 257.715 205.834 258.215C206.284 258.705 206.884 258.95 207.634 258.95C208.014 258.95 208.329 258.935 208.579 258.905C208.839 258.865 209.039 258.825 209.179 258.785V253.85ZM209.179 248.6L210.574 248.36V259.775C210.254 259.865 209.844 259.955 209.344 260.045C208.844 260.135 208.269 260.18 207.619 260.18C207.019 260.18 206.479 260.085 205.999 259.895C205.519 259.705 205.109 259.435 204.769 259.085C204.429 258.735 204.164 258.31 203.974 257.81C203.794 257.3 203.704 256.73 203.704 256.1C203.704 255.5 203.779 254.95 203.929 254.45C204.089 253.95 204.319 253.52 204.619 253.16C204.919 252.8 205.284 252.52 205.714 252.32C206.154 252.12 206.654 252.02 207.214 252.02C207.664 252.02 208.059 252.08 208.399 252.2C208.749 252.32 209.009 252.435 209.179 252.545V248.6ZM214.367 260H212.972V252.2H214.367V260ZM213.662 250.79C213.412 250.79 213.197 250.71 213.017 250.55C212.847 250.38 212.762 250.155 212.762 249.875C212.762 249.595 212.847 249.375 213.017 249.215C213.197 249.045 213.412 248.96 213.662 248.96C213.912 248.96 214.122 249.045 214.292 249.215C214.472 249.375 214.562 249.595 214.562 249.875C214.562 250.155 214.472 250.38 214.292 250.55C214.122 250.71 213.912 250.79 213.662 250.79ZM218.581 258.995C219.151 258.995 219.571 258.92 219.841 258.77C220.121 258.62 220.261 258.38 220.261 258.05C220.261 257.71 220.126 257.44 219.856 257.24C219.586 257.04 219.141 256.815 218.521 256.565C218.221 256.445 217.931 256.325 217.651 256.205C217.381 256.075 217.146 255.925 216.946 255.755C216.746 255.585 216.586 255.38 216.466 255.14C216.346 254.9 216.286 254.605 216.286 254.255C216.286 253.565 216.541 253.02 217.051 252.62C217.561 252.21 218.256 252.005 219.136 252.005C219.356 252.005 219.576 252.02 219.796 252.05C220.016 252.07 220.221 252.1 220.411 252.14C220.601 252.17 220.766 252.205 220.906 252.245C221.056 252.285 221.171 252.32 221.251 252.35L220.996 253.55C220.846 253.47 220.611 253.39 220.291 253.31C219.971 253.22 219.586 253.175 219.136 253.175C218.746 253.175 218.406 253.255 218.116 253.415C217.826 253.565 217.681 253.805 217.681 254.135C217.681 254.305 217.711 254.455 217.771 254.585C217.841 254.715 217.941 254.835 218.071 254.945C218.211 255.045 218.381 255.14 218.581 255.23C218.781 255.32 219.021 255.415 219.301 255.515C219.671 255.655 220.001 255.795 220.291 255.935C220.581 256.065 220.826 256.22 221.026 256.4C221.236 256.58 221.396 256.8 221.506 257.06C221.616 257.31 221.671 257.62 221.671 257.99C221.671 258.71 221.401 259.255 220.861 259.625C220.331 259.995 219.571 260.18 218.581 260.18C217.891 260.18 217.351 260.12 216.961 260C216.571 259.89 216.306 259.805 216.166 259.745L216.421 258.545C216.581 258.605 216.836 258.695 217.186 258.815C217.536 258.935 218.001 258.995 218.581 258.995ZM226.341 252.035C226.461 252.035 226.596 252.045 226.746 252.065C226.906 252.075 227.061 252.095 227.211 252.125C227.361 252.145 227.496 252.17 227.616 252.2C227.746 252.22 227.841 252.24 227.901 252.26L227.661 253.475C227.551 253.435 227.366 253.39 227.106 253.34C226.856 253.28 226.531 253.25 226.131 253.25C225.871 253.25 225.611 253.28 225.351 253.34C225.101 253.39 224.936 253.425 224.856 253.445V260H223.461V252.53C223.791 252.41 224.201 252.3 224.691 252.2C225.181 252.09 225.731 252.035 226.341 252.035ZM235.457 259.775C235.137 259.855 234.712 259.94 234.182 260.03C233.662 260.12 233.057 260.165 232.367 260.165C231.767 260.165 231.262 260.08 230.852 259.91C230.442 259.73 230.112 259.48 229.862 259.16C229.612 258.84 229.432 258.465 229.322 258.035C229.212 257.595 229.157 257.11 229.157 256.58V252.2H230.552V256.28C230.552 257.23 230.702 257.91 231.002 258.32C231.302 258.73 231.807 258.935 232.517 258.935C232.667 258.935 232.822 258.93 232.982 258.92C233.142 258.91 233.292 258.9 233.432 258.89C233.572 258.87 233.697 258.855 233.807 258.845C233.927 258.825 234.012 258.805 234.062 258.785V252.2H235.457V259.775ZM243.275 256.115C243.275 255.205 243.05 254.505 242.6 254.015C242.15 253.525 241.55 253.28 240.8 253.28C240.38 253.28 240.05 253.295 239.81 253.325C239.58 253.355 239.395 253.39 239.255 253.43V258.35C239.425 258.49 239.67 258.625 239.99 258.755C240.31 258.885 240.66 258.95 241.04 258.95C241.44 258.95 241.78 258.88 242.06 258.74C242.35 258.59 242.585 258.39 242.765 258.14C242.945 257.88 243.075 257.58 243.155 257.24C243.235 256.89 243.275 256.515 243.275 256.115ZM244.73 256.115C244.73 256.705 244.65 257.25 244.49 257.75C244.34 258.25 244.115 258.68 243.815 259.04C243.515 259.4 243.145 259.68 242.705 259.88C242.275 260.08 241.78 260.18 241.22 260.18C240.77 260.18 240.37 260.12 240.02 260C239.68 259.88 239.425 259.765 239.255 259.655V262.775H237.86V252.44C238.19 252.36 238.6 252.275 239.09 252.185C239.59 252.085 240.165 252.035 240.815 252.035C241.415 252.035 241.955 252.13 242.435 252.32C242.915 252.51 243.325 252.78 243.665 253.13C244.005 253.48 244.265 253.91 244.445 254.42C244.635 254.92 244.73 255.485 244.73 256.115ZM247.998 252.2H250.953V253.37H247.998V256.97C247.998 257.36 248.028 257.685 248.088 257.945C248.148 258.195 248.238 258.395 248.358 258.545C248.478 258.685 248.628 258.785 248.808 258.845C248.988 258.905 249.198 258.935 249.438 258.935C249.858 258.935 250.193 258.89 250.443 258.8C250.703 258.7 250.883 258.63 250.983 258.59L251.253 259.745C251.113 259.815 250.868 259.9 250.518 260C250.168 260.11 249.768 260.165 249.318 260.165C248.788 260.165 248.348 260.1 247.998 259.97C247.658 259.83 247.383 259.625 247.173 259.355C246.963 259.085 246.813 258.755 246.723 258.365C246.643 257.965 246.603 257.505 246.603 256.985V250.025L247.998 249.785V252.2ZM254.123 260H252.728V252.2H254.123V260ZM253.418 250.79C253.168 250.79 252.953 250.71 252.773 250.55C252.603 250.38 252.518 250.155 252.518 249.875C252.518 249.595 252.603 249.375 252.773 249.215C252.953 249.045 253.168 248.96 253.418 248.96C253.668 248.96 253.878 249.045 254.048 249.215C254.228 249.375 254.318 249.595 254.318 249.875C254.318 250.155 254.228 250.38 254.048 250.55C253.878 250.71 253.668 250.79 253.418 250.79ZM262.612 252.2C262.222 253.66 261.762 255.06 261.232 256.4C260.712 257.74 260.207 258.94 259.717 260H258.457C257.967 258.94 257.457 257.74 256.927 256.4C256.407 255.06 255.952 253.66 255.562 252.2H257.062C257.182 252.69 257.322 253.215 257.482 253.775C257.652 254.325 257.827 254.875 258.007 255.425C258.197 255.965 258.387 256.49 258.577 257C258.767 257.51 258.947 257.965 259.117 258.365C259.287 257.965 259.467 257.51 259.657 257C259.847 256.49 260.032 255.965 260.212 255.425C260.402 254.875 260.577 254.325 260.737 253.775C260.907 253.215 261.052 252.69 261.172 252.2H262.612ZM263.411 256.115C263.411 255.425 263.511 254.825 263.711 254.315C263.911 253.795 264.176 253.365 264.506 253.025C264.836 252.685 265.216 252.43 265.646 252.26C266.076 252.09 266.516 252.005 266.966 252.005C268.016 252.005 268.821 252.335 269.381 252.995C269.941 253.645 270.221 254.64 270.221 255.98C270.221 256.04 270.221 256.12 270.221 256.22C270.221 256.31 270.216 256.395 270.206 256.475H264.866C264.926 257.285 265.161 257.9 265.571 258.32C265.981 258.74 266.621 258.95 267.491 258.95C267.981 258.95 268.391 258.91 268.721 258.83C269.061 258.74 269.316 258.655 269.486 258.575L269.681 259.745C269.511 259.835 269.211 259.93 268.781 260.03C268.361 260.13 267.881 260.18 267.341 260.18C266.661 260.18 266.071 260.08 265.571 259.88C265.081 259.67 264.676 259.385 264.356 259.025C264.036 258.665 263.796 258.24 263.636 257.75C263.486 257.25 263.411 256.705 263.411 256.115ZM268.766 255.35C268.776 254.72 268.616 254.205 268.286 253.805C267.966 253.395 267.521 253.19 266.951 253.19C266.631 253.19 266.346 253.255 266.096 253.385C265.856 253.505 265.651 253.665 265.481 253.865C265.311 254.065 265.176 254.295 265.076 254.555C264.986 254.815 264.926 255.08 264.896 255.35H268.766ZM152.595 287H151.2V279.2H152.595V287ZM151.89 277.79C151.64 277.79 151.425 277.71 151.245 277.55C151.075 277.38 150.99 277.155 150.99 276.875C150.99 276.595 151.075 276.375 151.245 276.215C151.425 276.045 151.64 275.96 151.89 275.96C152.14 275.96 152.35 276.045 152.52 276.215C152.7 276.375 152.79 276.595 152.79 276.875C152.79 277.155 152.7 277.38 152.52 277.55C152.35 277.71 152.14 277.79 151.89 277.79ZM154.994 279.425C155.314 279.345 155.739 279.26 156.269 279.17C156.799 279.08 157.409 279.035 158.099 279.035C158.719 279.035 159.234 279.125 159.644 279.305C160.054 279.475 160.379 279.72 160.619 280.04C160.869 280.35 161.044 280.725 161.144 281.165C161.244 281.605 161.294 282.09 161.294 282.62V287H159.899V282.92C159.899 282.44 159.864 282.03 159.794 281.69C159.734 281.35 159.629 281.075 159.479 280.865C159.329 280.655 159.129 280.505 158.879 280.415C158.629 280.315 158.319 280.265 157.949 280.265C157.799 280.265 157.644 280.27 157.484 280.28C157.324 280.29 157.169 280.305 157.019 280.325C156.879 280.335 156.749 280.35 156.629 280.37C156.519 280.39 156.439 280.405 156.389 280.415V287H154.994V279.425ZM163.607 279.425C163.927 279.345 164.352 279.26 164.882 279.17C165.412 279.08 166.022 279.035 166.712 279.035C167.332 279.035 167.847 279.125 168.257 279.305C168.667 279.475 168.992 279.72 169.232 280.04C169.482 280.35 169.657 280.725 169.757 281.165C169.857 281.605 169.907 282.09 169.907 282.62V287H168.512V282.92C168.512 282.44 168.477 282.03 168.407 281.69C168.347 281.35 168.242 281.075 168.092 280.865C167.942 280.655 167.742 280.505 167.492 280.415C167.242 280.315 166.932 280.265 166.562 280.265C166.412 280.265 166.257 280.27 166.097 280.28C165.937 280.29 165.782 280.305 165.632 280.325C165.492 280.335 165.362 280.35 165.242 280.37C165.132 280.39 165.052 280.405 165.002 280.415V287H163.607V279.425ZM179.106 283.1C179.106 283.72 179.016 284.28 178.836 284.78C178.656 285.28 178.401 285.71 178.071 286.07C177.751 286.43 177.366 286.71 176.916 286.91C176.466 287.1 175.976 287.195 175.446 287.195C174.916 287.195 174.426 287.1 173.976 286.91C173.526 286.71 173.136 286.43 172.806 286.07C172.486 285.71 172.236 285.28 172.056 284.78C171.876 284.28 171.786 283.72 171.786 283.1C171.786 282.49 171.876 281.935 172.056 281.435C172.236 280.925 172.486 280.49 172.806 280.13C173.136 279.77 173.526 279.495 173.976 279.305C174.426 279.105 174.916 279.005 175.446 279.005C175.976 279.005 176.466 279.105 176.916 279.305C177.366 279.495 177.751 279.77 178.071 280.13C178.401 280.49 178.656 280.925 178.836 281.435C179.016 281.935 179.106 282.49 179.106 283.1ZM177.651 283.1C177.651 282.22 177.451 281.525 177.051 281.015C176.661 280.495 176.126 280.235 175.446 280.235C174.766 280.235 174.226 280.495 173.826 281.015C173.436 281.525 173.241 282.22 173.241 283.1C173.241 283.98 173.436 284.68 173.826 285.2C174.226 285.71 174.766 285.965 175.446 285.965C176.126 285.965 176.661 285.71 177.051 285.2C177.451 284.68 177.651 283.98 177.651 283.1ZM186.953 279.2C186.563 280.66 186.103 282.06 185.573 283.4C185.053 284.74 184.548 285.94 184.058 287H182.798C182.308 285.94 181.798 284.74 181.268 283.4C180.748 282.06 180.293 280.66 179.903 279.2H181.403C181.523 279.69 181.663 280.215 181.823 280.775C181.993 281.325 182.168 281.875 182.348 282.425C182.538 282.965 182.728 283.49 182.918 284C183.108 284.51 183.288 284.965 183.458 285.365C183.628 284.965 183.808 284.51 183.998 284C184.188 283.49 184.373 282.965 184.553 282.425C184.743 281.875 184.918 281.325 185.078 280.775C185.248 280.215 185.393 279.69 185.513 279.2H186.953ZM191.032 285.995C191.362 285.995 191.652 285.99 191.902 285.98C192.162 285.96 192.377 285.93 192.547 285.89V283.565C192.447 283.515 192.282 283.475 192.052 283.445C191.832 283.405 191.562 283.385 191.242 283.385C191.032 283.385 190.807 283.4 190.567 283.43C190.337 283.46 190.122 283.525 189.922 283.625C189.732 283.715 189.572 283.845 189.442 284.015C189.312 284.175 189.247 284.39 189.247 284.66C189.247 285.16 189.407 285.51 189.727 285.71C190.047 285.9 190.482 285.995 191.032 285.995ZM190.912 279.005C191.472 279.005 191.942 279.08 192.322 279.23C192.712 279.37 193.022 279.575 193.252 279.845C193.492 280.105 193.662 280.42 193.762 280.79C193.862 281.15 193.912 281.55 193.912 281.99V286.865C193.792 286.885 193.622 286.915 193.402 286.955C193.192 286.985 192.952 287.015 192.682 287.045C192.412 287.075 192.117 287.1 191.797 287.12C191.487 287.15 191.177 287.165 190.867 287.165C190.427 287.165 190.022 287.12 189.652 287.03C189.282 286.94 188.962 286.8 188.692 286.61C188.422 286.41 188.212 286.15 188.062 285.83C187.912 285.51 187.837 285.125 187.837 284.675C187.837 284.245 187.922 283.875 188.092 283.565C188.272 283.255 188.512 283.005 188.812 282.815C189.112 282.625 189.462 282.485 189.862 282.395C190.262 282.305 190.682 282.26 191.122 282.26C191.262 282.26 191.407 282.27 191.557 282.29C191.707 282.3 191.847 282.32 191.977 282.35C192.117 282.37 192.237 282.39 192.337 282.41C192.437 282.43 192.507 282.445 192.547 282.455V282.065C192.547 281.835 192.522 281.61 192.472 281.39C192.422 281.16 192.332 280.96 192.202 280.79C192.072 280.61 191.892 280.47 191.662 280.37C191.442 280.26 191.152 280.205 190.792 280.205C190.332 280.205 189.927 280.24 189.577 280.31C189.237 280.37 188.982 280.435 188.812 280.505L188.647 279.35C188.827 279.27 189.127 279.195 189.547 279.125C189.967 279.045 190.422 279.005 190.912 279.005ZM197.534 279.2H200.489V280.37H197.534V283.97C197.534 284.36 197.564 284.685 197.624 284.945C197.684 285.195 197.774 285.395 197.894 285.545C198.014 285.685 198.164 285.785 198.344 285.845C198.524 285.905 198.734 285.935 198.974 285.935C199.394 285.935 199.729 285.89 199.979 285.8C200.239 285.7 200.419 285.63 200.519 285.59L200.789 286.745C200.649 286.815 200.404 286.9 200.054 287C199.704 287.11 199.304 287.165 198.854 287.165C198.324 287.165 197.884 287.1 197.534 286.97C197.194 286.83 196.919 286.625 196.709 286.355C196.499 286.085 196.349 285.755 196.259 285.365C196.179 284.965 196.139 284.505 196.139 283.985V277.025L197.534 276.785V279.2ZM203.659 287H202.264V279.2H203.659V287ZM202.954 277.79C202.704 277.79 202.489 277.71 202.309 277.55C202.139 277.38 202.054 277.155 202.054 276.875C202.054 276.595 202.139 276.375 202.309 276.215C202.489 276.045 202.704 275.96 202.954 275.96C203.204 275.96 203.414 276.045 203.584 276.215C203.764 276.375 203.854 276.595 203.854 276.875C203.854 277.155 203.764 277.38 203.584 277.55C203.414 277.71 203.204 277.79 202.954 277.79ZM212.943 283.1C212.943 283.72 212.853 284.28 212.673 284.78C212.493 285.28 212.238 285.71 211.908 286.07C211.588 286.43 211.203 286.71 210.753 286.91C210.303 287.1 209.813 287.195 209.283 287.195C208.753 287.195 208.263 287.1 207.813 286.91C207.363 286.71 206.973 286.43 206.643 286.07C206.323 285.71 206.073 285.28 205.893 284.78C205.713 284.28 205.623 283.72 205.623 283.1C205.623 282.49 205.713 281.935 205.893 281.435C206.073 280.925 206.323 280.49 206.643 280.13C206.973 279.77 207.363 279.495 207.813 279.305C208.263 279.105 208.753 279.005 209.283 279.005C209.813 279.005 210.303 279.105 210.753 279.305C211.203 279.495 211.588 279.77 211.908 280.13C212.238 280.49 212.493 280.925 212.673 281.435C212.853 281.935 212.943 282.49 212.943 283.1ZM211.488 283.1C211.488 282.22 211.288 281.525 210.888 281.015C210.498 280.495 209.963 280.235 209.283 280.235C208.603 280.235 208.063 280.495 207.663 281.015C207.273 281.525 207.078 282.22 207.078 283.1C207.078 283.98 207.273 284.68 207.663 285.2C208.063 285.71 208.603 285.965 209.283 285.965C209.963 285.965 210.498 285.71 210.888 285.2C211.288 284.68 211.488 283.98 211.488 283.1ZM214.906 279.425C215.226 279.345 215.651 279.26 216.181 279.17C216.711 279.08 217.321 279.035 218.011 279.035C218.631 279.035 219.146 279.125 219.556 279.305C219.966 279.475 220.291 279.72 220.531 280.04C220.781 280.35 220.956 280.725 221.056 281.165C221.156 281.605 221.206 282.09 221.206 282.62V287H219.811V282.92C219.811 282.44 219.776 282.03 219.706 281.69C219.646 281.35 219.541 281.075 219.391 280.865C219.241 280.655 219.041 280.505 218.791 280.415C218.541 280.315 218.231 280.265 217.861 280.265C217.711 280.265 217.556 280.27 217.396 280.28C217.236 280.29 217.081 280.305 216.931 280.325C216.791 280.335 216.661 280.35 216.541 280.37C216.431 280.39 216.351 280.405 216.301 280.415V287H214.906V279.425ZM233.366 287C233.086 286.28 232.786 285.46 232.466 284.54C232.156 283.61 231.871 282.645 231.611 281.645C231.351 282.645 231.066 283.61 230.756 284.54C230.446 285.46 230.151 286.28 229.871 287H228.656C228.196 285.97 227.746 284.795 227.306 283.475C226.866 282.155 226.451 280.73 226.061 279.2H227.561C227.661 279.67 227.781 280.18 227.921 280.73C228.061 281.28 228.206 281.83 228.356 282.38C228.516 282.93 228.681 283.46 228.851 283.97C229.021 284.48 229.181 284.925 229.331 285.305C229.501 284.835 229.666 284.34 229.826 283.82C229.996 283.29 230.156 282.76 230.306 282.23C230.456 281.69 230.596 281.165 230.726 280.655C230.866 280.135 230.986 279.65 231.086 279.2H232.241C232.331 279.65 232.441 280.135 232.571 280.655C232.701 281.165 232.841 281.69 232.991 282.23C233.141 282.76 233.296 283.29 233.456 283.82C233.626 284.34 233.796 284.835 233.966 285.305C234.116 284.925 234.271 284.48 234.431 283.97C234.601 283.46 234.766 282.93 234.926 282.38C235.086 281.83 235.236 281.28 235.376 280.73C235.516 280.18 235.636 279.67 235.736 279.2H237.176C236.786 280.73 236.371 282.155 235.931 283.475C235.491 284.795 235.041 285.97 234.581 287H233.366ZM245.36 283.1C245.36 283.72 245.27 284.28 245.09 284.78C244.91 285.28 244.655 285.71 244.325 286.07C244.005 286.43 243.62 286.71 243.17 286.91C242.72 287.1 242.23 287.195 241.7 287.195C241.17 287.195 240.68 287.1 240.23 286.91C239.78 286.71 239.39 286.43 239.06 286.07C238.74 285.71 238.49 285.28 238.31 284.78C238.13 284.28 238.04 283.72 238.04 283.1C238.04 282.49 238.13 281.935 238.31 281.435C238.49 280.925 238.74 280.49 239.06 280.13C239.39 279.77 239.78 279.495 240.23 279.305C240.68 279.105 241.17 279.005 241.7 279.005C242.23 279.005 242.72 279.105 243.17 279.305C243.62 279.495 244.005 279.77 244.325 280.13C244.655 280.49 244.91 280.925 245.09 281.435C245.27 281.935 245.36 282.49 245.36 283.1ZM243.905 283.1C243.905 282.22 243.705 281.525 243.305 281.015C242.915 280.495 242.38 280.235 241.7 280.235C241.02 280.235 240.48 280.495 240.08 281.015C239.69 281.525 239.495 282.22 239.495 283.1C239.495 283.98 239.69 284.68 240.08 285.2C240.48 285.71 241.02 285.965 241.7 285.965C242.38 285.965 242.915 285.71 243.305 285.2C243.705 284.68 243.905 283.98 243.905 283.1ZM250.203 279.035C250.323 279.035 250.458 279.045 250.608 279.065C250.768 279.075 250.923 279.095 251.073 279.125C251.223 279.145 251.358 279.17 251.478 279.2C251.608 279.22 251.703 279.24 251.763 279.26L251.523 280.475C251.413 280.435 251.228 280.39 250.968 280.34C250.718 280.28 250.393 280.25 249.993 280.25C249.733 280.25 249.473 280.28 249.213 280.34C248.963 280.39 248.798 280.425 248.718 280.445V287H247.323V279.53C247.653 279.41 248.063 279.3 248.553 279.2C249.043 279.09 249.593 279.035 250.203 279.035ZM255.929 282.71C256.229 282.94 256.544 283.225 256.874 283.565C257.214 283.905 257.544 284.275 257.864 284.675C258.194 285.065 258.504 285.465 258.794 285.875C259.084 286.275 259.329 286.65 259.529 287H257.894C257.684 286.65 257.439 286.295 257.159 285.935C256.889 285.565 256.604 285.215 256.304 284.885C256.004 284.545 255.699 284.235 255.389 283.955C255.079 283.675 254.784 283.44 254.504 283.25V287H253.109V275.6L254.504 275.36V282.47C254.744 282.23 255.009 281.965 255.299 281.675C255.589 281.385 255.874 281.09 256.154 280.79C256.434 280.49 256.699 280.205 256.949 279.935C257.199 279.655 257.414 279.41 257.594 279.2H259.229C258.999 279.45 258.749 279.725 258.479 280.025C258.209 280.325 257.929 280.63 257.639 280.94C257.349 281.24 257.054 281.545 256.754 281.855C256.464 282.155 256.189 282.44 255.929 282.71ZM262.761 285.995C263.331 285.995 263.751 285.92 264.021 285.77C264.301 285.62 264.441 285.38 264.441 285.05C264.441 284.71 264.306 284.44 264.036 284.24C263.766 284.04 263.321 283.815 262.701 283.565C262.401 283.445 262.111 283.325 261.831 283.205C261.561 283.075 261.326 282.925 261.126 282.755C260.926 282.585 260.766 282.38 260.646 282.14C260.526 281.9 260.466 281.605 260.466 281.255C260.466 280.565 260.721 280.02 261.231 279.62C261.741 279.21 262.436 279.005 263.316 279.005C263.536 279.005 263.756 279.02 263.976 279.05C264.196 279.07 264.401 279.1 264.591 279.14C264.781 279.17 264.946 279.205 265.086 279.245C265.236 279.285 265.351 279.32 265.431 279.35L265.176 280.55C265.026 280.47 264.791 280.39 264.471 280.31C264.151 280.22 263.766 280.175 263.316 280.175C262.926 280.175 262.586 280.255 262.296 280.415C262.006 280.565 261.861 280.805 261.861 281.135C261.861 281.305 261.891 281.455 261.951 281.585C262.021 281.715 262.121 281.835 262.251 281.945C262.391 282.045 262.561 282.14 262.761 282.23C262.961 282.32 263.201 282.415 263.481 282.515C263.851 282.655 264.181 282.795 264.471 282.935C264.761 283.065 265.006 283.22 265.206 283.4C265.416 283.58 265.576 283.8 265.686 284.06C265.796 284.31 265.851 284.62 265.851 284.99C265.851 285.71 265.581 286.255 265.041 286.625C264.511 286.995 263.751 287.18 262.761 287.18C262.071 287.18 261.531 287.12 261.141 287C260.751 286.89 260.486 286.805 260.346 286.745L260.601 285.545C260.761 285.605 261.016 285.695 261.366 285.815C261.716 285.935 262.181 285.995 262.761 285.995ZM273.055 283.115C273.055 282.205 272.83 281.505 272.38 281.015C271.93 280.525 271.33 280.28 270.58 280.28C270.16 280.28 269.83 280.295 269.59 280.325C269.36 280.355 269.175 280.39 269.035 280.43V285.35C269.205 285.49 269.45 285.625 269.77 285.755C270.09 285.885 270.44 285.95 270.82 285.95C271.22 285.95 271.56 285.88 271.84 285.74C272.13 285.59 272.365 285.39 272.545 285.14C272.725 284.88 272.855 284.58 272.935 284.24C273.015 283.89 273.055 283.515 273.055 283.115ZM274.51 283.115C274.51 283.705 274.43 284.25 274.27 284.75C274.12 285.25 273.895 285.68 273.595 286.04C273.295 286.4 272.925 286.68 272.485 286.88C272.055 287.08 271.56 287.18 271 287.18C270.55 287.18 270.15 287.12 269.8 287C269.46 286.88 269.205 286.765 269.035 286.655V289.775H267.64V279.44C267.97 279.36 268.38 279.275 268.87 279.185C269.37 279.085 269.945 279.035 270.595 279.035C271.195 279.035 271.735 279.13 272.215 279.32C272.695 279.51 273.105 279.78 273.445 280.13C273.785 280.48 274.045 280.91 274.225 281.42C274.415 281.92 274.51 282.485 274.51 283.115ZM279.113 285.995C279.443 285.995 279.733 285.99 279.983 285.98C280.243 285.96 280.458 285.93 280.628 285.89V283.565C280.528 283.515 280.363 283.475 280.133 283.445C279.913 283.405 279.643 283.385 279.323 283.385C279.113 283.385 278.888 283.4 278.648 283.43C278.418 283.46 278.203 283.525 278.003 283.625C277.813 283.715 277.653 283.845 277.523 284.015C277.393 284.175 277.328 284.39 277.328 284.66C277.328 285.16 277.488 285.51 277.808 285.71C278.128 285.9 278.563 285.995 279.113 285.995ZM278.993 279.005C279.553 279.005 280.023 279.08 280.403 279.23C280.793 279.37 281.103 279.575 281.333 279.845C281.573 280.105 281.743 280.42 281.843 280.79C281.943 281.15 281.993 281.55 281.993 281.99V286.865C281.873 286.885 281.703 286.915 281.483 286.955C281.273 286.985 281.033 287.015 280.763 287.045C280.493 287.075 280.198 287.1 279.878 287.12C279.568 287.15 279.258 287.165 278.948 287.165C278.508 287.165 278.103 287.12 277.733 287.03C277.363 286.94 277.043 286.8 276.773 286.61C276.503 286.41 276.293 286.15 276.143 285.83C275.993 285.51 275.918 285.125 275.918 284.675C275.918 284.245 276.003 283.875 276.173 283.565C276.353 283.255 276.593 283.005 276.893 282.815C277.193 282.625 277.543 282.485 277.943 282.395C278.343 282.305 278.763 282.26 279.203 282.26C279.343 282.26 279.488 282.27 279.638 282.29C279.788 282.3 279.928 282.32 280.058 282.35C280.198 282.37 280.318 282.39 280.418 282.41C280.518 282.43 280.588 282.445 280.628 282.455V282.065C280.628 281.835 280.603 281.61 280.553 281.39C280.503 281.16 280.413 280.96 280.283 280.79C280.153 280.61 279.973 280.47 279.743 280.37C279.523 280.26 279.233 280.205 278.873 280.205C278.413 280.205 278.008 280.24 277.658 280.31C277.318 280.37 277.063 280.435 276.893 280.505L276.728 279.35C276.908 279.27 277.208 279.195 277.628 279.125C278.048 279.045 278.503 279.005 278.993 279.005ZM287.7 287.18C287.07 287.18 286.515 287.08 286.035 286.88C285.565 286.68 285.165 286.4 284.835 286.04C284.515 285.68 284.275 285.255 284.115 284.765C283.955 284.265 283.875 283.715 283.875 283.115C283.875 282.515 283.96 281.965 284.13 281.465C284.31 280.965 284.56 280.535 284.88 280.175C285.2 279.805 285.59 279.52 286.05 279.32C286.52 279.11 287.04 279.005 287.61 279.005C287.96 279.005 288.31 279.035 288.66 279.095C289.01 279.155 289.345 279.25 289.665 279.38L289.35 280.565C289.14 280.465 288.895 280.385 288.615 280.325C288.345 280.265 288.055 280.235 287.745 280.235C286.965 280.235 286.365 280.48 285.945 280.97C285.535 281.46 285.33 282.175 285.33 283.115C285.33 283.535 285.375 283.92 285.465 284.27C285.565 284.62 285.715 284.92 285.915 285.17C286.125 285.42 286.39 285.615 286.71 285.755C287.03 285.885 287.42 285.95 287.88 285.95C288.25 285.95 288.585 285.915 288.885 285.845C289.185 285.775 289.42 285.7 289.59 285.62L289.785 286.79C289.705 286.84 289.59 286.89 289.44 286.94C289.29 286.98 289.12 287.015 288.93 287.045C288.74 287.085 288.535 287.115 288.315 287.135C288.105 287.165 287.9 287.18 287.7 287.18ZM290.848 283.115C290.848 282.425 290.948 281.825 291.148 281.315C291.348 280.795 291.613 280.365 291.943 280.025C292.273 279.685 292.653 279.43 293.083 279.26C293.513 279.09 293.953 279.005 294.403 279.005C295.453 279.005 296.258 279.335 296.818 279.995C297.378 280.645 297.658 281.64 297.658 282.98C297.658 283.04 297.658 283.12 297.658 283.22C297.658 283.31 297.653 283.395 297.643 283.475H292.303C292.363 284.285 292.598 284.9 293.008 285.32C293.418 285.74 294.058 285.95 294.928 285.95C295.418 285.95 295.828 285.91 296.158 285.83C296.498 285.74 296.753 285.655 296.923 285.575L297.118 286.745C296.948 286.835 296.648 286.93 296.218 287.03C295.798 287.13 295.318 287.18 294.778 287.18C294.098 287.18 293.508 287.08 293.008 286.88C292.518 286.67 292.113 286.385 291.793 286.025C291.473 285.665 291.233 285.24 291.073 284.75C290.923 284.25 290.848 283.705 290.848 283.115ZM296.203 282.35C296.213 281.72 296.053 281.205 295.723 280.805C295.403 280.395 294.958 280.19 294.388 280.19C294.068 280.19 293.783 280.255 293.533 280.385C293.293 280.505 293.088 280.665 292.918 280.865C292.748 281.065 292.613 281.295 292.513 281.555C292.423 281.815 292.363 282.08 292.333 282.35H296.203Z" fill="#747582"/>
<path opacity="0.4" d="M186.667 133.017V145.267C186.183 145.033 185.65 144.867 185.05 144.767L184.533 144.683L184.1 143.783C183.183 141.917 181.683 140.833 180 140.833C178.317 140.833 176.817 141.917 175.9 143.783L175.45 144.683L174.95 144.767C172.967 145.1 171.533 146.2 171.017 147.767C170.517 149.35 171.033 151.083 172.45 152.517L172.967 153.033L172.917 153.233C172.583 154.717 172.717 155.85 173.033 156.667H163.017C156.95 156.667 153.333 153.05 153.333 146.983V133.017C153.333 126.95 156.95 123.333 163.017 123.333H176.983C183.05 123.333 186.667 126.95 186.667 133.017Z" fill="#FB3F6C"/>
<path d="M181.867 144.9L182.4 145.983C182.667 146.517 183.35 147.017 183.917 147.117L184.633 147.233C186.817 147.6 187.317 149.2 185.767 150.767L185.1 151.433C184.65 151.883 184.417 152.75 184.55 153.383L184.633 153.783C185.233 156.417 183.833 157.433 181.55 156.05L181.067 155.75C180.483 155.4 179.517 155.4 178.933 155.75L178.45 156.05C176.15 157.433 174.767 156.417 175.367 153.783L175.45 153.383C175.583 152.767 175.35 151.883 174.9 151.433L174.233 150.767C172.683 149.183 173.183 147.6 175.367 147.233L176.083 147.117C176.667 147.017 177.333 146.517 177.6 145.983L178.133 144.9C179.167 142.817 180.833 142.817 181.867 144.9Z" fill="#FB3F6C"/>
<path fill-rule="evenodd" clip-rule="evenodd" d="M176.882 133.195C177.428 133.618 177.527 134.404 177.105 134.949L173.247 139.925C172.256 141.179 170.428 141.408 169.152 140.423L169.144 140.416L166.099 138.02C165.911 137.877 165.649 137.913 165.506 138.097C165.506 138.097 165.506 138.097 165.506 138.097L161.54 143.246C161.119 143.793 160.334 143.895 159.787 143.474C159.24 143.052 159.138 142.268 159.56 141.721L163.527 136.569C164.517 135.288 166.353 135.057 167.631 136.044L167.64 136.051L170.684 138.447C170.874 138.591 171.142 138.554 171.284 138.378L175.129 133.418C175.552 132.872 176.337 132.773 176.882 133.195Z" fill="#FB3F6C"/>
<defs>
<filter id="filter0_dd_1_1392" x="0" y="0" width="471" height="527" filterUnits="userSpaceOnUse" color-interpolation-filters="sRGB">
<feFlood flood-opacity="0" result="BackgroundImageFix"/>
<feColorMatrix in="SourceAlpha" type="matrix" values="0 0 0 0 0 0 0 0 0 0 0 0 0 0 0 0 0 0 127 0" result="hardAlpha"/>
<feOffset dx="-40" dy="100"/>
<feGaussianBlur stdDeviation="35"/>
<feColorMatrix type="matrix" values="0 0 0 0 0.47451 0 0 0 0 0.47451 0 0 0 0 0.47451 0 0 0 0.05 0"/>
<feBlend mode="normal" in2="BackgroundImageFix" result="effect1_dropShadow_1_1392"/>
<feColorMatrix in="SourceAlpha" type="matrix" values="0 0 0 0 0 0 0 0 0 0 0 0 0 0 0 0 0 0 127 0" result="hardAlpha"/>
<feOffset dx="40"/>
<feGaussianBlur stdDeviation="35"/>
<feColorMatrix type="matrix" values="0 0 0 0 0.475 0 0 0 0 0.475 0 0 0 0 0.475 0 0 0 0.05 0"/>
<feBlend mode="normal" in2="effect1_dropShadow_1_1392" result="effect2_dropShadow_1_1392"/>
<feBlend mode="normal" in="SourceGraphic" in2="effect2_dropShadow_1_1392" result="shape"/>
</filter>
</defs>
</svg>
