<svg width="200" height="80" viewBox="0 0 200 80" fill="none" xmlns="http://www.w3.org/2000/svg">
<g clip-path="url(#clip0_1_1419)">
<path d="M180.159 51.3537C180.822 51.3537 181.213 51.2454 181.459 51.0268C181.649 50.8272 181.745 50.3637 181.745 49.6092V34.149C181.745 33.3579 181.659 32.833 181.494 32.5712C181.276 32.2393 180.813 32.0733 180.112 32.0733H179.577V30.9577L185.796 30.4759V49.6172C185.796 50.5999 186.058 51.1541 186.587 51.2725C186.795 51.3266 187.105 51.3537 187.505 51.3537V52.5549H180.159V51.3537ZM170.402 45.7891C170.974 45.3029 172.002 44.9169 173.485 44.6244V46.8258C173.485 48.0717 173.293 49.017 172.921 49.6626C172.44 50.5268 171.812 50.9537 171.03 50.9537C170.566 50.9537 170.175 50.7549 169.857 50.3454C169.538 49.9353 169.376 49.3445 169.376 48.563C169.375 47.2894 169.721 46.3711 170.402 45.7891ZM167.761 39.9043C167.884 39.579 168.203 39.2675 168.721 38.9722C169.318 38.6363 169.991 38.461 170.676 38.4633C172.549 38.4633 173.486 39.3202 173.486 41.0383V43.402C170.713 43.9423 168.73 44.566 167.521 45.2708C165.949 46.1795 165.158 47.4531 165.158 49.0901C165.158 50.0537 165.453 50.8996 166.049 51.6176C166.826 52.5461 167.978 53.0082 169.505 53.0082C170.373 53.0082 171.205 52.7625 171.996 52.2624C172.733 51.8069 173.287 51.2257 173.66 50.5158V51.2433C173.681 51.8618 173.681 52.307 173.66 52.5527H179.036V51.3522H178.832C177.968 51.3522 177.537 50.76 177.537 49.5697V42.3975C177.537 38.9363 175.577 37.2036 171.668 37.2036C170.086 37.2036 168.759 37.5377 167.681 38.206C166.604 38.872 166.067 39.7442 166.067 40.8292C166.067 41.5764 166.313 42.1679 166.814 42.5978C167.231 42.9555 167.764 43.1486 168.314 43.141C168.946 43.141 169.468 42.9429 169.886 42.5473C170.309 42.1562 170.522 41.7139 170.522 41.2299C170.522 40.0301 169.881 39.4277 168.614 39.4277C168.132 39.4277 167.741 39.5819 167.449 39.8868L167.763 40.0089C167.766 39.9409 167.766 39.9043 167.761 39.9043ZM63.6799 43.3055C66.1306 43.3055 68.0892 42.8259 69.5625 41.8732C71.2265 40.808 72.0541 39.2346 72.0541 37.1451C72.0541 34.9744 71.2133 33.3579 69.531 32.2919C68.0995 31.3802 66.1628 30.9233 63.7164 30.9233H55.5696V32.1033C56.5376 32.1033 57.1378 32.1735 57.3696 32.308C57.7651 32.531 57.9647 33.1379 57.9647 34.1336V49.5083C57.9647 50.2621 57.801 50.7724 57.469 51.0356C57.1963 51.2447 56.6875 51.3449 55.9366 51.3449H55.5689V52.5461H65.262V51.3449H64.2531C63.4759 51.3449 62.948 51.2264 62.6665 50.972C62.3851 50.7264 62.244 50.2445 62.244 49.5083V43.3055H63.6799ZM67.6074 37.1612C67.6074 40.3437 66.3075 41.9347 63.7157 41.9347H62.3522V32.1808H63.7157C66.3075 32.1808 67.6074 33.8426 67.6074 37.1612ZM78.2225 40.5185C78.7862 38.3069 79.9816 37.1999 81.8182 37.1999C82.4908 37.1999 83.0275 37.382 83.4325 37.7497C83.8368 38.1175 84.0415 38.6022 84.0415 39.2091C84.0448 39.7267 83.8625 40.2283 83.5275 40.623C83.1364 41.0778 82.6458 41.3088 82.0543 41.3088C81.4906 41.3088 81.041 41.1341 80.7091 40.789C80.391 40.4863 80.2499 40.1142 80.277 39.6726C80.277 39.6316 80.2997 39.5271 80.3362 39.3611C79.7813 40.0593 79.3455 41.2547 79.018 42.937C78.7541 44.2852 78.6181 45.5215 78.6181 46.6357V49.6085C78.6181 50.3082 78.7 50.7629 78.8542 50.972C79.0451 51.2264 79.5634 51.3449 80.3998 51.3449H80.9043V52.5461H72.7494V51.3449H73.0543C73.6136 51.3449 74.0179 51.2447 74.2635 51.0451C74.5085 50.8536 74.6269 50.363 74.6269 49.6085V43.1257C74.6269 40.8914 74.5677 39.6477 74.4449 39.3999C74.2723 38.9978 73.936 38.7974 73.4359 38.7974H73.0089V37.5999H78.1187L78.2225 40.5185ZM95.1472 50.1627C95.0836 50.1999 95.02 50.2541 94.9381 50.3001L95.1472 50.1824C94.8928 50.8821 94.4241 51.5094 93.7332 52.046C92.9505 52.672 91.9762 53.0096 90.974 53.0023C89.2463 53.0023 88.0283 52.5293 87.3191 51.5745C86.7554 50.828 86.4688 49.656 86.4688 48.0644V41.8031C86.4688 40.3935 86.4052 39.571 86.2824 39.3348C86.1098 39.019 85.7048 38.8552 85.06 38.8552H84.9328V37.6028H90.5792V48.5922C90.5792 50.0464 91.1838 50.7746 92.3931 50.7746C93.3932 50.7746 94.0703 50.0837 94.4205 48.6741C94.5747 48.1104 94.6478 47.3376 94.6478 46.355V41.8089C94.6478 40.2538 94.5755 39.397 94.4249 39.231C94.207 38.9831 93.7522 38.8537 93.0562 38.8537H92.6292V37.6013H98.794V48.8181C98.794 50.0457 98.8671 50.7636 99.017 50.9552C99.2078 51.2184 99.5763 51.3456 100.117 51.3456H100.503V52.5461H95.0302L94.9388 50.1371L95.0302 50.1999L95.0573 50.265L95.1472 50.1627ZM107.272 37.2584C105.258 37.2584 103.631 38.1226 102.394 39.8429C101.303 41.3754 100.758 43.1257 100.758 45.0982C100.758 47.2623 101.158 49.017 101.976 50.3725C103.013 52.1264 104.617 53.0001 106.795 53.0001C107.913 53.0001 108.886 52.6543 109.714 51.9634C110.36 51.4092 110.782 50.7995 110.978 50.1356L110.874 50.2175L110.751 50.0998L110.855 52.5461H116.215V51.3624H115.947C115.333 51.3624 114.928 51.1987 114.733 50.8806C114.579 50.6532 114.505 50.2263 114.505 49.6165V30.4693L108.232 30.9489V32.0675H108.641C109.433 32.0675 109.941 32.2832 110.175 32.7109C110.311 32.9631 110.393 33.5334 110.42 34.4246C110.42 36.8293 110.461 38.2359 110.543 38.6366C109.962 37.7154 108.867 37.2584 107.272 37.2584ZM110.453 43.4802V46.5085C110.453 47.3354 110.39 48.0263 110.267 48.5717C109.895 50.227 109.104 51.0627 107.904 51.0627C106.221 51.0627 105.376 49.0711 105.376 45.0982C105.376 43.3304 105.477 42.0275 105.667 41.1838C106.052 39.5541 106.82 38.7389 107.967 38.7389C109.623 38.7382 110.453 40.3204 110.453 43.4802ZM120.782 44.7305H129.879C129.864 42.483 129.361 40.7093 128.37 39.4138C127.252 37.9384 125.597 37.1999 123.406 37.1999C121.391 37.1999 119.724 37.9252 118.395 39.3728C117.059 40.8643 116.396 42.7645 116.396 45.0712C116.396 47.4444 116.978 49.3263 118.15 50.7183C119.405 52.2463 121.19 53.0001 123.504 53.0001C125.3 53.0001 126.813 52.337 128.041 51.0181C129.115 49.8629 129.673 48.6266 129.714 47.2996H128.201C128.186 48.2808 127.814 49.2005 127.083 50.0552C126.255 51.0371 125.269 51.5189 124.118 51.5189C122.478 51.5189 121.441 50.3462 121.014 48C120.861 47.217 120.782 46.1349 120.782 44.7305ZM123.361 38.3405C124.933 38.3405 125.724 40.052 125.724 43.4751H120.782C120.796 42.9414 120.819 42.4976 120.846 42.1416C121.054 39.609 121.892 38.3405 123.361 38.3405ZM135.794 39.5454C136.135 38.8523 136.681 38.2908 137.425 37.8543C138.171 37.4178 138.997 37.1992 139.911 37.1992C142.907 37.1992 144.406 38.8267 144.406 42.0838V48.8905C144.406 49.6443 144.412 50.0983 144.425 50.254C144.479 50.9808 144.943 51.3441 145.802 51.3441H146.116V52.5446H140.297V41.5596C140.297 40.8 140.207 40.2546 140.024 39.9226C139.761 39.4386 139.266 39.1952 138.533 39.1952C137.843 39.1952 137.288 39.5315 136.87 40.2092C136.458 40.8892 136.247 41.8886 136.247 43.2119V48.8445C136.247 50.1086 136.305 50.817 136.433 50.9537C136.683 51.2177 137.128 51.3449 137.765 51.3449H138.015V52.5461H130.432V51.3449H130.837C131.611 51.3449 132.024 50.9822 132.083 50.254C132.11 50.0822 132.124 49.5902 132.124 48.7808V41.3044C132.124 40.1427 132.038 39.4357 131.865 39.1813C131.698 38.9246 131.333 38.7974 130.78 38.7974H130.435V37.5999H135.794V39.5454ZM151.756 52.9994C149.27 52.9994 148.019 51.5891 148.019 48.7713V38.8523H145.346V37.654H145.757C147.22 37.654 148.456 36.8315 149.475 35.1762C150.347 33.7878 150.794 32.3665 150.821 30.9233H152.076V37.654H154.93V38.8523H152.076V49.2714C152.076 50.4997 152.454 51.1175 153.213 51.1175C153.881 51.1175 154.314 50.5348 154.508 49.3709C154.576 48.9527 154.613 48.1155 154.613 46.8704H156.013C156.013 48.9263 155.826 50.3337 155.458 51.0707C154.837 52.3626 153.601 52.9994 151.756 52.9994ZM30.7394 23.1793C20.2083 23.1793 13.3285 31.835 13.3285 39.8926C13.3285 44.5206 14.4559 46.8251 15.6922 49.0338C17.2517 44.8438 20.3684 36.5076 20.3684 36.5076C20.3684 36.5076 21.8204 35.7574 21.8204 35.8671L23.9136 30.546L25.2596 29.8478L26.928 26.2997L30.5763 26.8912L37.995 31.0278L46.3231 33.3404C44.1773 27.8599 38.1039 23.1793 30.7394 23.1793ZM30.6297 58.8637C26.0631 58.8637 20.4759 57.2545 16.4438 52.3085H44.768C41.4861 56.5548 35.8484 58.8637 30.6297 58.8637ZM36.222 51.4538H33.6397L38.4314 45.485L38.9133 46.3981L36.222 51.4538ZM38.7495 32.4784L30.5303 27.6983L27.5188 27.1595V29.3624L29.8306 31.5148L26.6049 31.2421C26.6049 31.2421 26.7094 31.4058 29.3941 34.2535L41.6498 36.2948L43.7957 37.6927L38.2128 37.961L35.9032 46.3981L28.323 51.4538H23.377L25.0454 48.1718L24.7749 48.0636L20.3129 51.4553H19.2403L23.8069 45.0536C24.0226 43.2287 23.9136 44.0344 24.1841 40.7539L23.4859 39.7888L21.6581 46.8807L17.8417 51.4545H16.873L19.1299 48.28L22.3008 38.5547L21.4936 38.9276L20.0957 42.7981L19.1299 43.334C19.1299 43.334 16.873 48.8167 15.6907 51.4984C13.9734 49.036 12.0366 45.7028 12.0366 39.8934C12.0366 31.1872 19.5079 22 30.7394 22C41.5409 22 47.2963 30.5987 48.2599 35.0563L38.7495 32.4784ZM44.0684 45.0529L42.5045 46.3981L39.3951 51.4538H37.3494L39.3951 47.8436L41.0042 46.5071L43.3226 40.0038L45.7865 41.0244L44.0684 45.0529ZM45.5226 51.4538H41.3859L45.3047 45.2708L46.4869 41.2386L48.9595 42.0999C48.7417 45.2166 47.7232 48.3809 45.5226 51.4538ZM40.4676 44.0344L39.2313 44.2538L39.5588 41.7775L39.2313 41.2935L39.5588 38.4977L42.7231 39.7888L40.4676 44.0344ZM157.006 51.3537H157.401C157.992 51.3537 158.364 51.1621 158.514 50.7995C158.61 50.5355 158.654 49.8804 158.654 48.8262V41.0113C158.654 39.9519 158.553 39.3312 158.335 39.1425C158.126 38.9561 157.812 38.8632 157.4 38.8632H157.004V37.6649H162.709V48.8254C162.709 50.0537 162.782 50.7717 162.937 50.98C163.128 51.2345 163.483 51.3529 164.019 51.3529H164.429V52.5541H157.006V51.3537ZM158.092 33.4786C158.092 32.8037 158.329 32.2327 158.807 31.7575C159.032 31.5279 159.3 31.3464 159.597 31.2241C159.894 31.1018 160.213 31.0413 160.534 31.0461C160.856 31.0415 161.177 31.1021 161.475 31.2243C161.773 31.3466 162.044 31.5279 162.27 31.7575C162.757 32.2327 162.999 32.803 162.999 33.4786C162.999 34.1556 162.757 34.7353 162.27 35.2193C161.789 35.7099 161.212 35.9534 160.534 35.9534C159.857 35.9534 159.285 35.7099 158.807 35.2193C158.576 34.9929 158.394 34.7217 158.271 34.4225C158.148 34.1232 158.087 33.802 158.092 33.4786Z" fill="#B7C0CC"/>
</g>
<defs>
<clipPath id="clip0_1_1419">
<rect width="175.541" height="36.8637" fill="white" transform="translate(12 22)"/>
</clipPath>
</defs>
</svg>
