<svg width="251" height="287" viewBox="0 0 251 287" fill="none" xmlns="http://www.w3.org/2000/svg">
<path d="M47.82 132.3C46.78 132.3 45.8467 132.14 45.02 131.82C44.1933 131.5 43.4933 131.033 42.92 130.42C42.3467 129.793 41.9067 129.033 41.6 128.14C41.2933 127.247 41.14 126.22 41.14 125.06C41.14 123.9 41.3133 122.873 41.66 121.98C42.02 121.087 42.5067 120.333 43.12 119.72C43.7333 119.093 44.4533 118.62 45.28 118.3C46.1067 117.98 46.9933 117.82 47.94 117.82C48.5133 117.82 49.0333 117.867 49.5 117.96C49.9667 118.04 50.3733 118.133 50.72 118.24C51.0667 118.347 51.3533 118.46 51.58 118.58C51.8067 118.7 51.9667 118.787 52.06 118.84L51.32 120.9C51 120.7 50.54 120.513 49.94 120.34C49.3533 120.153 48.7133 120.06 48.02 120.06C47.42 120.06 46.86 120.167 46.34 120.38C45.82 120.58 45.3667 120.887 44.98 121.3C44.6067 121.713 44.3133 122.233 44.1 122.86C43.8867 123.487 43.78 124.213 43.78 125.04C43.78 125.773 43.86 126.447 44.02 127.06C44.1933 127.673 44.4533 128.207 44.8 128.66C45.1467 129.1 45.5867 129.447 46.12 129.7C46.6533 129.94 47.2933 130.06 48.04 130.06C48.9333 130.06 49.66 129.973 50.22 129.8C50.78 129.613 51.2133 129.44 51.52 129.28L52.2 131.34C52.04 131.447 51.82 131.553 51.54 131.66C51.2733 131.767 50.9533 131.873 50.58 131.98C50.2067 132.073 49.7867 132.147 49.32 132.2C48.8533 132.267 48.3533 132.3 47.82 132.3ZM63.5 126.76C63.5 127.587 63.38 128.34 63.14 129.02C62.9 129.7 62.56 130.28 62.12 130.76C61.68 131.24 61.1467 131.613 60.52 131.88C59.9067 132.147 59.2267 132.28 58.48 132.28C57.7333 132.28 57.0533 132.147 56.44 131.88C55.8267 131.613 55.3 131.24 54.86 130.76C54.42 130.28 54.0733 129.7 53.82 129.02C53.58 128.34 53.46 127.587 53.46 126.76C53.46 125.933 53.58 125.187 53.82 124.52C54.0733 123.84 54.42 123.26 54.86 122.78C55.3133 122.3 55.8467 121.933 56.46 121.68C57.0733 121.413 57.7467 121.28 58.48 121.28C59.2133 121.28 59.8867 121.413 60.5 121.68C61.1267 121.933 61.66 122.3 62.1 122.78C62.54 123.26 62.88 123.84 63.12 124.52C63.3733 125.187 63.5 125.933 63.5 126.76ZM61.02 126.76C61.02 125.72 60.7933 124.9 60.34 124.3C59.9 123.687 59.28 123.38 58.48 123.38C57.68 123.38 57.0533 123.687 56.6 124.3C56.16 124.9 55.94 125.72 55.94 126.76C55.94 127.813 56.16 128.647 56.6 129.26C57.0533 129.873 57.68 130.18 58.48 130.18C59.28 130.18 59.9 129.873 60.34 129.26C60.7933 128.647 61.02 127.813 61.02 126.76ZM65.9931 121.88C66.4598 121.747 67.0665 121.62 67.8131 121.5C68.5598 121.38 69.3865 121.32 70.2931 121.32C71.1465 121.32 71.8598 121.44 72.4331 121.68C73.0065 121.907 73.4598 122.233 73.7931 122.66C74.1398 123.073 74.3798 123.58 74.5131 124.18C74.6598 124.767 74.7331 125.413 74.7331 126.12V132H72.3131V126.5C72.3131 125.94 72.2731 125.467 72.1931 125.08C72.1265 124.68 72.0065 124.36 71.8331 124.12C71.6731 123.867 71.4465 123.687 71.1531 123.58C70.8731 123.46 70.5265 123.4 70.1131 123.4C69.8065 123.4 69.4865 123.42 69.1531 123.46C68.8198 123.5 68.5731 123.533 68.4131 123.56V132H65.9931V121.88ZM80.3123 130.26C80.9523 130.26 81.419 130.187 81.7123 130.04C82.0057 129.88 82.1523 129.613 82.1523 129.24C82.1523 128.893 81.9923 128.607 81.6723 128.38C81.3657 128.153 80.8523 127.907 80.1323 127.64C79.6923 127.48 79.2857 127.313 78.9123 127.14C78.5523 126.953 78.239 126.74 77.9723 126.5C77.7057 126.26 77.4923 125.973 77.3323 125.64C77.1857 125.293 77.1123 124.873 77.1123 124.38C77.1123 123.42 77.4657 122.667 78.1723 122.12C78.879 121.56 79.839 121.28 81.0523 121.28C81.6657 121.28 82.2523 121.34 82.8123 121.46C83.3723 121.567 83.7923 121.673 84.0723 121.78L83.6323 123.74C83.3657 123.62 83.0257 123.513 82.6123 123.42C82.199 123.313 81.719 123.26 81.1723 123.26C80.679 123.26 80.279 123.347 79.9723 123.52C79.6657 123.68 79.5123 123.933 79.5123 124.28C79.5123 124.453 79.539 124.607 79.5923 124.74C79.659 124.873 79.7657 125 79.9123 125.12C80.059 125.227 80.2523 125.34 80.4923 125.46C80.7323 125.567 81.0257 125.68 81.3723 125.8C81.9457 126.013 82.4323 126.227 82.8323 126.44C83.2323 126.64 83.559 126.873 83.8123 127.14C84.079 127.393 84.2723 127.687 84.3923 128.02C84.5123 128.353 84.5723 128.753 84.5723 129.22C84.5723 130.22 84.199 130.98 83.4523 131.5C82.719 132.007 81.6657 132.26 80.2923 132.26C79.3723 132.26 78.6323 132.18 78.0723 132.02C77.5123 131.873 77.119 131.753 76.8923 131.66L77.3123 129.64C77.6723 129.787 78.099 129.927 78.5923 130.06C79.099 130.193 79.6723 130.26 80.3123 130.26ZM95.413 131.68C94.9463 131.8 94.3396 131.92 93.593 132.04C92.8463 132.173 92.0263 132.24 91.133 132.24C90.293 132.24 89.5863 132.12 89.013 131.88C88.453 131.64 87.9996 131.307 87.653 130.88C87.3196 130.453 87.0796 129.947 86.933 129.36C86.7863 128.76 86.713 128.107 86.713 127.4V121.54H89.133V127.02C89.133 128.14 89.293 128.94 89.613 129.42C89.9463 129.9 90.5196 130.14 91.333 130.14C91.6263 130.14 91.933 130.127 92.253 130.1C92.5863 130.073 92.833 130.04 92.993 130V121.54H95.413V131.68ZM102.133 132.2C101.413 132.187 100.813 132.107 100.333 131.96C99.8665 131.813 99.4931 131.607 99.2131 131.34C98.9331 131.06 98.7331 130.72 98.6131 130.32C98.5065 129.907 98.4531 129.44 98.4531 128.92V116.88L100.873 116.48V128.46C100.873 128.753 100.893 129 100.933 129.2C100.986 129.4 101.073 129.573 101.193 129.72C101.313 129.853 101.473 129.96 101.673 130.04C101.886 130.107 102.153 130.16 102.473 130.2L102.133 132.2ZM104.311 118.78L106.731 118.38V121.54H110.451V123.56H106.731V127.82C106.731 128.66 106.864 129.26 107.131 129.62C107.397 129.98 107.851 130.16 108.491 130.16C108.931 130.16 109.317 130.113 109.651 130.02C109.997 129.927 110.271 129.84 110.471 129.76L110.871 131.68C110.591 131.8 110.224 131.92 109.771 132.04C109.317 132.173 108.784 132.24 108.171 132.24C107.424 132.24 106.797 132.14 106.291 131.94C105.797 131.74 105.404 131.453 105.111 131.08C104.817 130.693 104.611 130.233 104.491 129.7C104.371 129.153 104.311 128.533 104.311 127.84V118.78Z" fill="#14183E"/>
<path d="M47.545 173.74V175H41.29V164.605H42.745V173.74H47.545ZM48.3675 171.115C48.3675 170.425 48.4675 169.825 48.6675 169.315C48.8675 168.795 49.1325 168.365 49.4625 168.025C49.7925 167.685 50.1725 167.43 50.6025 167.26C51.0325 167.09 51.4725 167.005 51.9225 167.005C52.9725 167.005 53.7775 167.335 54.3375 167.995C54.8975 168.645 55.1775 169.64 55.1775 170.98C55.1775 171.04 55.1775 171.12 55.1775 171.22C55.1775 171.31 55.1725 171.395 55.1625 171.475H49.8225C49.8825 172.285 50.1175 172.9 50.5275 173.32C50.9375 173.74 51.5775 173.95 52.4475 173.95C52.9375 173.95 53.3475 173.91 53.6775 173.83C54.0175 173.74 54.2725 173.655 54.4425 173.575L54.6375 174.745C54.4675 174.835 54.1675 174.93 53.7375 175.03C53.3175 175.13 52.8375 175.18 52.2975 175.18C51.6175 175.18 51.0275 175.08 50.5275 174.88C50.0375 174.67 49.6325 174.385 49.3125 174.025C48.9925 173.665 48.7525 173.24 48.5925 172.75C48.4425 172.25 48.3675 171.705 48.3675 171.115ZM53.7225 170.35C53.7325 169.72 53.5725 169.205 53.2425 168.805C52.9225 168.395 52.4775 168.19 51.9075 168.19C51.5875 168.19 51.3025 168.255 51.0525 168.385C50.8125 168.505 50.6075 168.665 50.4375 168.865C50.2675 169.065 50.1325 169.295 50.0325 169.555C49.9425 169.815 49.8825 170.08 49.8525 170.35H53.7225ZM63.2714 167.2C62.8814 168.66 62.4214 170.06 61.8914 171.4C61.3714 172.74 60.8664 173.94 60.3764 175H59.1164C58.6264 173.94 58.1164 172.74 57.5864 171.4C57.0664 170.06 56.6114 168.66 56.2214 167.2H57.7214C57.8414 167.69 57.9814 168.215 58.1414 168.775C58.3114 169.325 58.4864 169.875 58.6664 170.425C58.8564 170.965 59.0464 171.49 59.2364 172C59.4264 172.51 59.6064 172.965 59.7764 173.365C59.9464 172.965 60.1264 172.51 60.3164 172C60.5064 171.49 60.6914 170.965 60.8714 170.425C61.0614 169.875 61.2364 169.325 61.3964 168.775C61.5664 168.215 61.7114 167.69 61.8314 167.2H63.2714ZM64.0707 171.115C64.0707 170.425 64.1707 169.825 64.3707 169.315C64.5707 168.795 64.8357 168.365 65.1657 168.025C65.4957 167.685 65.8757 167.43 66.3057 167.26C66.7357 167.09 67.1757 167.005 67.6257 167.005C68.6757 167.005 69.4807 167.335 70.0407 167.995C70.6007 168.645 70.8807 169.64 70.8807 170.98C70.8807 171.04 70.8807 171.12 70.8807 171.22C70.8807 171.31 70.8757 171.395 70.8657 171.475H65.5257C65.5857 172.285 65.8207 172.9 66.2307 173.32C66.6407 173.74 67.2807 173.95 68.1507 173.95C68.6407 173.95 69.0507 173.91 69.3807 173.83C69.7207 173.74 69.9757 173.655 70.1457 173.575L70.3407 174.745C70.1707 174.835 69.8707 174.93 69.4407 175.03C69.0207 175.13 68.5407 175.18 68.0007 175.18C67.3207 175.18 66.7307 175.08 66.2307 174.88C65.7407 174.67 65.3357 174.385 65.0157 174.025C64.6957 173.665 64.4557 173.24 64.2957 172.75C64.1457 172.25 64.0707 171.705 64.0707 171.115ZM69.4257 170.35C69.4357 169.72 69.2757 169.205 68.9457 168.805C68.6257 168.395 68.1807 168.19 67.6107 168.19C67.2907 168.19 67.0057 168.255 66.7557 168.385C66.5157 168.505 66.3107 168.665 66.1407 168.865C65.9707 169.065 65.8357 169.295 65.7357 169.555C65.6457 169.815 65.5857 170.08 65.5557 170.35H69.4257ZM75.7646 167.035C75.8846 167.035 76.0196 167.045 76.1696 167.065C76.3296 167.075 76.4846 167.095 76.6346 167.125C76.7846 167.145 76.9196 167.17 77.0396 167.2C77.1696 167.22 77.2646 167.24 77.3246 167.26L77.0846 168.475C76.9746 168.435 76.7896 168.39 76.5296 168.34C76.2796 168.28 75.9546 168.25 75.5546 168.25C75.2946 168.25 75.0346 168.28 74.7746 168.34C74.5246 168.39 74.3596 168.425 74.2796 168.445V175H72.8846V167.53C73.2146 167.41 73.6246 167.3 74.1146 167.2C74.6046 167.09 75.1546 167.035 75.7646 167.035ZM81.3107 173.995C81.6407 173.995 81.9307 173.99 82.1807 173.98C82.4407 173.96 82.6557 173.93 82.8257 173.89V171.565C82.7257 171.515 82.5607 171.475 82.3307 171.445C82.1107 171.405 81.8407 171.385 81.5207 171.385C81.3107 171.385 81.0857 171.4 80.8457 171.43C80.6157 171.46 80.4007 171.525 80.2007 171.625C80.0107 171.715 79.8507 171.845 79.7207 172.015C79.5907 172.175 79.5257 172.39 79.5257 172.66C79.5257 173.16 79.6857 173.51 80.0057 173.71C80.3257 173.9 80.7607 173.995 81.3107 173.995ZM81.1907 167.005C81.7507 167.005 82.2207 167.08 82.6007 167.23C82.9907 167.37 83.3007 167.575 83.5307 167.845C83.7707 168.105 83.9407 168.42 84.0407 168.79C84.1407 169.15 84.1907 169.55 84.1907 169.99V174.865C84.0707 174.885 83.9007 174.915 83.6807 174.955C83.4707 174.985 83.2307 175.015 82.9607 175.045C82.6907 175.075 82.3957 175.1 82.0757 175.12C81.7657 175.15 81.4557 175.165 81.1457 175.165C80.7057 175.165 80.3007 175.12 79.9307 175.03C79.5607 174.94 79.2407 174.8 78.9707 174.61C78.7007 174.41 78.4907 174.15 78.3407 173.83C78.1907 173.51 78.1157 173.125 78.1157 172.675C78.1157 172.245 78.2007 171.875 78.3707 171.565C78.5507 171.255 78.7907 171.005 79.0907 170.815C79.3907 170.625 79.7407 170.485 80.1407 170.395C80.5407 170.305 80.9607 170.26 81.4007 170.26C81.5407 170.26 81.6857 170.27 81.8357 170.29C81.9857 170.3 82.1257 170.32 82.2557 170.35C82.3957 170.37 82.5157 170.39 82.6157 170.41C82.7157 170.43 82.7857 170.445 82.8257 170.455V170.065C82.8257 169.835 82.8007 169.61 82.7507 169.39C82.7007 169.16 82.6107 168.96 82.4807 168.79C82.3507 168.61 82.1707 168.47 81.9407 168.37C81.7207 168.26 81.4307 168.205 81.0707 168.205C80.6107 168.205 80.2057 168.24 79.8557 168.31C79.5157 168.37 79.2607 168.435 79.0907 168.505L78.9257 167.35C79.1057 167.27 79.4057 167.195 79.8257 167.125C80.2457 167.045 80.7007 167.005 81.1907 167.005ZM91.3976 174.22C91.2776 174.3 91.0426 174.405 90.6926 174.535C90.3526 174.655 89.9526 174.715 89.4926 174.715C89.0226 174.715 88.5776 174.64 88.1576 174.49C87.7476 174.34 87.3876 174.11 87.0776 173.8C86.7676 173.48 86.5226 173.085 86.3426 172.615C86.1626 172.145 86.0726 171.585 86.0726 170.935C86.0726 170.365 86.1576 169.845 86.3276 169.375C86.4976 168.895 86.7426 168.485 87.0626 168.145C87.3926 167.795 87.7926 167.525 88.2626 167.335C88.7326 167.135 89.2626 167.035 89.8526 167.035C90.5026 167.035 91.0676 167.085 91.5476 167.185C92.0376 167.275 92.4476 167.36 92.7776 167.44V174.4C92.7776 175.6 92.4676 176.47 91.8476 177.01C91.2276 177.55 90.2876 177.82 89.0276 177.82C88.5376 177.82 88.0726 177.78 87.6326 177.7C87.2026 177.62 86.8276 177.525 86.5076 177.415L86.7626 176.2C87.0426 176.31 87.3826 176.405 87.7826 176.485C88.1926 176.575 88.6176 176.62 89.0576 176.62C89.8876 176.62 90.4826 176.455 90.8426 176.125C91.2126 175.795 91.3976 175.27 91.3976 174.55V174.22ZM91.3826 168.43C91.2426 168.39 91.0526 168.355 90.8126 168.325C90.5826 168.285 90.2676 168.265 89.8676 168.265C89.1176 168.265 88.5376 168.51 88.1276 169C87.7276 169.49 87.5276 170.14 87.5276 170.95C87.5276 171.4 87.5826 171.785 87.6926 172.105C87.8126 172.425 87.9676 172.69 88.1576 172.9C88.3576 173.11 88.5826 173.265 88.8326 173.365C89.0926 173.465 89.3576 173.515 89.6276 173.515C89.9976 173.515 90.3376 173.465 90.6476 173.365C90.9576 173.255 91.2026 173.13 91.3826 172.99V168.43ZM94.7445 171.115C94.7445 170.425 94.8445 169.825 95.0445 169.315C95.2445 168.795 95.5095 168.365 95.8395 168.025C96.1695 167.685 96.5495 167.43 96.9795 167.26C97.4095 167.09 97.8495 167.005 98.2995 167.005C99.3495 167.005 100.154 167.335 100.714 167.995C101.274 168.645 101.554 169.64 101.554 170.98C101.554 171.04 101.554 171.12 101.554 171.22C101.554 171.31 101.549 171.395 101.539 171.475H96.1995C96.2595 172.285 96.4945 172.9 96.9045 173.32C97.3145 173.74 97.9545 173.95 98.8245 173.95C99.3145 173.95 99.7245 173.91 100.054 173.83C100.394 173.74 100.649 173.655 100.819 173.575L101.014 174.745C100.844 174.835 100.544 174.93 100.114 175.03C99.6945 175.13 99.2145 175.18 98.6745 175.18C97.9945 175.18 97.4045 175.08 96.9045 174.88C96.4145 174.67 96.0095 174.385 95.6895 174.025C95.3695 173.665 95.1295 173.24 94.9695 172.75C94.8195 172.25 94.7445 171.705 94.7445 171.115ZM100.099 170.35C100.109 169.72 99.9495 169.205 99.6195 168.805C99.2995 168.395 98.8545 168.19 98.2845 168.19C97.9645 168.19 97.6795 168.255 97.4295 168.385C97.1895 168.505 96.9845 168.665 96.8145 168.865C96.6445 169.065 96.5095 169.295 96.4095 169.555C96.3195 169.815 96.2595 170.08 96.2295 170.35H100.099ZM109.67 173.995C110 173.995 110.29 173.99 110.54 173.98C110.8 173.96 111.015 173.93 111.185 173.89V171.565C111.085 171.515 110.92 171.475 110.69 171.445C110.47 171.405 110.2 171.385 109.88 171.385C109.67 171.385 109.445 171.4 109.205 171.43C108.975 171.46 108.76 171.525 108.56 171.625C108.37 171.715 108.21 171.845 108.08 172.015C107.95 172.175 107.885 172.39 107.885 172.66C107.885 173.16 108.045 173.51 108.365 173.71C108.685 173.9 109.12 173.995 109.67 173.995ZM109.55 167.005C110.11 167.005 110.58 167.08 110.96 167.23C111.35 167.37 111.66 167.575 111.89 167.845C112.13 168.105 112.3 168.42 112.4 168.79C112.5 169.15 112.55 169.55 112.55 169.99V174.865C112.43 174.885 112.26 174.915 112.04 174.955C111.83 174.985 111.59 175.015 111.32 175.045C111.05 175.075 110.755 175.1 110.435 175.12C110.125 175.15 109.815 175.165 109.505 175.165C109.065 175.165 108.66 175.12 108.29 175.03C107.92 174.94 107.6 174.8 107.33 174.61C107.06 174.41 106.85 174.15 106.7 173.83C106.55 173.51 106.475 173.125 106.475 172.675C106.475 172.245 106.56 171.875 106.73 171.565C106.91 171.255 107.15 171.005 107.45 170.815C107.75 170.625 108.1 170.485 108.5 170.395C108.9 170.305 109.32 170.26 109.76 170.26C109.9 170.26 110.045 170.27 110.195 170.29C110.345 170.3 110.485 170.32 110.615 170.35C110.755 170.37 110.875 170.39 110.975 170.41C111.075 170.43 111.145 170.445 111.185 170.455V170.065C111.185 169.835 111.16 169.61 111.11 169.39C111.06 169.16 110.97 168.96 110.84 168.79C110.71 168.61 110.53 168.47 110.3 168.37C110.08 168.26 109.79 168.205 109.43 168.205C108.97 168.205 108.565 168.24 108.215 168.31C107.875 168.37 107.62 168.435 107.45 168.505L107.285 167.35C107.465 167.27 107.765 167.195 108.185 167.125C108.605 167.045 109.06 167.005 109.55 167.005ZM119.757 174.22C119.637 174.3 119.402 174.405 119.052 174.535C118.712 174.655 118.312 174.715 117.852 174.715C117.382 174.715 116.937 174.64 116.517 174.49C116.107 174.34 115.747 174.11 115.437 173.8C115.127 173.48 114.882 173.085 114.702 172.615C114.522 172.145 114.432 171.585 114.432 170.935C114.432 170.365 114.517 169.845 114.687 169.375C114.857 168.895 115.102 168.485 115.422 168.145C115.752 167.795 116.152 167.525 116.622 167.335C117.092 167.135 117.622 167.035 118.212 167.035C118.862 167.035 119.427 167.085 119.907 167.185C120.397 167.275 120.807 167.36 121.137 167.44V174.4C121.137 175.6 120.827 176.47 120.207 177.01C119.587 177.55 118.647 177.82 117.387 177.82C116.897 177.82 116.432 177.78 115.992 177.7C115.562 177.62 115.187 177.525 114.867 177.415L115.122 176.2C115.402 176.31 115.742 176.405 116.142 176.485C116.552 176.575 116.977 176.62 117.417 176.62C118.247 176.62 118.842 176.455 119.202 176.125C119.572 175.795 119.757 175.27 119.757 174.55V174.22ZM119.742 168.43C119.602 168.39 119.412 168.355 119.172 168.325C118.942 168.285 118.627 168.265 118.227 168.265C117.477 168.265 116.897 168.51 116.487 169C116.087 169.49 115.887 170.14 115.887 170.95C115.887 171.4 115.942 171.785 116.052 172.105C116.172 172.425 116.327 172.69 116.517 172.9C116.717 173.11 116.942 173.265 117.192 173.365C117.452 173.465 117.717 173.515 117.987 173.515C118.357 173.515 118.697 173.465 119.007 173.365C119.317 173.255 119.562 173.13 119.742 172.99V168.43ZM124.934 175H123.539V167.2H124.934V175ZM124.229 165.79C123.979 165.79 123.764 165.71 123.584 165.55C123.414 165.38 123.329 165.155 123.329 164.875C123.329 164.595 123.414 164.375 123.584 164.215C123.764 164.045 123.979 163.96 124.229 163.96C124.479 163.96 124.689 164.045 124.859 164.215C125.039 164.375 125.129 164.595 125.129 164.875C125.129 165.155 125.039 165.38 124.859 165.55C124.689 165.71 124.479 165.79 124.229 165.79ZM129.673 175.15C128.813 175.13 128.203 174.945 127.843 174.595C127.483 174.245 127.303 173.7 127.303 172.96V163.6L128.698 163.36V172.735C128.698 172.965 128.718 173.155 128.758 173.305C128.798 173.455 128.863 173.575 128.953 173.665C129.043 173.755 129.163 173.825 129.313 173.875C129.463 173.915 129.648 173.95 129.868 173.98L129.673 175.15ZM130.999 171.115C130.999 170.425 131.099 169.825 131.299 169.315C131.499 168.795 131.764 168.365 132.094 168.025C132.424 167.685 132.804 167.43 133.234 167.26C133.664 167.09 134.104 167.005 134.554 167.005C135.604 167.005 136.409 167.335 136.969 167.995C137.529 168.645 137.809 169.64 137.809 170.98C137.809 171.04 137.809 171.12 137.809 171.22C137.809 171.31 137.804 171.395 137.794 171.475H132.454C132.514 172.285 132.749 172.9 133.159 173.32C133.569 173.74 134.209 173.95 135.079 173.95C135.569 173.95 135.979 173.91 136.309 173.83C136.649 173.74 136.904 173.655 137.074 173.575L137.269 174.745C137.099 174.835 136.799 174.93 136.369 175.03C135.949 175.13 135.469 175.18 134.929 175.18C134.249 175.18 133.659 175.08 133.159 174.88C132.669 174.67 132.264 174.385 131.944 174.025C131.624 173.665 131.384 173.24 131.224 172.75C131.074 172.25 130.999 171.705 130.999 171.115ZM136.354 170.35C136.364 169.72 136.204 169.205 135.874 168.805C135.554 168.395 135.109 168.19 134.539 168.19C134.219 168.19 133.934 168.255 133.684 168.385C133.444 168.505 133.239 168.665 133.069 168.865C132.899 169.065 132.764 169.295 132.664 169.555C132.574 169.815 132.514 170.08 132.484 170.35H136.354ZM146.33 163.36C146.74 163.36 147.09 163.39 147.38 163.45C147.68 163.51 147.89 163.565 148.01 163.615L147.755 164.815C147.635 164.755 147.465 164.7 147.245 164.65C147.025 164.59 146.755 164.56 146.435 164.56C145.785 164.56 145.33 164.74 145.07 165.1C144.81 165.45 144.68 165.925 144.68 166.525V167.2H147.68V168.37H144.68V175H143.285V166.495C143.285 165.495 143.53 164.725 144.02 164.185C144.51 163.635 145.28 163.36 146.33 163.36ZM151.951 167.035C152.071 167.035 152.206 167.045 152.356 167.065C152.516 167.075 152.671 167.095 152.821 167.125C152.971 167.145 153.106 167.17 153.226 167.2C153.356 167.22 153.451 167.24 153.511 167.26L153.271 168.475C153.161 168.435 152.976 168.39 152.716 168.34C152.466 168.28 152.141 168.25 151.741 168.25C151.481 168.25 151.221 168.28 150.961 168.34C150.711 168.39 150.546 168.425 150.466 168.445V175H149.071V167.53C149.401 167.41 149.811 167.3 150.301 167.2C150.791 167.09 151.341 167.035 151.951 167.035ZM157.497 173.995C157.827 173.995 158.117 173.99 158.367 173.98C158.627 173.96 158.842 173.93 159.012 173.89V171.565C158.912 171.515 158.747 171.475 158.517 171.445C158.297 171.405 158.027 171.385 157.707 171.385C157.497 171.385 157.272 171.4 157.032 171.43C156.802 171.46 156.587 171.525 156.387 171.625C156.197 171.715 156.037 171.845 155.907 172.015C155.777 172.175 155.712 172.39 155.712 172.66C155.712 173.16 155.872 173.51 156.192 173.71C156.512 173.9 156.947 173.995 157.497 173.995ZM157.377 167.005C157.937 167.005 158.407 167.08 158.787 167.23C159.177 167.37 159.487 167.575 159.717 167.845C159.957 168.105 160.127 168.42 160.227 168.79C160.327 169.15 160.377 169.55 160.377 169.99V174.865C160.257 174.885 160.087 174.915 159.867 174.955C159.657 174.985 159.417 175.015 159.147 175.045C158.877 175.075 158.582 175.1 158.262 175.12C157.952 175.15 157.642 175.165 157.332 175.165C156.892 175.165 156.487 175.12 156.117 175.03C155.747 174.94 155.427 174.8 155.157 174.61C154.887 174.41 154.677 174.15 154.527 173.83C154.377 173.51 154.302 173.125 154.302 172.675C154.302 172.245 154.387 171.875 154.557 171.565C154.737 171.255 154.977 171.005 155.277 170.815C155.577 170.625 155.927 170.485 156.327 170.395C156.727 170.305 157.147 170.26 157.587 170.26C157.727 170.26 157.872 170.27 158.022 170.29C158.172 170.3 158.312 170.32 158.442 170.35C158.582 170.37 158.702 170.39 158.802 170.41C158.902 170.43 158.972 170.445 159.012 170.455V170.065C159.012 169.835 158.987 169.61 158.937 169.39C158.887 169.16 158.797 168.96 158.667 168.79C158.537 168.61 158.357 168.47 158.127 168.37C157.907 168.26 157.617 168.205 157.257 168.205C156.797 168.205 156.392 168.24 156.042 168.31C155.702 168.37 155.447 168.435 155.277 168.505L155.112 167.35C155.292 167.27 155.592 167.195 156.012 167.125C156.432 167.045 156.887 167.005 157.377 167.005ZM162.694 167.425C163.014 167.345 163.434 167.26 163.954 167.17C164.484 167.08 165.094 167.035 165.784 167.035C166.284 167.035 166.704 167.105 167.044 167.245C167.384 167.375 167.669 167.57 167.899 167.83C167.969 167.78 168.079 167.71 168.229 167.62C168.379 167.53 168.564 167.445 168.784 167.365C169.004 167.275 169.249 167.2 169.519 167.14C169.789 167.07 170.079 167.035 170.389 167.035C170.989 167.035 171.479 167.125 171.859 167.305C172.239 167.475 172.534 167.72 172.744 168.04C172.964 168.36 173.109 168.74 173.179 169.18C173.259 169.62 173.299 170.1 173.299 170.62V175H171.904V170.92C171.904 170.46 171.879 170.065 171.829 169.735C171.789 169.405 171.704 169.13 171.574 168.91C171.454 168.69 171.284 168.53 171.064 168.43C170.854 168.32 170.579 168.265 170.239 168.265C169.769 168.265 169.379 168.33 169.069 168.46C168.769 168.58 168.564 168.69 168.454 168.79C168.534 169.05 168.594 169.335 168.634 169.645C168.674 169.955 168.694 170.28 168.694 170.62V175H167.299V170.92C167.299 170.46 167.274 170.065 167.224 169.735C167.174 169.405 167.084 169.13 166.954 168.91C166.834 168.69 166.664 168.53 166.444 168.43C166.234 168.32 165.964 168.265 165.634 168.265C165.494 168.265 165.344 168.27 165.184 168.28C165.024 168.29 164.869 168.305 164.719 168.325C164.579 168.335 164.449 168.35 164.329 168.37C164.209 168.39 164.129 168.405 164.089 168.415V175H162.694V167.425ZM175.179 171.115C175.179 170.425 175.279 169.825 175.479 169.315C175.679 168.795 175.944 168.365 176.274 168.025C176.604 167.685 176.984 167.43 177.414 167.26C177.844 167.09 178.284 167.005 178.734 167.005C179.784 167.005 180.589 167.335 181.149 167.995C181.709 168.645 181.989 169.64 181.989 170.98C181.989 171.04 181.989 171.12 181.989 171.22C181.989 171.31 181.984 171.395 181.974 171.475H176.634C176.694 172.285 176.929 172.9 177.339 173.32C177.749 173.74 178.389 173.95 179.259 173.95C179.749 173.95 180.159 173.91 180.489 173.83C180.829 173.74 181.084 173.655 181.254 173.575L181.449 174.745C181.279 174.835 180.979 174.93 180.549 175.03C180.129 175.13 179.649 175.18 179.109 175.18C178.429 175.18 177.839 175.08 177.339 174.88C176.849 174.67 176.444 174.385 176.124 174.025C175.804 173.665 175.564 173.24 175.404 172.75C175.254 172.25 175.179 171.705 175.179 171.115ZM180.534 170.35C180.544 169.72 180.384 169.205 180.054 168.805C179.734 168.395 179.289 168.19 178.719 168.19C178.399 168.19 178.114 168.255 177.864 168.385C177.624 168.505 177.419 168.665 177.249 168.865C177.079 169.065 176.944 169.295 176.844 169.555C176.754 169.815 176.694 170.08 176.664 170.35H180.534ZM190.368 175C190.088 174.28 189.788 173.46 189.468 172.54C189.158 171.61 188.873 170.645 188.613 169.645C188.353 170.645 188.068 171.61 187.758 172.54C187.448 173.46 187.153 174.28 186.873 175H185.658C185.198 173.97 184.748 172.795 184.308 171.475C183.868 170.155 183.453 168.73 183.063 167.2H184.563C184.663 167.67 184.783 168.18 184.923 168.73C185.063 169.28 185.208 169.83 185.358 170.38C185.518 170.93 185.683 171.46 185.853 171.97C186.023 172.48 186.183 172.925 186.333 173.305C186.503 172.835 186.668 172.34 186.828 171.82C186.998 171.29 187.158 170.76 187.308 170.23C187.458 169.69 187.598 169.165 187.728 168.655C187.868 168.135 187.988 167.65 188.088 167.2H189.243C189.333 167.65 189.443 168.135 189.573 168.655C189.703 169.165 189.843 169.69 189.993 170.23C190.143 170.76 190.298 171.29 190.458 171.82C190.628 172.34 190.798 172.835 190.968 173.305C191.118 172.925 191.273 172.48 191.433 171.97C191.603 171.46 191.768 170.93 191.928 170.38C192.088 169.83 192.238 169.28 192.378 168.73C192.518 168.18 192.638 167.67 192.738 167.2H194.178C193.788 168.73 193.373 170.155 192.933 171.475C192.493 172.795 192.043 173.97 191.583 175H190.368ZM202.362 171.1C202.362 171.72 202.272 172.28 202.092 172.78C201.912 173.28 201.657 173.71 201.327 174.07C201.007 174.43 200.622 174.71 200.172 174.91C199.722 175.1 199.232 175.195 198.702 175.195C198.172 175.195 197.682 175.1 197.232 174.91C196.782 174.71 196.392 174.43 196.062 174.07C195.742 173.71 195.492 173.28 195.312 172.78C195.132 172.28 195.042 171.72 195.042 171.1C195.042 170.49 195.132 169.935 195.312 169.435C195.492 168.925 195.742 168.49 196.062 168.13C196.392 167.77 196.782 167.495 197.232 167.305C197.682 167.105 198.172 167.005 198.702 167.005C199.232 167.005 199.722 167.105 200.172 167.305C200.622 167.495 201.007 167.77 201.327 168.13C201.657 168.49 201.912 168.925 202.092 169.435C202.272 169.935 202.362 170.49 202.362 171.1ZM200.907 171.1C200.907 170.22 200.707 169.525 200.307 169.015C199.917 168.495 199.382 168.235 198.702 168.235C198.022 168.235 197.482 168.495 197.082 169.015C196.692 169.525 196.497 170.22 196.497 171.1C196.497 171.98 196.692 172.68 197.082 173.2C197.482 173.71 198.022 173.965 198.702 173.965C199.382 173.965 199.917 173.71 200.307 173.2C200.707 172.68 200.907 171.98 200.907 171.1ZM207.205 167.035C207.325 167.035 207.46 167.045 207.61 167.065C207.77 167.075 207.925 167.095 208.075 167.125C208.225 167.145 208.36 167.17 208.48 167.2C208.61 167.22 208.705 167.24 208.765 167.26L208.525 168.475C208.415 168.435 208.23 168.39 207.97 168.34C207.72 168.28 207.395 168.25 206.995 168.25C206.735 168.25 206.475 168.28 206.215 168.34C205.965 168.39 205.8 168.425 205.72 168.445V175H204.325V167.53C204.655 167.41 205.065 167.3 205.555 167.2C206.045 167.09 206.595 167.035 207.205 167.035ZM212.931 170.71C213.231 170.94 213.546 171.225 213.876 171.565C214.216 171.905 214.546 172.275 214.866 172.675C215.196 173.065 215.506 173.465 215.796 173.875C216.086 174.275 216.331 174.65 216.531 175H214.896C214.686 174.65 214.441 174.295 214.161 173.935C213.891 173.565 213.606 173.215 213.306 172.885C213.006 172.545 212.701 172.235 212.391 171.955C212.081 171.675 211.786 171.44 211.506 171.25V175H210.111V163.6L211.506 163.36V170.47C211.746 170.23 212.011 169.965 212.301 169.675C212.591 169.385 212.876 169.09 213.156 168.79C213.436 168.49 213.701 168.205 213.951 167.935C214.201 167.655 214.416 167.41 214.596 167.2H216.231C216.001 167.45 215.751 167.725 215.481 168.025C215.211 168.325 214.931 168.63 214.641 168.94C214.351 169.24 214.056 169.545 213.756 169.855C213.466 170.155 213.191 170.44 212.931 170.71ZM42.505 194.2H45.46V195.37H42.505V198.97C42.505 199.36 42.535 199.685 42.595 199.945C42.655 200.195 42.745 200.395 42.865 200.545C42.985 200.685 43.135 200.785 43.315 200.845C43.495 200.905 43.705 200.935 43.945 200.935C44.365 200.935 44.7 200.89 44.95 200.8C45.21 200.7 45.39 200.63 45.49 200.59L45.76 201.745C45.62 201.815 45.375 201.9 45.025 202C44.675 202.11 44.275 202.165 43.825 202.165C43.295 202.165 42.855 202.1 42.505 201.97C42.165 201.83 41.89 201.625 41.68 201.355C41.47 201.085 41.32 200.755 41.23 200.365C41.15 199.965 41.11 199.505 41.11 198.985V192.025L42.505 191.785V194.2ZM53.9151 198.1C53.9151 198.72 53.8251 199.28 53.6451 199.78C53.4651 200.28 53.2101 200.71 52.8801 201.07C52.5601 201.43 52.1751 201.71 51.7251 201.91C51.2751 202.1 50.7851 202.195 50.2551 202.195C49.7251 202.195 49.2351 202.1 48.7851 201.91C48.3351 201.71 47.9451 201.43 47.6151 201.07C47.2951 200.71 47.0451 200.28 46.8651 199.78C46.6851 199.28 46.5951 198.72 46.5951 198.1C46.5951 197.49 46.6851 196.935 46.8651 196.435C47.0451 195.925 47.2951 195.49 47.6151 195.13C47.9451 194.77 48.3351 194.495 48.7851 194.305C49.2351 194.105 49.7251 194.005 50.2551 194.005C50.7851 194.005 51.2751 194.105 51.7251 194.305C52.1751 194.495 52.5601 194.77 52.8801 195.13C53.2101 195.49 53.4651 195.925 53.6451 196.435C53.8251 196.935 53.9151 197.49 53.9151 198.1ZM52.4601 198.1C52.4601 197.22 52.2601 196.525 51.8601 196.015C51.4701 195.495 50.9351 195.235 50.2551 195.235C49.5751 195.235 49.0351 195.495 48.6351 196.015C48.2451 196.525 48.0501 197.22 48.0501 198.1C48.0501 198.98 48.2451 199.68 48.6351 200.2C49.0351 200.71 49.5751 200.965 50.2551 200.965C50.9351 200.965 51.4701 200.71 51.8601 200.2C52.2601 199.68 52.4601 198.98 52.4601 198.1ZM64.7644 198.115C64.7644 197.205 64.5394 196.505 64.0894 196.015C63.6394 195.525 63.0394 195.28 62.2894 195.28C61.8694 195.28 61.5394 195.295 61.2994 195.325C61.0694 195.355 60.8844 195.39 60.7444 195.43V200.35C60.9144 200.49 61.1594 200.625 61.4794 200.755C61.7994 200.885 62.1494 200.95 62.5294 200.95C62.9294 200.95 63.2694 200.88 63.5494 200.74C63.8394 200.59 64.0744 200.39 64.2544 200.14C64.4344 199.88 64.5644 199.58 64.6444 199.24C64.7244 198.89 64.7644 198.515 64.7644 198.115ZM66.2194 198.115C66.2194 198.705 66.1394 199.25 65.9794 199.75C65.8294 200.25 65.6044 200.68 65.3044 201.04C65.0044 201.4 64.6344 201.68 64.1944 201.88C63.7644 202.08 63.2694 202.18 62.7094 202.18C62.2594 202.18 61.8594 202.12 61.5094 202C61.1694 201.88 60.9144 201.765 60.7444 201.655V204.775H59.3494V194.44C59.6794 194.36 60.0894 194.275 60.5794 194.185C61.0794 194.085 61.6544 194.035 62.3044 194.035C62.9044 194.035 63.4444 194.13 63.9244 194.32C64.4044 194.51 64.8144 194.78 65.1544 195.13C65.4944 195.48 65.7544 195.91 65.9344 196.42C66.1244 196.92 66.2194 197.485 66.2194 198.115ZM71.0624 194.035C71.1824 194.035 71.3174 194.045 71.4674 194.065C71.6274 194.075 71.7824 194.095 71.9324 194.125C72.0824 194.145 72.2174 194.17 72.3374 194.2C72.4674 194.22 72.5624 194.24 72.6224 194.26L72.3824 195.475C72.2724 195.435 72.0874 195.39 71.8274 195.34C71.5774 195.28 71.2524 195.25 70.8524 195.25C70.5924 195.25 70.3324 195.28 70.0724 195.34C69.8224 195.39 69.6574 195.425 69.5774 195.445V202H68.1824V194.53C68.5124 194.41 68.9224 194.3 69.4124 194.2C69.9024 194.09 70.4524 194.035 71.0624 194.035ZM80.8536 198.1C80.8536 198.72 80.7636 199.28 80.5836 199.78C80.4036 200.28 80.1486 200.71 79.8186 201.07C79.4986 201.43 79.1136 201.71 78.6636 201.91C78.2136 202.1 77.7236 202.195 77.1936 202.195C76.6636 202.195 76.1736 202.1 75.7236 201.91C75.2736 201.71 74.8836 201.43 74.5536 201.07C74.2336 200.71 73.9836 200.28 73.8036 199.78C73.6236 199.28 73.5336 198.72 73.5336 198.1C73.5336 197.49 73.6236 196.935 73.8036 196.435C73.9836 195.925 74.2336 195.49 74.5536 195.13C74.8836 194.77 75.2736 194.495 75.7236 194.305C76.1736 194.105 76.6636 194.005 77.1936 194.005C77.7236 194.005 78.2136 194.105 78.6636 194.305C79.1136 194.495 79.4986 194.77 79.8186 195.13C80.1486 195.49 80.4036 195.925 80.5836 196.435C80.7636 196.935 80.8536 197.49 80.8536 198.1ZM79.3986 198.1C79.3986 197.22 79.1986 196.525 78.7986 196.015C78.4086 195.495 77.8736 195.235 77.1936 195.235C76.5136 195.235 75.9736 195.495 75.5736 196.015C75.1836 196.525 74.9886 197.22 74.9886 198.1C74.9886 198.98 75.1836 199.68 75.5736 200.2C75.9736 200.71 76.5136 200.965 77.1936 200.965C77.8736 200.965 78.4086 200.71 78.7986 200.2C79.1986 199.68 79.3986 198.98 79.3986 198.1ZM88.7011 194.2C88.3111 195.66 87.8511 197.06 87.3211 198.4C86.8011 199.74 86.2961 200.94 85.8061 202H84.5461C84.0561 200.94 83.5461 199.74 83.0161 198.4C82.4961 197.06 82.0411 195.66 81.6511 194.2H83.1511C83.2711 194.69 83.4111 195.215 83.5711 195.775C83.7411 196.325 83.9161 196.875 84.0961 197.425C84.2861 197.965 84.4761 198.49 84.6661 199C84.8561 199.51 85.0361 199.965 85.2061 200.365C85.3761 199.965 85.5561 199.51 85.7461 199C85.9361 198.49 86.1211 197.965 86.3011 197.425C86.4911 196.875 86.6661 196.325 86.8261 195.775C86.9961 195.215 87.1411 194.69 87.2611 194.2H88.7011ZM91.5354 202H90.1404V194.2H91.5354V202ZM90.8304 192.79C90.5804 192.79 90.3654 192.71 90.1854 192.55C90.0154 192.38 89.9304 192.155 89.9304 191.875C89.9304 191.595 90.0154 191.375 90.1854 191.215C90.3654 191.045 90.5804 190.96 90.8304 190.96C91.0804 190.96 91.2904 191.045 91.4604 191.215C91.6404 191.375 91.7304 191.595 91.7304 191.875C91.7304 192.155 91.6404 192.38 91.4604 192.55C91.2904 192.71 91.0804 192.79 90.8304 192.79ZM98.9744 195.85C98.8044 195.71 98.5594 195.575 98.2394 195.445C97.9194 195.315 97.5694 195.25 97.1894 195.25C96.7894 195.25 96.4444 195.325 96.1544 195.475C95.8744 195.615 95.6444 195.815 95.4644 196.075C95.2844 196.325 95.1544 196.625 95.0744 196.975C94.9944 197.325 94.9544 197.7 94.9544 198.1C94.9544 199.01 95.1794 199.715 95.6294 200.215C96.0794 200.705 96.6794 200.95 97.4294 200.95C97.8094 200.95 98.1244 200.935 98.3744 200.905C98.6344 200.865 98.8344 200.825 98.9744 200.785V195.85ZM98.9744 190.6L100.369 190.36V201.775C100.049 201.865 99.6394 201.955 99.1394 202.045C98.6394 202.135 98.0644 202.18 97.4144 202.18C96.8144 202.18 96.2744 202.085 95.7944 201.895C95.3144 201.705 94.9044 201.435 94.5644 201.085C94.2244 200.735 93.9594 200.31 93.7694 199.81C93.5894 199.3 93.4994 198.73 93.4994 198.1C93.4994 197.5 93.5744 196.95 93.7244 196.45C93.8844 195.95 94.1144 195.52 94.4144 195.16C94.7144 194.8 95.0794 194.52 95.5094 194.32C95.9494 194.12 96.4494 194.02 97.0094 194.02C97.4594 194.02 97.8544 194.08 98.1944 194.2C98.5444 194.32 98.8044 194.435 98.9744 194.545V190.6ZM102.332 198.115C102.332 197.425 102.432 196.825 102.632 196.315C102.832 195.795 103.097 195.365 103.427 195.025C103.757 194.685 104.137 194.43 104.567 194.26C104.997 194.09 105.437 194.005 105.887 194.005C106.937 194.005 107.742 194.335 108.302 194.995C108.862 195.645 109.142 196.64 109.142 197.98C109.142 198.04 109.142 198.12 109.142 198.22C109.142 198.31 109.137 198.395 109.127 198.475H103.787C103.847 199.285 104.082 199.9 104.492 200.32C104.902 200.74 105.542 200.95 106.412 200.95C106.902 200.95 107.312 200.91 107.642 200.83C107.982 200.74 108.237 200.655 108.407 200.575L108.602 201.745C108.432 201.835 108.132 201.93 107.702 202.03C107.282 202.13 106.802 202.18 106.262 202.18C105.582 202.18 104.992 202.08 104.492 201.88C104.002 201.67 103.597 201.385 103.277 201.025C102.957 200.665 102.717 200.24 102.557 199.75C102.407 199.25 102.332 198.705 102.332 198.115ZM107.687 197.35C107.697 196.72 107.537 196.205 107.207 195.805C106.887 195.395 106.442 195.19 105.872 195.19C105.552 195.19 105.267 195.255 105.017 195.385C104.777 195.505 104.572 195.665 104.402 195.865C104.232 196.065 104.097 196.295 103.997 196.555C103.907 196.815 103.847 197.08 103.817 197.35H107.687ZM117.258 200.995C117.588 200.995 117.878 200.99 118.128 200.98C118.388 200.96 118.603 200.93 118.773 200.89V198.565C118.673 198.515 118.508 198.475 118.278 198.445C118.058 198.405 117.788 198.385 117.468 198.385C117.258 198.385 117.033 198.4 116.793 198.43C116.563 198.46 116.348 198.525 116.148 198.625C115.958 198.715 115.798 198.845 115.668 199.015C115.538 199.175 115.473 199.39 115.473 199.66C115.473 200.16 115.633 200.51 115.953 200.71C116.273 200.9 116.708 200.995 117.258 200.995ZM117.138 194.005C117.698 194.005 118.168 194.08 118.548 194.23C118.938 194.37 119.248 194.575 119.478 194.845C119.718 195.105 119.888 195.42 119.988 195.79C120.088 196.15 120.138 196.55 120.138 196.99V201.865C120.018 201.885 119.848 201.915 119.628 201.955C119.418 201.985 119.178 202.015 118.908 202.045C118.638 202.075 118.343 202.1 118.023 202.12C117.713 202.15 117.403 202.165 117.093 202.165C116.653 202.165 116.248 202.12 115.878 202.03C115.508 201.94 115.188 201.8 114.918 201.61C114.648 201.41 114.438 201.15 114.288 200.83C114.138 200.51 114.063 200.125 114.063 199.675C114.063 199.245 114.148 198.875 114.318 198.565C114.498 198.255 114.738 198.005 115.038 197.815C115.338 197.625 115.688 197.485 116.088 197.395C116.488 197.305 116.908 197.26 117.348 197.26C117.488 197.26 117.633 197.27 117.783 197.29C117.933 197.3 118.073 197.32 118.203 197.35C118.343 197.37 118.463 197.39 118.563 197.41C118.663 197.43 118.733 197.445 118.773 197.455V197.065C118.773 196.835 118.748 196.61 118.698 196.39C118.648 196.16 118.558 195.96 118.428 195.79C118.298 195.61 118.118 195.47 117.888 195.37C117.668 195.26 117.378 195.205 117.018 195.205C116.558 195.205 116.153 195.24 115.803 195.31C115.463 195.37 115.208 195.435 115.038 195.505L114.873 194.35C115.053 194.27 115.353 194.195 115.773 194.125C116.193 194.045 116.648 194.005 117.138 194.005ZM128.807 194.035C128.927 194.035 129.062 194.045 129.212 194.065C129.372 194.075 129.527 194.095 129.677 194.125C129.827 194.145 129.962 194.17 130.082 194.2C130.212 194.22 130.307 194.24 130.367 194.26L130.127 195.475C130.017 195.435 129.832 195.39 129.572 195.34C129.322 195.28 128.997 195.25 128.597 195.25C128.337 195.25 128.077 195.28 127.817 195.34C127.567 195.39 127.402 195.425 127.322 195.445V202H125.927V194.53C126.257 194.41 126.667 194.3 127.157 194.2C127.647 194.09 128.197 194.035 128.807 194.035ZM138.598 198.1C138.598 198.72 138.508 199.28 138.328 199.78C138.148 200.28 137.893 200.71 137.563 201.07C137.243 201.43 136.858 201.71 136.408 201.91C135.958 202.1 135.468 202.195 134.938 202.195C134.408 202.195 133.918 202.1 133.468 201.91C133.018 201.71 132.628 201.43 132.298 201.07C131.978 200.71 131.728 200.28 131.548 199.78C131.368 199.28 131.278 198.72 131.278 198.1C131.278 197.49 131.368 196.935 131.548 196.435C131.728 195.925 131.978 195.49 132.298 195.13C132.628 194.77 133.018 194.495 133.468 194.305C133.918 194.105 134.408 194.005 134.938 194.005C135.468 194.005 135.958 194.105 136.408 194.305C136.858 194.495 137.243 194.77 137.563 195.13C137.893 195.49 138.148 195.925 138.328 196.435C138.508 196.935 138.598 197.49 138.598 198.1ZM137.143 198.1C137.143 197.22 136.943 196.525 136.543 196.015C136.153 195.495 135.618 195.235 134.938 195.235C134.258 195.235 133.718 195.495 133.318 196.015C132.928 196.525 132.733 197.22 132.733 198.1C132.733 198.98 132.928 199.68 133.318 200.2C133.718 200.71 134.258 200.965 134.938 200.965C135.618 200.965 136.153 200.71 136.543 200.2C136.943 199.68 137.143 198.98 137.143 198.1ZM141.955 194.545C142.125 194.435 142.38 194.32 142.72 194.2C143.07 194.08 143.47 194.02 143.92 194.02C144.48 194.02 144.975 194.12 145.405 194.32C145.845 194.52 146.215 194.8 146.515 195.16C146.815 195.52 147.04 195.95 147.19 196.45C147.35 196.95 147.43 197.5 147.43 198.1C147.43 198.73 147.335 199.3 147.145 199.81C146.965 200.31 146.705 200.735 146.365 201.085C146.025 201.435 145.615 201.705 145.135 201.895C144.655 202.085 144.115 202.18 143.515 202.18C142.865 202.18 142.29 202.135 141.79 202.045C141.29 201.955 140.88 201.865 140.56 201.775V190.6L141.955 190.36V194.545ZM141.955 200.785C142.095 200.825 142.29 200.865 142.54 200.905C142.8 200.935 143.12 200.95 143.5 200.95C144.25 200.95 144.85 200.705 145.3 200.215C145.75 199.715 145.975 199.01 145.975 198.1C145.975 197.7 145.935 197.325 145.855 196.975C145.775 196.625 145.645 196.325 145.465 196.075C145.285 195.815 145.05 195.615 144.76 195.475C144.48 195.325 144.14 195.25 143.74 195.25C143.36 195.25 143.01 195.315 142.69 195.445C142.37 195.575 142.125 195.71 141.955 195.85V200.785ZM155.603 201.775C155.283 201.855 154.858 201.94 154.328 202.03C153.808 202.12 153.203 202.165 152.513 202.165C151.913 202.165 151.408 202.08 150.998 201.91C150.588 201.73 150.258 201.48 150.008 201.16C149.758 200.84 149.578 200.465 149.468 200.035C149.358 199.595 149.303 199.11 149.303 198.58V194.2H150.698V198.28C150.698 199.23 150.848 199.91 151.148 200.32C151.448 200.73 151.953 200.935 152.663 200.935C152.813 200.935 152.968 200.93 153.128 200.92C153.288 200.91 153.438 200.9 153.578 200.89C153.718 200.87 153.843 200.855 153.953 200.845C154.073 200.825 154.158 200.805 154.208 200.785V194.2H155.603V201.775ZM159.822 200.995C160.392 200.995 160.812 200.92 161.082 200.77C161.362 200.62 161.502 200.38 161.502 200.05C161.502 199.71 161.367 199.44 161.097 199.24C160.827 199.04 160.382 198.815 159.762 198.565C159.462 198.445 159.172 198.325 158.892 198.205C158.622 198.075 158.387 197.925 158.187 197.755C157.987 197.585 157.827 197.38 157.707 197.14C157.587 196.9 157.527 196.605 157.527 196.255C157.527 195.565 157.782 195.02 158.292 194.62C158.802 194.21 159.497 194.005 160.377 194.005C160.597 194.005 160.817 194.02 161.037 194.05C161.257 194.07 161.462 194.1 161.652 194.14C161.842 194.17 162.007 194.205 162.147 194.245C162.297 194.285 162.412 194.32 162.492 194.35L162.237 195.55C162.087 195.47 161.852 195.39 161.532 195.31C161.212 195.22 160.827 195.175 160.377 195.175C159.987 195.175 159.647 195.255 159.357 195.415C159.067 195.565 158.922 195.805 158.922 196.135C158.922 196.305 158.952 196.455 159.012 196.585C159.082 196.715 159.182 196.835 159.312 196.945C159.452 197.045 159.622 197.14 159.822 197.23C160.022 197.32 160.262 197.415 160.542 197.515C160.912 197.655 161.242 197.795 161.532 197.935C161.822 198.065 162.067 198.22 162.267 198.4C162.477 198.58 162.637 198.8 162.747 199.06C162.857 199.31 162.912 199.62 162.912 199.99C162.912 200.71 162.642 201.255 162.102 201.625C161.572 201.995 160.812 202.18 159.822 202.18C159.132 202.18 158.592 202.12 158.202 202C157.812 201.89 157.547 201.805 157.407 201.745L157.662 200.545C157.822 200.605 158.077 200.695 158.427 200.815C158.777 200.935 159.242 200.995 159.822 200.995ZM166.006 194.2H168.961V195.37H166.006V198.97C166.006 199.36 166.036 199.685 166.096 199.945C166.156 200.195 166.246 200.395 166.366 200.545C166.486 200.685 166.636 200.785 166.816 200.845C166.996 200.905 167.206 200.935 167.446 200.935C167.866 200.935 168.201 200.89 168.451 200.8C168.711 200.7 168.891 200.63 168.991 200.59L169.261 201.745C169.121 201.815 168.876 201.9 168.526 202C168.176 202.11 167.776 202.165 167.326 202.165C166.796 202.165 166.356 202.1 166.006 201.97C165.666 201.83 165.391 201.625 165.181 201.355C164.971 201.085 164.821 200.755 164.731 200.365C164.651 199.965 164.611 199.505 164.611 198.985V192.025L166.006 191.785V194.2ZM174.208 202V190.6L175.603 190.36V194.35C175.863 194.25 176.138 194.175 176.428 194.125C176.728 194.065 177.023 194.035 177.313 194.035C177.933 194.035 178.448 194.125 178.858 194.305C179.268 194.475 179.593 194.72 179.833 195.04C180.083 195.35 180.258 195.725 180.358 196.165C180.458 196.605 180.508 197.09 180.508 197.62V202H179.113V197.92C179.113 197.44 179.078 197.03 179.008 196.69C178.948 196.35 178.843 196.075 178.693 195.865C178.543 195.655 178.343 195.505 178.093 195.415C177.843 195.315 177.533 195.265 177.163 195.265C177.013 195.265 176.858 195.275 176.698 195.295C176.538 195.315 176.383 195.34 176.233 195.37C176.093 195.39 175.963 195.415 175.843 195.445C175.733 195.475 175.653 195.5 175.603 195.52V202H174.208ZM184.172 202H182.777V194.2H184.172V202ZM183.467 192.79C183.217 192.79 183.002 192.71 182.822 192.55C182.652 192.38 182.567 192.155 182.567 191.875C182.567 191.595 182.652 191.375 182.822 191.215C183.002 191.045 183.217 190.96 183.467 190.96C183.717 190.96 183.927 191.045 184.097 191.215C184.277 191.375 184.367 191.595 184.367 191.875C184.367 192.155 184.277 192.38 184.097 192.55C183.927 192.71 183.717 192.79 183.467 192.79ZM191.461 201.22C191.341 201.3 191.106 201.405 190.756 201.535C190.416 201.655 190.016 201.715 189.556 201.715C189.086 201.715 188.641 201.64 188.221 201.49C187.811 201.34 187.451 201.11 187.141 200.8C186.831 200.48 186.586 200.085 186.406 199.615C186.226 199.145 186.136 198.585 186.136 197.935C186.136 197.365 186.221 196.845 186.391 196.375C186.561 195.895 186.806 195.485 187.126 195.145C187.456 194.795 187.856 194.525 188.326 194.335C188.796 194.135 189.326 194.035 189.916 194.035C190.566 194.035 191.131 194.085 191.611 194.185C192.101 194.275 192.511 194.36 192.841 194.44V201.4C192.841 202.6 192.531 203.47 191.911 204.01C191.291 204.55 190.351 204.82 189.091 204.82C188.601 204.82 188.136 204.78 187.696 204.7C187.266 204.62 186.891 204.525 186.571 204.415L186.826 203.2C187.106 203.31 187.446 203.405 187.846 203.485C188.256 203.575 188.681 203.62 189.121 203.62C189.951 203.62 190.546 203.455 190.906 203.125C191.276 202.795 191.461 202.27 191.461 201.55V201.22ZM191.446 195.43C191.306 195.39 191.116 195.355 190.876 195.325C190.646 195.285 190.331 195.265 189.931 195.265C189.181 195.265 188.601 195.51 188.191 196C187.791 196.49 187.591 197.14 187.591 197.95C187.591 198.4 187.646 198.785 187.756 199.105C187.876 199.425 188.031 199.69 188.221 199.9C188.421 200.11 188.646 200.265 188.896 200.365C189.156 200.465 189.421 200.515 189.691 200.515C190.061 200.515 190.401 200.465 190.711 200.365C191.021 200.255 191.266 200.13 191.446 199.99V195.43ZM195.243 202V190.6L196.638 190.36V194.35C196.898 194.25 197.173 194.175 197.463 194.125C197.763 194.065 198.058 194.035 198.348 194.035C198.968 194.035 199.483 194.125 199.893 194.305C200.303 194.475 200.628 194.72 200.868 195.04C201.118 195.35 201.293 195.725 201.393 196.165C201.493 196.605 201.543 197.09 201.543 197.62V202H200.148V197.92C200.148 197.44 200.113 197.03 200.043 196.69C199.983 196.35 199.878 196.075 199.728 195.865C199.578 195.655 199.378 195.505 199.128 195.415C198.878 195.315 198.568 195.265 198.198 195.265C198.048 195.265 197.893 195.275 197.733 195.295C197.573 195.315 197.418 195.34 197.268 195.37C197.128 195.39 196.998 195.415 196.878 195.445C196.768 195.475 196.688 195.5 196.638 195.52V202H195.243ZM43.54 229.15C42.68 229.13 42.07 228.945 41.71 228.595C41.35 228.245 41.17 227.7 41.17 226.96V217.6L42.565 217.36V226.735C42.565 226.965 42.585 227.155 42.625 227.305C42.665 227.455 42.73 227.575 42.82 227.665C42.91 227.755 43.03 227.825 43.18 227.875C43.33 227.915 43.515 227.95 43.735 227.98L43.54 229.15ZM44.8666 225.115C44.8666 224.425 44.9666 223.825 45.1666 223.315C45.3666 222.795 45.6316 222.365 45.9616 222.025C46.2916 221.685 46.6716 221.43 47.1016 221.26C47.5316 221.09 47.9716 221.005 48.4216 221.005C49.4716 221.005 50.2766 221.335 50.8366 221.995C51.3966 222.645 51.6766 223.64 51.6766 224.98C51.6766 225.04 51.6766 225.12 51.6766 225.22C51.6766 225.31 51.6716 225.395 51.6616 225.475H46.3216C46.3816 226.285 46.6166 226.9 47.0266 227.32C47.4366 227.74 48.0766 227.95 48.9466 227.95C49.4366 227.95 49.8466 227.91 50.1766 227.83C50.5166 227.74 50.7716 227.655 50.9416 227.575L51.1366 228.745C50.9666 228.835 50.6666 228.93 50.2366 229.03C49.8166 229.13 49.3366 229.18 48.7966 229.18C48.1166 229.18 47.5266 229.08 47.0266 228.88C46.5366 228.67 46.1316 228.385 45.8116 228.025C45.4916 227.665 45.2516 227.24 45.0916 226.75C44.9416 226.25 44.8666 225.705 44.8666 225.115ZM50.2216 224.35C50.2316 223.72 50.0716 223.205 49.7416 222.805C49.4216 222.395 48.9766 222.19 48.4066 222.19C48.0866 222.19 47.8016 222.255 47.5516 222.385C47.3116 222.505 47.1066 222.665 46.9366 222.865C46.7666 223.065 46.6316 223.295 46.5316 223.555C46.4416 223.815 46.3816 224.08 46.3516 224.35H50.2216ZM59.7705 221.2C59.3805 222.66 58.9205 224.06 58.3905 225.4C57.8705 226.74 57.3655 227.94 56.8755 229H55.6155C55.1255 227.94 54.6155 226.74 54.0855 225.4C53.5655 224.06 53.1105 222.66 52.7205 221.2H54.2205C54.3405 221.69 54.4805 222.215 54.6405 222.775C54.8105 223.325 54.9855 223.875 55.1655 224.425C55.3555 224.965 55.5455 225.49 55.7355 226C55.9255 226.51 56.1055 226.965 56.2755 227.365C56.4455 226.965 56.6255 226.51 56.8155 226C57.0055 225.49 57.1905 224.965 57.3705 224.425C57.5605 223.875 57.7355 223.325 57.8955 222.775C58.0655 222.215 58.2105 221.69 58.3305 221.2H59.7705ZM60.5697 225.115C60.5697 224.425 60.6697 223.825 60.8697 223.315C61.0697 222.795 61.3347 222.365 61.6647 222.025C61.9947 221.685 62.3747 221.43 62.8047 221.26C63.2347 221.09 63.6747 221.005 64.1247 221.005C65.1747 221.005 65.9797 221.335 66.5397 221.995C67.0997 222.645 67.3797 223.64 67.3797 224.98C67.3797 225.04 67.3797 225.12 67.3797 225.22C67.3797 225.31 67.3747 225.395 67.3647 225.475H62.0247C62.0847 226.285 62.3197 226.9 62.7297 227.32C63.1397 227.74 63.7797 227.95 64.6497 227.95C65.1397 227.95 65.5497 227.91 65.8797 227.83C66.2197 227.74 66.4747 227.655 66.6447 227.575L66.8397 228.745C66.6697 228.835 66.3697 228.93 65.9397 229.03C65.5197 229.13 65.0397 229.18 64.4997 229.18C63.8197 229.18 63.2297 229.08 62.7297 228.88C62.2397 228.67 61.8347 228.385 61.5147 228.025C61.1947 227.665 60.9547 227.24 60.7947 226.75C60.6447 226.25 60.5697 225.705 60.5697 225.115ZM65.9247 224.35C65.9347 223.72 65.7747 223.205 65.4447 222.805C65.1247 222.395 64.6797 222.19 64.1097 222.19C63.7897 222.19 63.5047 222.255 63.2547 222.385C63.0147 222.505 62.8097 222.665 62.6397 222.865C62.4697 223.065 62.3347 223.295 62.2347 223.555C62.1447 223.815 62.0847 224.08 62.0547 224.35H65.9247ZM71.7236 229.15C70.8636 229.13 70.2536 228.945 69.8936 228.595C69.5336 228.245 69.3536 227.7 69.3536 226.96V217.6L70.7486 217.36V226.735C70.7486 226.965 70.7686 227.155 70.8086 227.305C70.8486 227.455 70.9136 227.575 71.0036 227.665C71.0936 227.755 71.2136 227.825 71.3636 227.875C71.5136 227.915 71.6986 227.95 71.9186 227.98L71.7236 229.15ZM78.7718 227.995C79.3418 227.995 79.7618 227.92 80.0318 227.77C80.3118 227.62 80.4518 227.38 80.4518 227.05C80.4518 226.71 80.3168 226.44 80.0468 226.24C79.7768 226.04 79.3318 225.815 78.7118 225.565C78.4118 225.445 78.1218 225.325 77.8418 225.205C77.5718 225.075 77.3368 224.925 77.1368 224.755C76.9368 224.585 76.7768 224.38 76.6568 224.14C76.5368 223.9 76.4768 223.605 76.4768 223.255C76.4768 222.565 76.7318 222.02 77.2418 221.62C77.7518 221.21 78.4468 221.005 79.3268 221.005C79.5468 221.005 79.7668 221.02 79.9868 221.05C80.2068 221.07 80.4118 221.1 80.6018 221.14C80.7918 221.17 80.9568 221.205 81.0968 221.245C81.2468 221.285 81.3618 221.32 81.4418 221.35L81.1868 222.55C81.0368 222.47 80.8018 222.39 80.4818 222.31C80.1618 222.22 79.7768 222.175 79.3268 222.175C78.9368 222.175 78.5968 222.255 78.3068 222.415C78.0168 222.565 77.8718 222.805 77.8718 223.135C77.8718 223.305 77.9018 223.455 77.9618 223.585C78.0318 223.715 78.1318 223.835 78.2618 223.945C78.4018 224.045 78.5718 224.14 78.7718 224.23C78.9718 224.32 79.2118 224.415 79.4918 224.515C79.8618 224.655 80.1918 224.795 80.4818 224.935C80.7718 225.065 81.0168 225.22 81.2168 225.4C81.4268 225.58 81.5868 225.8 81.6968 226.06C81.8068 226.31 81.8618 226.62 81.8618 226.99C81.8618 227.71 81.5918 228.255 81.0518 228.625C80.5218 228.995 79.7618 229.18 78.7718 229.18C78.0818 229.18 77.5418 229.12 77.1518 229C76.7618 228.89 76.4968 228.805 76.3568 228.745L76.6118 227.545C76.7718 227.605 77.0268 227.695 77.3768 227.815C77.7268 227.935 78.1918 227.995 78.7718 227.995ZM82.7362 230.455C82.8462 230.505 82.9862 230.55 83.1562 230.59C83.3362 230.64 83.5112 230.665 83.6812 230.665C84.2312 230.665 84.6612 230.54 84.9712 230.29C85.2812 230.05 85.5612 229.655 85.8112 229.105C85.1812 227.905 84.5912 226.635 84.0412 225.295C83.5012 223.945 83.0512 222.58 82.6912 221.2H84.1912C84.3012 221.65 84.4312 222.135 84.5812 222.655C84.7412 223.175 84.9162 223.71 85.1062 224.26C85.2962 224.81 85.5012 225.36 85.7212 225.91C85.9412 226.46 86.1712 226.99 86.4112 227.5C86.7912 226.45 87.1212 225.41 87.4012 224.38C87.6812 223.35 87.9462 222.29 88.1962 221.2H89.6362C89.2762 222.67 88.8762 224.085 88.4362 225.445C87.9962 226.795 87.5212 228.06 87.0112 229.24C86.8112 229.69 86.6012 230.075 86.3812 230.395C86.1712 230.725 85.9362 230.995 85.6762 231.205C85.4162 231.415 85.1212 231.57 84.7912 231.67C84.4712 231.77 84.1062 231.82 83.6962 231.82C83.5862 231.82 83.4712 231.81 83.3512 231.79C83.2312 231.78 83.1112 231.76 82.9912 231.73C82.8812 231.71 82.7762 231.685 82.6762 231.655C82.5862 231.625 82.5212 231.6 82.4812 231.58L82.7362 230.455ZM91.1072 221.425C91.4272 221.345 91.8522 221.26 92.3822 221.17C92.9122 221.08 93.5222 221.035 94.2122 221.035C94.8322 221.035 95.3472 221.125 95.7572 221.305C96.1672 221.475 96.4922 221.72 96.7322 222.04C96.9822 222.35 97.1572 222.725 97.2572 223.165C97.3572 223.605 97.4072 224.09 97.4072 224.62V229H96.0122V224.92C96.0122 224.44 95.9772 224.03 95.9072 223.69C95.8472 223.35 95.7422 223.075 95.5922 222.865C95.4422 222.655 95.2422 222.505 94.9922 222.415C94.7422 222.315 94.4322 222.265 94.0622 222.265C93.9122 222.265 93.7572 222.27 93.5972 222.28C93.4372 222.29 93.2822 222.305 93.1322 222.325C92.9922 222.335 92.8622 222.35 92.7422 222.37C92.6322 222.39 92.5522 222.405 92.5022 222.415V229H91.1072V221.425ZM106.606 225.1C106.606 225.72 106.516 226.28 106.336 226.78C106.156 227.28 105.901 227.71 105.571 228.07C105.251 228.43 104.866 228.71 104.416 228.91C103.966 229.1 103.476 229.195 102.946 229.195C102.416 229.195 101.926 229.1 101.476 228.91C101.026 228.71 100.636 228.43 100.306 228.07C99.9855 227.71 99.7355 227.28 99.5555 226.78C99.3755 226.28 99.2855 225.72 99.2855 225.1C99.2855 224.49 99.3755 223.935 99.5555 223.435C99.7355 222.925 99.9855 222.49 100.306 222.13C100.636 221.77 101.026 221.495 101.476 221.305C101.926 221.105 102.416 221.005 102.946 221.005C103.476 221.005 103.966 221.105 104.416 221.305C104.866 221.495 105.251 221.77 105.571 222.13C105.901 222.49 106.156 222.925 106.336 223.435C106.516 223.935 106.606 224.49 106.606 225.1ZM105.151 225.1C105.151 224.22 104.951 223.525 104.551 223.015C104.161 222.495 103.626 222.235 102.946 222.235C102.266 222.235 101.726 222.495 101.326 223.015C100.936 223.525 100.741 224.22 100.741 225.1C100.741 225.98 100.936 226.68 101.326 227.2C101.726 227.71 102.266 227.965 102.946 227.965C103.626 227.965 104.161 227.71 104.551 227.2C104.951 226.68 105.151 225.98 105.151 225.1ZM113.983 225.115C113.983 224.205 113.758 223.505 113.308 223.015C112.858 222.525 112.258 222.28 111.508 222.28C111.088 222.28 110.758 222.295 110.518 222.325C110.288 222.355 110.103 222.39 109.963 222.43V227.35C110.133 227.49 110.378 227.625 110.698 227.755C111.018 227.885 111.368 227.95 111.748 227.95C112.148 227.95 112.488 227.88 112.768 227.74C113.058 227.59 113.293 227.39 113.473 227.14C113.653 226.88 113.783 226.58 113.863 226.24C113.943 225.89 113.983 225.515 113.983 225.115ZM115.438 225.115C115.438 225.705 115.358 226.25 115.198 226.75C115.048 227.25 114.823 227.68 114.523 228.04C114.223 228.4 113.853 228.68 113.413 228.88C112.983 229.08 112.488 229.18 111.928 229.18C111.478 229.18 111.078 229.12 110.728 229C110.388 228.88 110.133 228.765 109.963 228.655V231.775H108.568V221.44C108.898 221.36 109.308 221.275 109.798 221.185C110.298 221.085 110.873 221.035 111.523 221.035C112.123 221.035 112.663 221.13 113.143 221.32C113.623 221.51 114.033 221.78 114.373 222.13C114.713 222.48 114.973 222.91 115.153 223.42C115.343 223.92 115.438 224.485 115.438 225.115ZM119.216 227.995C119.786 227.995 120.206 227.92 120.476 227.77C120.756 227.62 120.896 227.38 120.896 227.05C120.896 226.71 120.761 226.44 120.491 226.24C120.221 226.04 119.776 225.815 119.156 225.565C118.856 225.445 118.566 225.325 118.286 225.205C118.016 225.075 117.781 224.925 117.581 224.755C117.381 224.585 117.221 224.38 117.101 224.14C116.981 223.9 116.921 223.605 116.921 223.255C116.921 222.565 117.176 222.02 117.686 221.62C118.196 221.21 118.891 221.005 119.771 221.005C119.991 221.005 120.211 221.02 120.431 221.05C120.651 221.07 120.856 221.1 121.046 221.14C121.236 221.17 121.401 221.205 121.541 221.245C121.691 221.285 121.806 221.32 121.886 221.35L121.631 222.55C121.481 222.47 121.246 222.39 120.926 222.31C120.606 222.22 120.221 222.175 119.771 222.175C119.381 222.175 119.041 222.255 118.751 222.415C118.461 222.565 118.316 222.805 118.316 223.135C118.316 223.305 118.346 223.455 118.406 223.585C118.476 223.715 118.576 223.835 118.706 223.945C118.846 224.045 119.016 224.14 119.216 224.23C119.416 224.32 119.656 224.415 119.936 224.515C120.306 224.655 120.636 224.795 120.926 224.935C121.216 225.065 121.461 225.22 121.661 225.4C121.871 225.58 122.031 225.8 122.141 226.06C122.251 226.31 122.306 226.62 122.306 226.99C122.306 227.71 122.036 228.255 121.496 228.625C120.966 228.995 120.206 229.18 119.216 229.18C118.526 229.18 117.986 229.12 117.596 229C117.206 228.89 116.941 228.805 116.801 228.745L117.056 227.545C117.216 227.605 117.471 227.695 117.821 227.815C118.171 227.935 118.636 227.995 119.216 227.995ZM123.181 230.455C123.291 230.505 123.431 230.55 123.601 230.59C123.781 230.64 123.956 230.665 124.126 230.665C124.676 230.665 125.106 230.54 125.416 230.29C125.726 230.05 126.006 229.655 126.256 229.105C125.626 227.905 125.036 226.635 124.486 225.295C123.946 223.945 123.496 222.58 123.136 221.2H124.636C124.746 221.65 124.876 222.135 125.026 222.655C125.186 223.175 125.361 223.71 125.551 224.26C125.741 224.81 125.946 225.36 126.166 225.91C126.386 226.46 126.616 226.99 126.856 227.5C127.236 226.45 127.566 225.41 127.846 224.38C128.126 223.35 128.391 222.29 128.641 221.2H130.081C129.721 222.67 129.321 224.085 128.881 225.445C128.441 226.795 127.966 228.06 127.456 229.24C127.256 229.69 127.046 230.075 126.826 230.395C126.616 230.725 126.381 230.995 126.121 231.205C125.861 231.415 125.566 231.57 125.236 231.67C124.916 231.77 124.551 231.82 124.141 231.82C124.031 231.82 123.916 231.81 123.796 231.79C123.676 231.78 123.556 231.76 123.436 231.73C123.326 231.71 123.221 231.685 123.121 231.655C123.031 231.625 122.966 231.6 122.926 231.58L123.181 230.455ZM133.367 227.995C133.937 227.995 134.357 227.92 134.627 227.77C134.907 227.62 135.047 227.38 135.047 227.05C135.047 226.71 134.912 226.44 134.642 226.24C134.372 226.04 133.927 225.815 133.307 225.565C133.007 225.445 132.717 225.325 132.437 225.205C132.167 225.075 131.932 224.925 131.732 224.755C131.532 224.585 131.372 224.38 131.252 224.14C131.132 223.9 131.072 223.605 131.072 223.255C131.072 222.565 131.327 222.02 131.837 221.62C132.347 221.21 133.042 221.005 133.922 221.005C134.142 221.005 134.362 221.02 134.582 221.05C134.802 221.07 135.007 221.1 135.197 221.14C135.387 221.17 135.552 221.205 135.692 221.245C135.842 221.285 135.957 221.32 136.037 221.35L135.782 222.55C135.632 222.47 135.397 222.39 135.077 222.31C134.757 222.22 134.372 222.175 133.922 222.175C133.532 222.175 133.192 222.255 132.902 222.415C132.612 222.565 132.467 222.805 132.467 223.135C132.467 223.305 132.497 223.455 132.557 223.585C132.627 223.715 132.727 223.835 132.857 223.945C132.997 224.045 133.167 224.14 133.367 224.23C133.567 224.32 133.807 224.415 134.087 224.515C134.457 224.655 134.787 224.795 135.077 224.935C135.367 225.065 135.612 225.22 135.812 225.4C136.022 225.58 136.182 225.8 136.292 226.06C136.402 226.31 136.457 226.62 136.457 226.99C136.457 227.71 136.187 228.255 135.647 228.625C135.117 228.995 134.357 229.18 133.367 229.18C132.677 229.18 132.137 229.12 131.747 229C131.357 228.89 131.092 228.805 130.952 228.745L131.207 227.545C131.367 227.605 131.622 227.695 131.972 227.815C132.322 227.935 132.787 227.995 133.367 227.995ZM148.603 225.1C148.603 225.72 148.513 226.28 148.333 226.78C148.153 227.28 147.898 227.71 147.568 228.07C147.248 228.43 146.863 228.71 146.413 228.91C145.963 229.1 145.473 229.195 144.943 229.195C144.413 229.195 143.923 229.1 143.473 228.91C143.023 228.71 142.633 228.43 142.303 228.07C141.983 227.71 141.733 227.28 141.553 226.78C141.373 226.28 141.283 225.72 141.283 225.1C141.283 224.49 141.373 223.935 141.553 223.435C141.733 222.925 141.983 222.49 142.303 222.13C142.633 221.77 143.023 221.495 143.473 221.305C143.923 221.105 144.413 221.005 144.943 221.005C145.473 221.005 145.963 221.105 146.413 221.305C146.863 221.495 147.248 221.77 147.568 222.13C147.898 222.49 148.153 222.925 148.333 223.435C148.513 223.935 148.603 224.49 148.603 225.1ZM147.148 225.1C147.148 224.22 146.948 223.525 146.548 223.015C146.158 222.495 145.623 222.235 144.943 222.235C144.263 222.235 143.723 222.495 143.323 223.015C142.933 223.525 142.738 224.22 142.738 225.1C142.738 225.98 142.933 226.68 143.323 227.2C143.723 227.71 144.263 227.965 144.943 227.965C145.623 227.965 146.158 227.71 146.548 227.2C146.948 226.68 147.148 225.98 147.148 225.1ZM156.45 221.2C156.06 222.66 155.6 224.06 155.07 225.4C154.55 226.74 154.045 227.94 153.555 229H152.295C151.805 227.94 151.295 226.74 150.765 225.4C150.245 224.06 149.79 222.66 149.4 221.2H150.9C151.02 221.69 151.16 222.215 151.32 222.775C151.49 223.325 151.665 223.875 151.845 224.425C152.035 224.965 152.225 225.49 152.415 226C152.605 226.51 152.785 226.965 152.955 227.365C153.125 226.965 153.305 226.51 153.495 226C153.685 225.49 153.87 224.965 154.05 224.425C154.24 223.875 154.415 223.325 154.575 222.775C154.745 222.215 154.89 221.69 155.01 221.2H156.45ZM157.249 225.115C157.249 224.425 157.349 223.825 157.549 223.315C157.749 222.795 158.014 222.365 158.344 222.025C158.674 221.685 159.054 221.43 159.484 221.26C159.914 221.09 160.354 221.005 160.804 221.005C161.854 221.005 162.659 221.335 163.219 221.995C163.779 222.645 164.059 223.64 164.059 224.98C164.059 225.04 164.059 225.12 164.059 225.22C164.059 225.31 164.054 225.395 164.044 225.475H158.704C158.764 226.285 158.999 226.9 159.409 227.32C159.819 227.74 160.459 227.95 161.329 227.95C161.819 227.95 162.229 227.91 162.559 227.83C162.899 227.74 163.154 227.655 163.324 227.575L163.519 228.745C163.349 228.835 163.049 228.93 162.619 229.03C162.199 229.13 161.719 229.18 161.179 229.18C160.499 229.18 159.909 229.08 159.409 228.88C158.919 228.67 158.514 228.385 158.194 228.025C157.874 227.665 157.634 227.24 157.474 226.75C157.324 226.25 157.249 225.705 157.249 225.115ZM162.604 224.35C162.614 223.72 162.454 223.205 162.124 222.805C161.804 222.395 161.359 222.19 160.789 222.19C160.469 222.19 160.184 222.255 159.934 222.385C159.694 222.505 159.489 222.665 159.319 222.865C159.149 223.065 159.014 223.295 158.914 223.555C158.824 223.815 158.764 224.08 158.734 224.35H162.604ZM168.943 221.035C169.063 221.035 169.198 221.045 169.348 221.065C169.508 221.075 169.663 221.095 169.813 221.125C169.963 221.145 170.098 221.17 170.218 221.2C170.348 221.22 170.443 221.24 170.503 221.26L170.263 222.475C170.153 222.435 169.968 222.39 169.708 222.34C169.458 222.28 169.133 222.25 168.733 222.25C168.473 222.25 168.213 222.28 167.953 222.34C167.703 222.39 167.538 222.425 167.458 222.445V229H166.063V221.53C166.393 221.41 166.803 221.3 167.293 221.2C167.783 221.09 168.333 221.035 168.943 221.035ZM178.262 221.2C177.872 222.66 177.412 224.06 176.882 225.4C176.362 226.74 175.857 227.94 175.367 229H174.107C173.617 227.94 173.107 226.74 172.577 225.4C172.057 224.06 171.602 222.66 171.212 221.2H172.712C172.832 221.69 172.972 222.215 173.132 222.775C173.302 223.325 173.477 223.875 173.657 224.425C173.847 224.965 174.037 225.49 174.227 226C174.417 226.51 174.597 226.965 174.767 227.365C174.937 226.965 175.117 226.51 175.307 226C175.497 225.49 175.682 224.965 175.862 224.425C176.052 223.875 176.227 223.325 176.387 222.775C176.557 222.215 176.702 221.69 176.822 221.2H178.262ZM181.096 229H179.701V221.2H181.096V229ZM180.391 219.79C180.141 219.79 179.926 219.71 179.746 219.55C179.576 219.38 179.491 219.155 179.491 218.875C179.491 218.595 179.576 218.375 179.746 218.215C179.926 218.045 180.141 217.96 180.391 217.96C180.641 217.96 180.851 218.045 181.021 218.215C181.201 218.375 181.291 218.595 181.291 218.875C181.291 219.155 181.201 219.38 181.021 219.55C180.851 219.71 180.641 219.79 180.391 219.79ZM183.06 225.115C183.06 224.425 183.16 223.825 183.36 223.315C183.56 222.795 183.825 222.365 184.155 222.025C184.485 221.685 184.865 221.43 185.295 221.26C185.725 221.09 186.165 221.005 186.615 221.005C187.665 221.005 188.47 221.335 189.03 221.995C189.59 222.645 189.87 223.64 189.87 224.98C189.87 225.04 189.87 225.12 189.87 225.22C189.87 225.31 189.865 225.395 189.855 225.475H184.515C184.575 226.285 184.81 226.9 185.22 227.32C185.63 227.74 186.27 227.95 187.14 227.95C187.63 227.95 188.04 227.91 188.37 227.83C188.71 227.74 188.965 227.655 189.135 227.575L189.33 228.745C189.16 228.835 188.86 228.93 188.43 229.03C188.01 229.13 187.53 229.18 186.99 229.18C186.31 229.18 185.72 229.08 185.22 228.88C184.73 228.67 184.325 228.385 184.005 228.025C183.685 227.665 183.445 227.24 183.285 226.75C183.135 226.25 183.06 225.705 183.06 225.115ZM188.415 224.35C188.425 223.72 188.265 223.205 187.935 222.805C187.615 222.395 187.17 222.19 186.6 222.19C186.28 222.19 185.995 222.255 185.745 222.385C185.505 222.505 185.3 222.665 185.13 222.865C184.96 223.065 184.825 223.295 184.725 223.555C184.635 223.815 184.575 224.08 184.545 224.35H188.415ZM198.249 229C197.969 228.28 197.669 227.46 197.349 226.54C197.039 225.61 196.754 224.645 196.494 223.645C196.234 224.645 195.949 225.61 195.639 226.54C195.329 227.46 195.034 228.28 194.754 229H193.539C193.079 227.97 192.629 226.795 192.189 225.475C191.749 224.155 191.334 222.73 190.944 221.2H192.444C192.544 221.67 192.664 222.18 192.804 222.73C192.944 223.28 193.089 223.83 193.239 224.38C193.399 224.93 193.564 225.46 193.734 225.97C193.904 226.48 194.064 226.925 194.214 227.305C194.384 226.835 194.549 226.34 194.709 225.82C194.879 225.29 195.039 224.76 195.189 224.23C195.339 223.69 195.479 223.165 195.609 222.655C195.749 222.135 195.869 221.65 195.969 221.2H197.124C197.214 221.65 197.324 222.135 197.454 222.655C197.584 223.165 197.724 223.69 197.874 224.23C198.024 224.76 198.179 225.29 198.339 225.82C198.509 226.34 198.679 226.835 198.849 227.305C198.999 226.925 199.154 226.48 199.314 225.97C199.484 225.46 199.649 224.93 199.809 224.38C199.969 223.83 200.119 223.28 200.259 222.73C200.399 222.18 200.519 221.67 200.619 221.2H202.059C201.669 222.73 201.254 224.155 200.814 225.475C200.374 226.795 199.924 227.97 199.464 229H198.249ZM205.349 227.995C205.919 227.995 206.339 227.92 206.609 227.77C206.889 227.62 207.029 227.38 207.029 227.05C207.029 226.71 206.894 226.44 206.624 226.24C206.354 226.04 205.909 225.815 205.289 225.565C204.989 225.445 204.699 225.325 204.419 225.205C204.149 225.075 203.914 224.925 203.714 224.755C203.514 224.585 203.354 224.38 203.234 224.14C203.114 223.9 203.054 223.605 203.054 223.255C203.054 222.565 203.309 222.02 203.819 221.62C204.329 221.21 205.024 221.005 205.904 221.005C206.124 221.005 206.344 221.02 206.564 221.05C206.784 221.07 206.989 221.1 207.179 221.14C207.369 221.17 207.534 221.205 207.674 221.245C207.824 221.285 207.939 221.32 208.019 221.35L207.764 222.55C207.614 222.47 207.379 222.39 207.059 222.31C206.739 222.22 206.354 222.175 205.904 222.175C205.514 222.175 205.174 222.255 204.884 222.415C204.594 222.565 204.449 222.805 204.449 223.135C204.449 223.305 204.479 223.455 204.539 223.585C204.609 223.715 204.709 223.835 204.839 223.945C204.979 224.045 205.149 224.14 205.349 224.23C205.549 224.32 205.789 224.415 206.069 224.515C206.439 224.655 206.769 224.795 207.059 224.935C207.349 225.065 207.594 225.22 207.794 225.4C208.004 225.58 208.164 225.8 208.274 226.06C208.384 226.31 208.439 226.62 208.439 226.99C208.439 227.71 208.169 228.255 207.629 228.625C207.099 228.995 206.339 229.18 205.349 229.18C204.659 229.18 204.119 229.12 203.729 229C203.339 228.89 203.074 228.805 202.934 228.745L203.189 227.545C203.349 227.605 203.604 227.695 203.954 227.815C204.304 227.935 204.769 227.995 205.349 227.995Z" fill="#747582"/>
<path opacity="0.4" d="M75.6166 68.9833V78.9666C75.6166 83.5666 71.8833 87.2999 67.2833 87.2999H52.7166C48.1166 87.2999 44.3833 83.5666 44.3833 78.9666V69.0999C45.65 70.4666 47.45 71.2499 49.4 71.2499C51.5 71.2499 53.5166 70.1999 54.7833 68.5166C55.9166 70.1999 57.85 71.2499 60 71.2499C62.1333 71.2499 64.0333 70.2499 65.1833 68.5833C66.4666 70.2333 68.45 71.2499 70.5166 71.2499C72.5333 71.2499 74.3666 70.4333 75.6166 68.9833Z" fill="#593FFB"/>
<path d="M64.9832 52.0833H54.9832L53.7499 64.3499C53.6499 65.4833 53.8166 66.5499 54.2332 67.5166C55.1999 69.7833 57.4666 71.2499 59.9999 71.2499C62.5666 71.2499 64.7833 69.8166 65.7833 67.5333C66.0833 66.8166 66.2666 65.9833 66.2833 65.1333V64.8166L64.9832 52.0833Z" fill="#593FFB"/>
<path opacity="0.6" d="M77.2666 63.7833L76.7833 59.1666C76.0833 54.1333 73.7999 52.0833 68.9166 52.0833H62.5166L63.7499 64.5833C63.7666 64.7499 63.7833 64.9333 63.7833 65.2499C63.8833 66.1166 64.1499 66.9166 64.5499 67.6333C65.7499 69.8333 68.0833 71.2499 70.5166 71.2499C72.7333 71.2499 74.7333 70.2666 75.9833 68.5333C76.9833 67.1999 77.4333 65.5166 77.2666 63.7833Z" fill="#593FFB"/>
<path opacity="0.6" d="M50.9832 52.0833C46.0832 52.0833 43.8166 54.1333 43.0999 59.2166L42.6499 63.7999C42.4832 65.5833 42.9666 67.3166 44.0166 68.6666C45.2832 70.3166 47.2332 71.2499 49.3999 71.2499C51.8332 71.2499 54.1666 69.8333 55.3499 67.6666C55.7832 66.9166 56.0666 66.0499 56.1499 65.1499L57.4499 52.0999H50.9832V52.0833Z" fill="#593FFB"/>
<path d="M58.9166 77.7667C56.8 77.9834 55.2 79.7834 55.2 81.9167V87.3001H64.7833V82.5001C64.7999 79.0167 62.7499 77.3667 58.9166 77.7667Z" fill="#593FFB"/>
</svg>
