<svg width="646" height="160" viewBox="0 0 646 160" fill="none" xmlns="http://www.w3.org/2000/svg">
<path d="M16.414 21.342C22.446 21.342 27.0667 22.4247 30.276 24.59C33.4853 26.7167 35.09 30.042 35.09 34.566C35.09 37.3887 34.4327 39.6893 33.118 41.468C31.842 43.208 29.986 44.5807 27.55 45.586C28.362 46.5913 29.2127 47.7513 30.102 49.066C30.9913 50.342 31.8613 51.6953 32.712 53.126C33.6013 54.518 34.452 55.9873 35.264 57.534C36.076 59.042 36.83 60.5307 37.526 62H27.376C26.6413 60.6853 25.8873 59.3513 25.114 57.998C24.3793 56.6447 23.606 55.33 22.794 54.054C22.0207 52.778 21.2473 51.5793 20.474 50.458C19.7007 49.298 18.9273 48.254 18.154 47.326H13.688V62H4.64V22.386C6.612 21.9993 8.642 21.7287 10.73 21.574C12.8567 21.4193 14.7513 21.342 16.414 21.342ZM16.936 29.056C16.2787 29.056 15.6793 29.0753 15.138 29.114C14.6353 29.1527 14.152 29.1913 13.688 29.23V40.134H16.24C19.6427 40.134 22.0787 39.7087 23.548 38.858C25.0173 38.0073 25.752 36.5573 25.752 34.508C25.752 32.536 24.998 31.144 23.49 30.332C22.0207 29.4813 19.836 29.056 16.936 29.056ZM40.9829 46.978C40.9829 44.2713 41.3889 41.9127 42.2009 39.902C43.0516 37.8527 44.1536 36.1513 45.5069 34.798C46.8602 33.4447 48.4069 32.42 50.1469 31.724C51.9256 31.028 53.7429 30.68 55.5989 30.68C59.9296 30.68 63.3516 32.014 65.8649 34.682C68.3782 37.3113 69.6349 41.1973 69.6349 46.34C69.6349 46.8427 69.6156 47.4033 69.5769 48.022C69.5382 48.602 69.4996 49.124 69.4609 49.588H49.8569C50.0502 51.3667 50.8816 52.778 52.3509 53.822C53.8202 54.866 55.7922 55.388 58.2669 55.388C59.8522 55.388 61.3989 55.2527 62.9069 54.982C64.4536 54.6727 65.7102 54.3053 66.6769 53.88L67.8369 60.898C67.3729 61.13 66.7542 61.362 65.9809 61.594C65.2076 61.826 64.3376 62.0193 63.3709 62.174C62.4429 62.3673 61.4376 62.522 60.3549 62.638C59.2722 62.754 58.1896 62.812 57.1069 62.812C54.3616 62.812 51.9642 62.406 49.9149 61.594C47.9042 60.782 46.2222 59.68 44.8689 58.288C43.5542 56.8573 42.5682 55.1753 41.9109 53.242C41.2922 51.3087 40.9829 49.2207 40.9829 46.978ZM61.2829 43.672C61.2442 42.9373 61.1089 42.222 60.8769 41.526C60.6836 40.83 60.3549 40.2113 59.8909 39.67C59.4656 39.1287 58.9049 38.684 58.2089 38.336C57.5516 37.988 56.7202 37.814 55.7149 37.814C54.7482 37.814 53.9169 37.988 53.2209 38.336C52.5249 38.6453 51.9449 39.0707 51.4809 39.612C51.0169 40.1533 50.6496 40.7913 50.3789 41.526C50.1469 42.222 49.9729 42.9373 49.8569 43.672H61.2829ZM89.122 55.968C89.9727 55.968 90.7847 55.9487 91.558 55.91C92.3313 55.8713 92.95 55.8133 93.414 55.736V49.182C93.066 49.1047 92.544 49.0273 91.848 48.95C91.152 48.8727 90.514 48.834 89.934 48.834C89.122 48.834 88.3487 48.892 87.614 49.008C86.918 49.0853 86.2993 49.2593 85.758 49.53C85.2167 49.8007 84.7913 50.168 84.482 50.632C84.1727 51.096 84.018 51.676 84.018 52.372C84.018 53.7253 84.4627 54.6727 85.352 55.214C86.28 55.7167 87.5367 55.968 89.122 55.968ZM88.426 30.68C90.978 30.68 93.1047 30.97 94.806 31.55C96.5073 32.13 97.8607 32.9613 98.866 34.044C99.91 35.1267 100.645 36.4413 101.07 37.988C101.495 39.5347 101.708 41.2553 101.708 43.15V61.13C100.471 61.4007 98.75 61.71 96.546 62.058C94.342 62.4447 91.674 62.638 88.542 62.638C86.57 62.638 84.772 62.464 83.148 62.116C81.5627 61.768 80.19 61.2073 79.03 60.434C77.87 59.622 76.9807 58.578 76.362 57.302C75.7433 56.026 75.434 54.46 75.434 52.604C75.434 50.8253 75.782 49.3173 76.478 48.08C77.2127 46.8427 78.1793 45.8567 79.378 45.122C80.5767 44.3873 81.9493 43.8653 83.496 43.556C85.0427 43.208 86.6473 43.034 88.31 43.034C89.4313 43.034 90.4173 43.092 91.268 43.208C92.1573 43.2853 92.8727 43.4013 93.414 43.556V42.744C93.414 41.2747 92.9693 40.0953 92.08 39.206C91.1907 38.3167 89.644 37.872 87.44 37.872C85.9707 37.872 84.5207 37.988 83.09 38.22C81.6593 38.4133 80.422 38.7033 79.378 39.09L78.276 32.13C78.7787 31.9753 79.3973 31.8207 80.132 31.666C80.9053 31.4727 81.7367 31.318 82.626 31.202C83.5153 31.0473 84.4433 30.9313 85.41 30.854C86.4153 30.738 87.4207 30.68 88.426 30.68ZM109.233 46.746C109.233 44.542 109.581 42.4733 110.277 40.54C111.011 38.568 112.055 36.8667 113.409 35.436C114.762 33.9667 116.405 32.8067 118.339 31.956C120.272 31.1053 122.476 30.68 124.951 30.68C126.575 30.68 128.063 30.8347 129.417 31.144C130.77 31.4147 132.085 31.8207 133.361 32.362L131.563 39.264C130.751 38.9547 129.861 38.684 128.895 38.452C127.928 38.22 126.845 38.104 125.647 38.104C123.095 38.104 121.181 38.8967 119.905 40.482C118.667 42.0673 118.049 44.1553 118.049 46.746C118.049 49.4913 118.629 51.618 119.789 53.126C120.987 54.634 123.056 55.388 125.995 55.388C127.039 55.388 128.16 55.2913 129.359 55.098C130.557 54.9047 131.659 54.5953 132.665 54.17L133.883 61.246C132.877 61.6713 131.621 62.0387 130.113 62.348C128.605 62.6573 126.942 62.812 125.125 62.812C122.341 62.812 119.943 62.406 117.933 61.594C115.922 60.7433 114.259 59.6027 112.945 58.172C111.669 56.7413 110.721 55.0593 110.103 53.126C109.523 51.154 109.233 49.0273 109.233 46.746ZM140.843 62V18.384L149.485 16.992V31.608C150.065 31.4147 150.799 31.2407 151.689 31.086C152.617 30.8927 153.506 30.796 154.357 30.796C156.831 30.796 158.881 31.144 160.505 31.84C162.167 32.4973 163.482 33.4447 164.449 34.682C165.454 35.9193 166.15 37.3887 166.537 39.09C166.962 40.7913 167.175 42.686 167.175 44.774V62H158.533V45.818C158.533 43.034 158.165 41.062 157.431 39.902C156.735 38.742 155.42 38.162 153.487 38.162C152.713 38.162 151.979 38.2393 151.283 38.394C150.625 38.51 150.026 38.6453 149.485 38.8V62H140.843ZM206.562 38.336C208.186 35.5907 209.733 32.8453 211.202 30.1C212.672 27.3547 214.025 24.59 215.262 21.806H225.238C223.034 26.1367 220.753 30.332 218.394 34.392C216.036 38.452 213.542 42.5313 210.912 46.63V62H201.864V46.746C199.235 42.6473 196.722 38.5487 194.324 34.45C191.966 30.3513 189.684 26.1367 187.48 21.806H197.978C199.216 24.59 200.55 27.3547 201.98 30.1C203.411 32.8453 204.938 35.5907 206.562 38.336ZM254.195 46.688C254.195 49.0853 253.847 51.2893 253.151 53.3C252.455 55.272 251.449 56.9733 250.135 58.404C248.82 59.796 247.235 60.8787 245.379 61.652C243.561 62.4253 241.512 62.812 239.231 62.812C236.988 62.812 234.939 62.4253 233.083 61.652C231.265 60.8787 229.699 59.796 228.385 58.404C227.07 56.9733 226.045 55.272 225.311 53.3C224.576 51.2893 224.209 49.0853 224.209 46.688C224.209 44.2907 224.576 42.106 225.311 40.134C226.084 38.162 227.128 36.48 228.443 35.088C229.796 33.696 231.381 32.6133 233.199 31.84C235.055 31.0667 237.065 30.68 239.231 30.68C241.435 30.68 243.445 31.0667 245.263 31.84C247.119 32.6133 248.704 33.696 250.019 35.088C251.333 36.48 252.358 38.162 253.093 40.134C253.827 42.106 254.195 44.2907 254.195 46.688ZM245.379 46.688C245.379 44.02 244.837 41.932 243.755 40.424C242.711 38.8773 241.203 38.104 239.231 38.104C237.259 38.104 235.731 38.8773 234.649 40.424C233.566 41.932 233.025 44.02 233.025 46.688C233.025 49.356 233.566 51.4827 234.649 53.068C235.731 54.6147 237.259 55.388 239.231 55.388C241.203 55.388 242.711 54.6147 243.755 53.068C244.837 51.4827 245.379 49.356 245.379 46.688ZM288.091 60.956C286.622 61.3813 284.727 61.768 282.407 62.116C280.087 62.5027 277.651 62.696 275.099 62.696C272.508 62.696 270.343 62.348 268.603 61.652C266.902 60.956 265.548 59.9893 264.543 58.752C263.538 57.476 262.822 55.968 262.397 54.228C261.972 52.488 261.759 50.574 261.759 48.486V31.492H270.401V47.442C270.401 50.226 270.768 52.2367 271.503 53.474C272.238 54.7113 273.61 55.33 275.621 55.33C276.24 55.33 276.897 55.3107 277.593 55.272C278.289 55.1947 278.908 55.1173 279.449 55.04V31.492H288.091V60.956ZM315.749 39.148C314.976 38.9547 314.067 38.7613 313.023 38.568C311.979 38.336 310.858 38.22 309.659 38.22C309.118 38.22 308.461 38.278 307.687 38.394C306.953 38.4713 306.392 38.568 306.005 38.684V62H297.363V33.116C298.91 32.5747 300.727 32.072 302.815 31.608C304.942 31.1053 307.301 30.854 309.891 30.854C310.355 30.854 310.916 30.8927 311.573 30.97C312.231 31.0087 312.888 31.086 313.545 31.202C314.203 31.2793 314.86 31.3953 315.517 31.55C316.175 31.666 316.735 31.8207 317.199 32.014L315.749 39.148ZM352.064 62.522C349.86 62.522 347.656 62.4447 345.452 62.29C343.286 62.174 341.024 61.8647 338.666 61.362V22.386C340.522 22.038 342.552 21.7867 344.756 21.632C346.96 21.4387 349.009 21.342 350.904 21.342C353.456 21.342 355.795 21.5353 357.922 21.922C360.087 22.27 361.943 22.8887 363.49 23.778C365.036 24.6673 366.235 25.8467 367.086 27.316C367.975 28.7467 368.42 30.5253 368.42 32.652C368.42 35.8613 366.873 38.394 363.78 40.25C366.332 41.2167 368.072 42.5313 369 44.194C369.928 45.8567 370.392 47.732 370.392 49.82C370.392 54.0347 368.845 57.2053 365.752 59.332C362.697 61.4587 358.134 62.522 352.064 62.522ZM347.482 44.484V54.866C348.139 54.9433 348.854 55.0013 349.628 55.04C350.401 55.0787 351.252 55.098 352.18 55.098C354.886 55.098 357.071 54.7113 358.734 53.938C360.396 53.1647 361.228 51.734 361.228 49.646C361.228 47.79 360.532 46.4753 359.14 45.702C357.748 44.89 355.756 44.484 353.166 44.484H347.482ZM347.482 37.582H351.89C354.674 37.582 356.665 37.234 357.864 36.538C359.062 35.8033 359.662 34.6433 359.662 33.058C359.662 31.434 359.043 30.2933 357.806 29.636C356.568 28.9787 354.751 28.65 352.354 28.65C351.58 28.65 350.749 28.6693 349.86 28.708C348.97 28.708 348.178 28.7467 347.482 28.824V37.582ZM404.256 60.956C402.787 61.3813 400.892 61.768 398.572 62.116C396.252 62.5027 393.816 62.696 391.264 62.696C388.674 62.696 386.508 62.348 384.768 61.652C383.067 60.956 381.714 59.9893 380.708 58.752C379.703 57.476 378.988 55.968 378.562 54.228C378.137 52.488 377.924 50.574 377.924 48.486V31.492H386.566V47.442C386.566 50.226 386.934 52.2367 387.668 53.474C388.403 54.7113 389.776 55.33 391.786 55.33C392.405 55.33 393.062 55.3107 393.758 55.272C394.454 55.1947 395.073 55.1173 395.614 55.04V31.492H404.256V60.956ZM422.287 55.794C423.872 55.794 424.993 55.6393 425.651 55.33C426.308 55.0207 426.637 54.4213 426.637 53.532C426.637 52.836 426.211 52.2367 425.361 51.734C424.51 51.1927 423.215 50.5933 421.475 49.936C420.121 49.4333 418.884 48.9113 417.763 48.37C416.68 47.8287 415.752 47.1907 414.979 46.456C414.205 45.6827 413.606 44.774 413.181 43.73C412.755 42.686 412.543 41.4293 412.543 39.96C412.543 37.0987 413.606 34.8367 415.733 33.174C417.859 31.5113 420.779 30.68 424.491 30.68C426.347 30.68 428.125 30.854 429.827 31.202C431.528 31.5113 432.881 31.8593 433.887 32.246L432.379 38.974C431.373 38.626 430.271 38.3167 429.073 38.046C427.913 37.7753 426.598 37.64 425.129 37.64C422.422 37.64 421.069 38.394 421.069 39.902C421.069 40.25 421.127 40.5593 421.243 40.83C421.359 41.1007 421.591 41.3713 421.939 41.642C422.287 41.874 422.751 42.1447 423.331 42.454C423.949 42.7247 424.723 43.034 425.651 43.382C427.545 44.078 429.111 44.774 430.349 45.47C431.586 46.1273 432.553 46.862 433.249 47.674C433.983 48.4473 434.486 49.3173 434.757 50.284C435.066 51.2507 435.221 52.372 435.221 53.648C435.221 56.664 434.08 58.9453 431.799 60.492C429.556 62.0387 426.366 62.812 422.229 62.812C419.522 62.812 417.26 62.58 415.443 62.116C413.664 61.652 412.427 61.2653 411.731 60.956L413.181 53.938C414.65 54.518 416.158 54.982 417.705 55.33C419.251 55.6393 420.779 55.794 422.287 55.794ZM451.481 62H442.839V31.492H451.481V62ZM452.293 22.676C452.293 24.2613 451.771 25.518 450.727 26.446C449.722 27.3353 448.523 27.78 447.131 27.78C445.739 27.78 444.521 27.3353 443.477 26.446C442.472 25.518 441.969 24.2613 441.969 22.676C441.969 21.0907 442.472 19.8533 443.477 18.964C444.521 18.036 445.739 17.572 447.131 17.572C448.523 17.572 449.722 18.036 450.727 18.964C451.771 19.8533 452.293 21.0907 452.293 22.676ZM460.765 32.536C462.234 32.1107 464.129 31.724 466.449 31.376C468.769 30.9893 471.205 30.796 473.757 30.796C476.347 30.796 478.493 31.144 480.195 31.84C481.935 32.4973 483.307 33.4447 484.313 34.682C485.318 35.9193 486.033 37.3887 486.459 39.09C486.884 40.7913 487.097 42.686 487.097 44.774V62H478.455V45.818C478.455 43.034 478.087 41.062 477.353 39.902C476.618 38.742 475.245 38.162 473.235 38.162C472.616 38.162 471.959 38.2007 471.263 38.278C470.567 38.3167 469.948 38.3747 469.407 38.452V62H460.765V32.536ZM494.629 46.978C494.629 44.2713 495.035 41.9127 495.847 39.902C496.698 37.8527 497.8 36.1513 499.153 34.798C500.506 33.4447 502.053 32.42 503.793 31.724C505.572 31.028 507.389 30.68 509.245 30.68C513.576 30.68 516.998 32.014 519.511 34.682C522.024 37.3113 523.281 41.1973 523.281 46.34C523.281 46.8427 523.262 47.4033 523.223 48.022C523.184 48.602 523.146 49.124 523.107 49.588H503.503C503.696 51.3667 504.528 52.778 505.997 53.822C507.466 54.866 509.438 55.388 511.913 55.388C513.498 55.388 515.045 55.2527 516.553 54.982C518.1 54.6727 519.356 54.3053 520.323 53.88L521.483 60.898C521.019 61.13 520.4 61.362 519.627 61.594C518.854 61.826 517.984 62.0193 517.017 62.174C516.089 62.3673 515.084 62.522 514.001 62.638C512.918 62.754 511.836 62.812 510.753 62.812C508.008 62.812 505.61 62.406 503.561 61.594C501.55 60.782 499.868 59.68 498.515 58.288C497.2 56.8573 496.214 55.1753 495.557 53.242C494.938 51.3087 494.629 49.2207 494.629 46.978ZM514.929 43.672C514.89 42.9373 514.755 42.222 514.523 41.526C514.33 40.83 514.001 40.2113 513.537 39.67C513.112 39.1287 512.551 38.684 511.855 38.336C511.198 37.988 510.366 37.814 509.361 37.814C508.394 37.814 507.563 37.988 506.867 38.336C506.171 38.6453 505.591 39.0707 505.127 39.612C504.663 40.1533 504.296 40.7913 504.025 41.526C503.793 42.222 503.619 42.9373 503.503 43.672H514.929ZM539.868 55.794C541.453 55.794 542.575 55.6393 543.232 55.33C543.889 55.0207 544.218 54.4213 544.218 53.532C544.218 52.836 543.793 52.2367 542.942 51.734C542.091 51.1927 540.796 50.5933 539.056 49.936C537.703 49.4333 536.465 48.9113 535.344 48.37C534.261 47.8287 533.333 47.1907 532.56 46.456C531.787 45.6827 531.187 44.774 530.762 43.73C530.337 42.686 530.124 41.4293 530.124 39.96C530.124 37.0987 531.187 34.8367 533.314 33.174C535.441 31.5113 538.36 30.68 542.072 30.68C543.928 30.68 545.707 30.854 547.408 31.202C549.109 31.5113 550.463 31.8593 551.468 32.246L549.96 38.974C548.955 38.626 547.853 38.3167 546.654 38.046C545.494 37.7753 544.179 37.64 542.71 37.64C540.003 37.64 538.65 38.394 538.65 39.902C538.65 40.25 538.708 40.5593 538.824 40.83C538.94 41.1007 539.172 41.3713 539.52 41.642C539.868 41.874 540.332 42.1447 540.912 42.454C541.531 42.7247 542.304 43.034 543.232 43.382C545.127 44.078 546.693 44.774 547.93 45.47C549.167 46.1273 550.134 46.862 550.83 47.674C551.565 48.4473 552.067 49.3173 552.338 50.284C552.647 51.2507 552.802 52.372 552.802 53.648C552.802 56.664 551.661 58.9453 549.38 60.492C547.137 62.0387 543.947 62.812 539.81 62.812C537.103 62.812 534.841 62.58 533.024 62.116C531.245 61.652 530.008 61.2653 529.312 60.956L530.762 53.938C532.231 54.518 533.739 54.982 535.286 55.33C536.833 55.6393 538.36 55.794 539.868 55.794ZM569.178 55.794C570.764 55.794 571.885 55.6393 572.542 55.33C573.2 55.0207 573.528 54.4213 573.528 53.532C573.528 52.836 573.103 52.2367 572.252 51.734C571.402 51.1927 570.106 50.5933 568.366 49.936C567.013 49.4333 565.776 48.9113 564.654 48.37C563.572 47.8287 562.644 47.1907 561.87 46.456C561.097 45.6827 560.498 44.774 560.072 43.73C559.647 42.686 559.434 41.4293 559.434 39.96C559.434 37.0987 560.498 34.8367 562.624 33.174C564.751 31.5113 567.67 30.68 571.382 30.68C573.238 30.68 575.017 30.854 576.718 31.202C578.42 31.5113 579.773 31.8593 580.778 32.246L579.27 38.974C578.265 38.626 577.163 38.3167 575.964 38.046C574.804 37.7753 573.49 37.64 572.02 37.64C569.314 37.64 567.96 38.394 567.96 39.902C567.96 40.25 568.018 40.5593 568.134 40.83C568.25 41.1007 568.482 41.3713 568.83 41.642C569.178 41.874 569.642 42.1447 570.222 42.454C570.841 42.7247 571.614 43.034 572.542 43.382C574.437 44.078 576.003 44.774 577.24 45.47C578.478 46.1273 579.444 46.862 580.14 47.674C580.875 48.4473 581.378 49.3173 581.648 50.284C581.958 51.2507 582.112 52.372 582.112 53.648C582.112 56.664 580.972 58.9453 578.69 60.492C576.448 62.0387 573.258 62.812 569.12 62.812C566.414 62.812 564.152 62.58 562.334 62.116C560.556 61.652 559.318 61.2653 558.622 60.956L560.072 53.938C561.542 54.518 563.05 54.982 564.596 55.33C566.143 55.6393 567.67 55.794 569.178 55.794ZM24.244 108.766C20.0293 108.766 16.9747 109.945 15.08 112.304C13.224 114.624 12.296 117.814 12.296 121.874C12.296 123.846 12.528 125.644 12.992 127.268C13.456 128.853 14.152 130.226 15.08 131.386C16.008 132.546 17.168 133.455 18.56 134.112C19.952 134.731 21.576 135.04 23.432 135.04C24.4373 135.04 25.288 135.021 25.984 134.982C26.7187 134.943 27.3567 134.866 27.898 134.75V120.772H36.946V140.666C35.8633 141.091 34.1233 141.536 31.726 142C29.3287 142.503 26.3707 142.754 22.852 142.754C19.836 142.754 17.0907 142.29 14.616 141.362C12.18 140.434 10.092 139.081 8.352 137.302C6.612 135.523 5.25867 133.339 4.292 130.748C3.364 128.157 2.9 125.199 2.9 121.874C2.9 118.51 3.422 115.533 4.466 112.942C5.51 110.351 6.94067 108.167 8.758 106.388C10.5753 104.571 12.702 103.198 15.138 102.27C17.6127 101.342 20.242 100.878 23.026 100.878C24.9207 100.878 26.622 101.013 28.13 101.284C29.6767 101.516 30.9913 101.806 32.074 102.154C33.1953 102.463 34.104 102.792 34.8 103.14C35.5347 103.488 36.0567 103.759 36.366 103.952L33.756 111.202C32.5187 110.545 31.088 109.984 29.464 109.52C27.8787 109.017 26.1387 108.766 24.244 108.766ZM74.4806 126.688C74.4806 129.085 74.1326 131.289 73.4366 133.3C72.7406 135.272 71.7353 136.973 70.4206 138.404C69.1059 139.796 67.5206 140.879 65.6646 141.652C63.8473 142.425 61.7979 142.812 59.5166 142.812C57.2739 142.812 55.2246 142.425 53.3686 141.652C51.5513 140.879 49.9853 139.796 48.6706 138.404C47.3559 136.973 46.3313 135.272 45.5966 133.3C44.8619 131.289 44.4946 129.085 44.4946 126.688C44.4946 124.291 44.8619 122.106 45.5966 120.134C46.3699 118.162 47.4139 116.48 48.7286 115.088C50.0819 113.696 51.6673 112.613 53.4846 111.84C55.3406 111.067 57.3513 110.68 59.5166 110.68C61.7206 110.68 63.7313 111.067 65.5486 111.84C67.4046 112.613 68.9899 113.696 70.3046 115.088C71.6193 116.48 72.6439 118.162 73.3786 120.134C74.1133 122.106 74.4806 124.291 74.4806 126.688ZM65.6646 126.688C65.6646 124.02 65.1233 121.932 64.0406 120.424C62.9966 118.877 61.4886 118.104 59.5166 118.104C57.5446 118.104 56.0173 118.877 54.9346 120.424C53.8519 121.932 53.3106 124.02 53.3106 126.688C53.3106 129.356 53.8519 131.483 54.9346 133.068C56.0173 134.615 57.5446 135.388 59.5166 135.388C61.4886 135.388 62.9966 134.615 64.0406 133.068C65.1233 131.483 65.6646 129.356 65.6646 126.688ZM93.9931 135.968C94.8437 135.968 95.6557 135.949 96.4291 135.91C97.2024 135.871 97.8211 135.813 98.2851 135.736V129.182C97.9371 129.105 97.4151 129.027 96.7191 128.95C96.0231 128.873 95.3851 128.834 94.8051 128.834C93.9931 128.834 93.2197 128.892 92.4851 129.008C91.7891 129.085 91.1704 129.259 90.6291 129.53C90.0877 129.801 89.6624 130.168 89.3531 130.632C89.0437 131.096 88.8891 131.676 88.8891 132.372C88.8891 133.725 89.3337 134.673 90.2231 135.214C91.1511 135.717 92.4077 135.968 93.9931 135.968ZM93.2971 110.68C95.8491 110.68 97.9757 110.97 99.6771 111.55C101.378 112.13 102.732 112.961 103.737 114.044C104.781 115.127 105.516 116.441 105.941 117.988C106.366 119.535 106.579 121.255 106.579 123.15V141.13C105.342 141.401 103.621 141.71 101.417 142.058C99.2131 142.445 96.5451 142.638 93.4131 142.638C91.4411 142.638 89.6431 142.464 88.0191 142.116C86.4337 141.768 85.0611 141.207 83.9011 140.434C82.7411 139.622 81.8517 138.578 81.2331 137.302C80.6144 136.026 80.3051 134.46 80.3051 132.604C80.3051 130.825 80.6531 129.317 81.3491 128.08C82.0837 126.843 83.0504 125.857 84.2491 125.122C85.4477 124.387 86.8204 123.865 88.3671 123.556C89.9137 123.208 91.5184 123.034 93.1811 123.034C94.3024 123.034 95.2884 123.092 96.1391 123.208C97.0284 123.285 97.7437 123.401 98.2851 123.556V122.744C98.2851 121.275 97.8404 120.095 96.9511 119.206C96.0617 118.317 94.5151 117.872 92.3111 117.872C90.8417 117.872 89.3917 117.988 87.9611 118.22C86.5304 118.413 85.2931 118.703 84.2491 119.09L83.1471 112.13C83.6497 111.975 84.2684 111.821 85.0031 111.666C85.7764 111.473 86.6077 111.318 87.4971 111.202C88.3864 111.047 89.3144 110.931 90.2811 110.854C91.2864 110.738 92.2917 110.68 93.2971 110.68ZM127.734 142.58C125.22 142.541 123.171 142.271 121.586 141.768C120.039 141.265 118.802 140.569 117.874 139.68C116.984 138.752 116.366 137.65 116.018 136.374C115.708 135.059 115.554 133.59 115.554 131.966V98.384L124.196 96.992V130.226C124.196 130.999 124.254 131.695 124.37 132.314C124.486 132.933 124.698 133.455 125.008 133.88C125.356 134.305 125.839 134.653 126.458 134.924C127.076 135.195 127.908 135.369 128.952 135.446L127.734 142.58ZM143.823 135.794C145.409 135.794 146.53 135.639 147.187 135.33C147.845 135.021 148.173 134.421 148.173 133.532C148.173 132.836 147.748 132.237 146.897 131.734C146.047 131.193 144.751 130.593 143.011 129.936C141.658 129.433 140.421 128.911 139.299 128.37C138.217 127.829 137.289 127.191 136.515 126.456C135.742 125.683 135.143 124.774 134.717 123.73C134.292 122.686 134.079 121.429 134.079 119.96C134.079 117.099 135.143 114.837 137.269 113.174C139.396 111.511 142.315 110.68 146.027 110.68C147.883 110.68 149.662 110.854 151.363 111.202C153.065 111.511 154.418 111.859 155.423 112.246L153.915 118.974C152.91 118.626 151.808 118.317 150.609 118.046C149.449 117.775 148.135 117.64 146.665 117.64C143.959 117.64 142.605 118.394 142.605 119.902C142.605 120.25 142.663 120.559 142.779 120.83C142.895 121.101 143.127 121.371 143.475 121.642C143.823 121.874 144.287 122.145 144.867 122.454C145.486 122.725 146.259 123.034 147.187 123.382C149.082 124.078 150.648 124.774 151.885 125.47C153.123 126.127 154.089 126.862 154.785 127.674C155.52 128.447 156.023 129.317 156.293 130.284C156.603 131.251 156.757 132.372 156.757 133.648C156.757 136.664 155.617 138.945 153.335 140.492C151.093 142.039 147.903 142.812 143.765 142.812C141.059 142.812 138.797 142.58 136.979 142.116C135.201 141.652 133.963 141.265 133.267 140.956L134.717 133.938C136.187 134.518 137.695 134.982 139.241 135.33C140.788 135.639 142.315 135.794 143.823 135.794ZM188.111 142H179.469V111.492H188.111V142ZM188.923 102.676C188.923 104.261 188.401 105.518 187.357 106.446C186.352 107.335 185.153 107.78 183.761 107.78C182.369 107.78 181.151 107.335 180.107 106.446C179.102 105.518 178.599 104.261 178.599 102.676C178.599 101.091 179.102 99.8533 180.107 98.964C181.151 98.036 182.369 97.572 183.761 97.572C185.153 97.572 186.352 98.036 187.357 98.964C188.401 99.8533 188.923 101.091 188.923 102.676ZM197.395 112.536C198.864 112.111 200.759 111.724 203.079 111.376C205.399 110.989 207.835 110.796 210.387 110.796C212.978 110.796 215.124 111.144 216.825 111.84C218.565 112.497 219.938 113.445 220.943 114.682C221.948 115.919 222.664 117.389 223.089 119.09C223.514 120.791 223.727 122.686 223.727 124.774V142H215.085V125.818C215.085 123.034 214.718 121.062 213.983 119.902C213.248 118.742 211.876 118.162 209.865 118.162C209.246 118.162 208.589 118.201 207.893 118.278C207.197 118.317 206.578 118.375 206.037 118.452V142H197.395V112.536ZM260.157 101.342C266.189 101.342 270.809 102.425 274.019 104.59C277.228 106.717 278.833 110.042 278.833 114.566C278.833 117.389 278.175 119.689 276.861 121.468C275.585 123.208 273.729 124.581 271.293 125.586C272.105 126.591 272.955 127.751 273.845 129.066C274.734 130.342 275.604 131.695 276.455 133.126C277.344 134.518 278.195 135.987 279.007 137.534C279.819 139.042 280.573 140.531 281.269 142H271.119C270.384 140.685 269.63 139.351 268.857 137.998C268.122 136.645 267.349 135.33 266.537 134.054C265.763 132.778 264.99 131.579 264.217 130.458C263.443 129.298 262.67 128.254 261.897 127.326H257.431V142H248.383V102.386C250.355 101.999 252.385 101.729 254.473 101.574C256.599 101.419 258.494 101.342 260.157 101.342ZM260.679 109.056C260.021 109.056 259.422 109.075 258.881 109.114C258.378 109.153 257.895 109.191 257.431 109.23V120.134H259.983C263.385 120.134 265.821 119.709 267.291 118.858C268.76 118.007 269.495 116.557 269.495 114.508C269.495 112.536 268.741 111.144 267.233 110.332C265.763 109.481 263.579 109.056 260.679 109.056ZM284.726 126.978C284.726 124.271 285.132 121.913 285.944 119.902C286.794 117.853 287.896 116.151 289.25 114.798C290.603 113.445 292.15 112.42 293.89 111.724C295.668 111.028 297.486 110.68 299.342 110.68C303.672 110.68 307.094 112.014 309.608 114.682C312.121 117.311 313.378 121.197 313.378 126.34C313.378 126.843 313.358 127.403 313.32 128.022C313.281 128.602 313.242 129.124 313.204 129.588H293.6C293.793 131.367 294.624 132.778 296.094 133.822C297.563 134.866 299.535 135.388 302.01 135.388C303.595 135.388 305.142 135.253 306.65 134.982C308.196 134.673 309.453 134.305 310.42 133.88L311.58 140.898C311.116 141.13 310.497 141.362 309.724 141.594C308.95 141.826 308.08 142.019 307.114 142.174C306.186 142.367 305.18 142.522 304.098 142.638C303.015 142.754 301.932 142.812 300.85 142.812C298.104 142.812 295.707 142.406 293.658 141.594C291.647 140.782 289.965 139.68 288.612 138.288C287.297 136.857 286.311 135.175 285.654 133.242C285.035 131.309 284.726 129.221 284.726 126.978ZM305.026 123.672C304.987 122.937 304.852 122.222 304.62 121.526C304.426 120.83 304.098 120.211 303.634 119.67C303.208 119.129 302.648 118.684 301.952 118.336C301.294 117.988 300.463 117.814 299.458 117.814C298.491 117.814 297.66 117.988 296.964 118.336C296.268 118.645 295.688 119.071 295.224 119.612C294.76 120.153 294.392 120.791 294.122 121.526C293.89 122.222 293.716 122.937 293.6 123.672H305.026ZM319.757 126.746C319.757 124.542 320.105 122.473 320.801 120.54C321.535 118.568 322.579 116.867 323.933 115.436C325.286 113.967 326.929 112.807 328.863 111.956C330.796 111.105 333 110.68 335.475 110.68C337.099 110.68 338.587 110.835 339.941 111.144C341.294 111.415 342.609 111.821 343.885 112.362L342.087 119.264C341.275 118.955 340.385 118.684 339.419 118.452C338.452 118.22 337.369 118.104 336.171 118.104C333.619 118.104 331.705 118.897 330.429 120.482C329.191 122.067 328.573 124.155 328.573 126.746C328.573 129.491 329.153 131.618 330.313 133.126C331.511 134.634 333.58 135.388 336.519 135.388C337.563 135.388 338.684 135.291 339.883 135.098C341.081 134.905 342.183 134.595 343.189 134.17L344.407 141.246C343.401 141.671 342.145 142.039 340.637 142.348C339.129 142.657 337.466 142.812 335.649 142.812C332.865 142.812 330.467 142.406 328.457 141.594C326.446 140.743 324.783 139.603 323.469 138.172C322.193 136.741 321.245 135.059 320.627 133.126C320.047 131.154 319.757 129.027 319.757 126.746ZM378.43 126.688C378.43 129.085 378.082 131.289 377.386 133.3C376.69 135.272 375.685 136.973 374.37 138.404C373.055 139.796 371.47 140.879 369.614 141.652C367.797 142.425 365.747 142.812 363.466 142.812C361.223 142.812 359.174 142.425 357.318 141.652C355.501 140.879 353.935 139.796 352.62 138.404C351.305 136.973 350.281 135.272 349.546 133.3C348.811 131.289 348.444 129.085 348.444 126.688C348.444 124.291 348.811 122.106 349.546 120.134C350.319 118.162 351.363 116.48 352.678 115.088C354.031 113.696 355.617 112.613 357.434 111.84C359.29 111.067 361.301 110.68 363.466 110.68C365.67 110.68 367.681 111.067 369.498 111.84C371.354 112.613 372.939 113.696 374.254 115.088C375.569 116.48 376.593 118.162 377.328 120.134C378.063 122.106 378.43 124.291 378.43 126.688ZM369.614 126.688C369.614 124.02 369.073 121.932 367.99 120.424C366.946 118.877 365.438 118.104 363.466 118.104C361.494 118.104 359.967 118.877 358.884 120.424C357.801 121.932 357.26 124.02 357.26 126.688C357.26 129.356 357.801 131.483 358.884 133.068C359.967 134.615 361.494 135.388 363.466 135.388C365.438 135.388 366.946 134.615 367.99 133.068C369.073 131.483 369.614 129.356 369.614 126.688ZM404.671 119.148C403.897 118.955 402.989 118.761 401.945 118.568C400.901 118.336 399.779 118.22 398.581 118.22C398.039 118.22 397.382 118.278 396.609 118.394C395.874 118.471 395.313 118.568 394.927 118.684V142H386.285V113.116C387.831 112.575 389.649 112.072 391.737 111.608C393.863 111.105 396.222 110.854 398.813 110.854C399.277 110.854 399.837 110.893 400.495 110.97C401.152 111.009 401.809 111.086 402.467 111.202C403.124 111.279 403.781 111.395 404.439 111.55C405.096 111.666 405.657 111.821 406.121 112.014L404.671 119.148ZM418.713 126.514C418.713 129.182 419.312 131.328 420.511 132.952C421.71 134.576 423.488 135.388 425.847 135.388C426.62 135.388 427.336 135.369 427.993 135.33C428.65 135.253 429.192 135.175 429.617 135.098V119.38C429.076 119.032 428.36 118.742 427.471 118.51C426.62 118.278 425.75 118.162 424.861 118.162C420.762 118.162 418.713 120.946 418.713 126.514ZM438.259 141.014C437.486 141.246 436.596 141.478 435.591 141.71C434.586 141.903 433.522 142.077 432.401 142.232C431.318 142.387 430.197 142.503 429.037 142.58C427.916 142.696 426.833 142.754 425.789 142.754C423.276 142.754 421.033 142.387 419.061 141.652C417.089 140.917 415.426 139.873 414.073 138.52C412.72 137.128 411.676 135.465 410.941 133.532C410.245 131.56 409.897 129.356 409.897 126.92C409.897 124.445 410.206 122.222 410.825 120.25C411.444 118.239 412.333 116.538 413.493 115.146C414.653 113.754 416.064 112.691 417.727 111.956C419.428 111.221 421.362 110.854 423.527 110.854C424.726 110.854 425.789 110.97 426.717 111.202C427.684 111.434 428.65 111.763 429.617 112.188V98.384L438.259 96.992V141.014ZM492.996 101.806V109.52H480.874V142H471.826V109.52H459.704V101.806H492.996ZM508.033 142H499.391V111.492H508.033V142ZM508.845 102.676C508.845 104.261 508.323 105.518 507.279 106.446C506.274 107.335 505.075 107.78 503.683 107.78C502.291 107.78 501.073 107.335 500.029 106.446C499.024 105.518 498.521 104.261 498.521 102.676C498.521 101.091 499.024 99.8533 500.029 98.964C501.073 98.036 502.291 97.572 503.683 97.572C505.075 97.572 506.274 98.036 507.279 98.964C508.323 99.8533 508.845 101.091 508.845 102.676ZM534.079 125.818C534.079 123.034 533.712 121.062 532.977 119.902C532.281 118.742 531.063 118.162 529.323 118.162C528.782 118.162 528.221 118.201 527.641 118.278C527.061 118.317 526.5 118.375 525.959 118.452V142H517.317V112.536C518.052 112.343 518.902 112.149 519.869 111.956C520.874 111.724 521.918 111.531 523.001 111.376C524.122 111.183 525.263 111.047 526.423 110.97C527.583 110.854 528.724 110.796 529.845 110.796C532.049 110.796 533.828 111.086 535.181 111.666C536.573 112.207 537.714 112.865 538.603 113.638C539.84 112.749 541.252 112.053 542.837 111.55C544.461 111.047 545.95 110.796 547.303 110.796C549.739 110.796 551.73 111.144 553.277 111.84C554.862 112.497 556.119 113.445 557.047 114.682C557.975 115.919 558.613 117.389 558.961 119.09C559.309 120.791 559.483 122.686 559.483 124.774V142H550.841V125.818C550.841 123.034 550.474 121.062 549.739 119.902C549.043 118.742 547.825 118.162 546.085 118.162C545.621 118.162 544.964 118.278 544.113 118.51C543.301 118.742 542.624 119.032 542.083 119.38C542.354 120.269 542.528 121.217 542.605 122.222C542.682 123.189 542.721 124.233 542.721 125.354V142H534.079V125.818ZM567.041 126.978C567.041 124.271 567.447 121.913 568.259 119.902C569.109 117.853 570.211 116.151 571.565 114.798C572.918 113.445 574.465 112.42 576.205 111.724C577.983 111.028 579.801 110.68 581.657 110.68C585.987 110.68 589.409 112.014 591.923 114.682C594.436 117.311 595.693 121.197 595.693 126.34C595.693 126.843 595.673 127.403 595.635 128.022C595.596 128.602 595.557 129.124 595.519 129.588H575.915C576.108 131.367 576.939 132.778 578.409 133.822C579.878 134.866 581.85 135.388 584.325 135.388C585.91 135.388 587.457 135.253 588.965 134.982C590.511 134.673 591.768 134.305 592.735 133.88L593.895 140.898C593.431 141.13 592.812 141.362 592.039 141.594C591.265 141.826 590.395 142.019 589.429 142.174C588.501 142.367 587.495 142.522 586.413 142.638C585.33 142.754 584.247 142.812 583.165 142.812C580.419 142.812 578.022 142.406 575.973 141.594C573.962 140.782 572.28 139.68 570.927 138.288C569.612 136.857 568.626 135.175 567.969 133.242C567.35 131.309 567.041 129.221 567.041 126.978ZM587.341 123.672C587.302 122.937 587.167 122.222 586.935 121.526C586.741 120.83 586.413 120.211 585.949 119.67C585.523 119.129 584.963 118.684 584.267 118.336C583.609 117.988 582.778 117.814 581.773 117.814C580.806 117.814 579.975 117.988 579.279 118.336C578.583 118.645 578.003 119.071 577.539 119.612C577.075 120.153 576.707 120.791 576.437 121.526C576.205 122.222 576.031 122.937 575.915 123.672H587.341Z" fill="#282C4B"/>
<path d="M335 77.9999C433.412 66.6432 488.588 66.0411 587 77.9999" stroke="#FF698D" stroke-width="2"/>
</svg>
