<svg width="251" height="287" viewBox="0 0 251 287" fill="none" xmlns="http://www.w3.org/2000/svg">
<path d="M38.82 120.3C37.78 120.3 36.8467 120.14 36.02 119.82C35.1933 119.5 34.4933 119.033 33.92 118.42C33.3467 117.793 32.9067 117.033 32.6 116.14C32.2933 115.247 32.14 114.22 32.14 113.06C32.14 111.9 32.3133 110.873 32.66 109.98C33.02 109.087 33.5067 108.333 34.12 107.72C34.7333 107.093 35.4533 106.62 36.28 106.3C37.1067 105.98 37.9933 105.82 38.94 105.82C39.5133 105.82 40.0333 105.867 40.5 105.96C40.9667 106.04 41.3733 106.133 41.72 106.24C42.0667 106.347 42.3533 106.46 42.58 106.58C42.8067 106.7 42.9667 106.787 43.06 106.84L42.32 108.9C42 108.7 41.54 108.513 40.94 108.34C40.3533 108.153 39.7133 108.06 39.02 108.06C38.42 108.06 37.86 108.167 37.34 108.38C36.82 108.58 36.3667 108.887 35.98 109.3C35.6067 109.713 35.3133 110.233 35.1 110.86C34.8867 111.487 34.78 112.213 34.78 113.04C34.78 113.773 34.86 114.447 35.02 115.06C35.1933 115.673 35.4533 116.207 35.8 116.66C36.1467 117.1 36.5867 117.447 37.12 117.7C37.6533 117.94 38.2933 118.06 39.04 118.06C39.9333 118.06 40.66 117.973 41.22 117.8C41.78 117.613 42.2133 117.44 42.52 117.28L43.2 119.34C43.04 119.447 42.82 119.553 42.54 119.66C42.2733 119.767 41.9533 119.873 41.58 119.98C41.2067 120.073 40.7867 120.147 40.32 120.2C39.8533 120.267 39.3533 120.3 38.82 120.3ZM51.2539 111.72C51.0539 111.653 50.7739 111.587 50.4139 111.52C50.0672 111.44 49.6606 111.4 49.1939 111.4C48.9272 111.4 48.6406 111.427 48.3339 111.48C48.0406 111.533 47.8339 111.58 47.7139 111.62V120H45.2939V110.04C45.7606 109.867 46.3406 109.707 47.0339 109.56C47.7406 109.4 48.5206 109.32 49.3739 109.32C49.5339 109.32 49.7206 109.333 49.9339 109.36C50.1472 109.373 50.3606 109.4 50.5739 109.44C50.7872 109.467 50.9939 109.507 51.1939 109.56C51.3939 109.6 51.5539 109.64 51.6739 109.68L51.2539 111.72ZM52.7803 114.82C52.7803 113.9 52.9136 113.093 53.1803 112.4C53.4603 111.707 53.827 111.133 54.2803 110.68C54.7336 110.213 55.2536 109.867 55.8403 109.64C56.427 109.4 57.027 109.28 57.6403 109.28C59.0803 109.28 60.2003 109.727 61.0003 110.62C61.8136 111.513 62.2203 112.847 62.2203 114.62C62.2203 114.753 62.2136 114.907 62.2003 115.08C62.2003 115.24 62.1936 115.387 62.1803 115.52H55.2803C55.347 116.36 55.6403 117.013 56.1603 117.48C56.6936 117.933 57.4603 118.16 58.4603 118.16C59.047 118.16 59.5803 118.107 60.0603 118C60.5536 117.893 60.9403 117.78 61.2203 117.66L61.5403 119.64C61.407 119.707 61.2203 119.78 60.9803 119.86C60.7536 119.927 60.487 119.987 60.1803 120.04C59.887 120.107 59.567 120.16 59.2203 120.2C58.8736 120.24 58.5203 120.26 58.1603 120.26C57.2403 120.26 56.4403 120.127 55.7603 119.86C55.0803 119.58 54.5203 119.2 54.0803 118.72C53.6403 118.227 53.3136 117.653 53.1003 117C52.887 116.333 52.7803 115.607 52.7803 114.82ZM59.8003 113.74C59.8003 113.407 59.7536 113.093 59.6603 112.8C59.567 112.493 59.427 112.233 59.2403 112.02C59.067 111.793 58.847 111.62 58.5803 111.5C58.327 111.367 58.0203 111.3 57.6603 111.3C57.287 111.3 56.9603 111.373 56.6803 111.52C56.4003 111.653 56.1603 111.833 55.9603 112.06C55.7736 112.287 55.627 112.547 55.5203 112.84C55.4136 113.133 55.3403 113.433 55.3003 113.74H59.8003ZM68.4661 118.3C69.2128 118.3 69.7794 118.26 70.1661 118.18V115.5C70.0328 115.46 69.8394 115.42 69.5861 115.38C69.3328 115.34 69.0528 115.32 68.7461 115.32C68.4794 115.32 68.2061 115.34 67.9261 115.38C67.6594 115.42 67.4128 115.493 67.1861 115.6C66.9728 115.707 66.7994 115.86 66.6661 116.06C66.5328 116.247 66.4661 116.487 66.4661 116.78C66.4661 117.353 66.6461 117.753 67.0061 117.98C67.3661 118.193 67.8528 118.3 68.4661 118.3ZM68.2661 109.28C69.0661 109.28 69.7394 109.38 70.2861 109.58C70.8328 109.78 71.2661 110.06 71.5861 110.42C71.9194 110.78 72.1528 111.22 72.2861 111.74C72.4328 112.247 72.5061 112.807 72.5061 113.42V119.76C72.1328 119.84 71.5661 119.933 70.8061 120.04C70.0594 120.16 69.2128 120.22 68.2661 120.22C67.6394 120.22 67.0661 120.16 66.5461 120.04C66.0261 119.92 65.5794 119.727 65.2061 119.46C64.8461 119.193 64.5594 118.847 64.3461 118.42C64.1461 117.993 64.0461 117.467 64.0461 116.84C64.0461 116.24 64.1594 115.733 64.3861 115.32C64.6261 114.907 64.9461 114.573 65.3461 114.32C65.7461 114.053 66.2061 113.867 66.7261 113.76C67.2594 113.64 67.8128 113.58 68.3861 113.58C68.6528 113.58 68.9328 113.6 69.2261 113.64C69.5194 113.667 69.8328 113.72 70.1661 113.8V113.4C70.1661 113.12 70.1328 112.853 70.0661 112.6C69.9994 112.347 69.8794 112.127 69.7061 111.94C69.5461 111.74 69.3261 111.587 69.0461 111.48C68.7794 111.373 68.4394 111.32 68.0261 111.32C67.4661 111.32 66.9528 111.36 66.4861 111.44C66.0194 111.52 65.6394 111.613 65.3461 111.72L65.0461 109.76C65.3528 109.653 65.7994 109.547 66.3861 109.44C66.9728 109.333 67.5994 109.28 68.2661 109.28ZM75.3497 106.78L77.7697 106.38V109.54H81.4897V111.56H77.7697V115.82C77.7697 116.66 77.903 117.26 78.1697 117.62C78.4364 117.98 78.8897 118.16 79.5297 118.16C79.9697 118.16 80.3564 118.113 80.6897 118.02C81.0364 117.927 81.3097 117.84 81.5097 117.76L81.9097 119.68C81.6297 119.8 81.263 119.92 80.8097 120.04C80.3564 120.173 79.823 120.24 79.2097 120.24C78.463 120.24 77.8364 120.14 77.3297 119.94C76.8364 119.74 76.443 119.453 76.1497 119.08C75.8564 118.693 75.6497 118.233 75.5297 117.7C75.4097 117.153 75.3497 116.533 75.3497 115.84V106.78ZM83.0733 114.82C83.0733 113.9 83.2066 113.093 83.4733 112.4C83.7533 111.707 84.1199 111.133 84.5733 110.68C85.0266 110.213 85.5466 109.867 86.1333 109.64C86.7199 109.4 87.3199 109.28 87.9333 109.28C89.3733 109.28 90.4933 109.727 91.2933 110.62C92.1066 111.513 92.5133 112.847 92.5133 114.62C92.5133 114.753 92.5066 114.907 92.4933 115.08C92.4933 115.24 92.4866 115.387 92.4733 115.52H85.5733C85.6399 116.36 85.9333 117.013 86.4533 117.48C86.9866 117.933 87.7533 118.16 88.7533 118.16C89.3399 118.16 89.8733 118.107 90.3533 118C90.8466 117.893 91.2333 117.78 91.5133 117.66L91.8333 119.64C91.6999 119.707 91.5133 119.78 91.2733 119.86C91.0466 119.927 90.7799 119.987 90.4733 120.04C90.1799 120.107 89.8599 120.16 89.5133 120.2C89.1666 120.24 88.8133 120.26 88.4533 120.26C87.5333 120.26 86.7333 120.127 86.0533 119.86C85.3733 119.58 84.8133 119.2 84.3733 118.72C83.9333 118.227 83.6066 117.653 83.3933 117C83.1799 116.333 83.0733 115.607 83.0733 114.82ZM90.0933 113.74C90.0933 113.407 90.0466 113.093 89.9533 112.8C89.8599 112.493 89.7199 112.233 89.5333 112.02C89.3599 111.793 89.1399 111.62 88.8733 111.5C88.6199 111.367 88.3133 111.3 87.9533 111.3C87.5799 111.3 87.2533 111.373 86.9733 111.52C86.6933 111.653 86.4533 111.833 86.2533 112.06C86.0666 112.287 85.9199 112.547 85.8133 112.84C85.7066 113.133 85.6333 113.433 85.5933 113.74H90.0933Z" fill="#14183E"/>
<path d="M35.095 163.09C34.885 163.09 34.655 163.085 34.405 163.075C34.165 163.065 33.92 163.05 33.67 163.03C33.43 163.01 33.19 162.985 32.95 162.955C32.71 162.925 32.49 162.885 32.29 162.835V152.755C32.49 152.705 32.71 152.665 32.95 152.635C33.19 152.605 33.43 152.58 33.67 152.56C33.92 152.54 34.165 152.525 34.405 152.515C34.645 152.505 34.87 152.5 35.08 152.5C35.68 152.5 36.24 152.545 36.76 152.635C37.29 152.725 37.745 152.88 38.125 153.1C38.515 153.31 38.82 153.59 39.04 153.94C39.26 154.29 39.37 154.72 39.37 155.23C39.37 155.8 39.235 156.27 38.965 156.64C38.695 157 38.335 157.27 37.885 157.45C38.495 157.63 38.98 157.915 39.34 158.305C39.7 158.695 39.88 159.245 39.88 159.955C39.88 160.995 39.495 161.78 38.725 162.31C37.965 162.83 36.755 163.09 35.095 163.09ZM33.73 158.155V161.815C33.84 161.825 33.97 161.835 34.12 161.845C34.25 161.855 34.4 161.865 34.57 161.875C34.75 161.875 34.955 161.875 35.185 161.875C35.615 161.875 36.02 161.85 36.4 161.8C36.79 161.74 37.13 161.64 37.42 161.5C37.71 161.36 37.94 161.165 38.11 160.915C38.29 160.665 38.38 160.35 38.38 159.97C38.38 159.63 38.315 159.345 38.185 159.115C38.055 158.875 37.865 158.685 37.615 158.545C37.375 158.405 37.085 158.305 36.745 158.245C36.405 158.185 36.025 158.155 35.605 158.155H33.73ZM33.73 156.985H35.26C35.62 156.985 35.96 156.96 36.28 156.91C36.6 156.86 36.875 156.77 37.105 156.64C37.345 156.51 37.53 156.34 37.66 156.13C37.8 155.92 37.87 155.655 37.87 155.335C37.87 155.035 37.8 154.785 37.66 154.585C37.52 154.375 37.325 154.21 37.075 154.09C36.835 153.96 36.55 153.865 36.22 153.805C35.89 153.745 35.54 153.715 35.17 153.715C34.8 153.715 34.51 153.72 34.3 153.73C34.09 153.74 33.9 153.755 33.73 153.775V156.985ZM44.7187 155.035C44.8387 155.035 44.9737 155.045 45.1237 155.065C45.2837 155.075 45.4387 155.095 45.5887 155.125C45.7387 155.145 45.8737 155.17 45.9937 155.2C46.1237 155.22 46.2187 155.24 46.2787 155.26L46.0387 156.475C45.9287 156.435 45.7437 156.39 45.4837 156.34C45.2337 156.28 44.9087 156.25 44.5087 156.25C44.2487 156.25 43.9887 156.28 43.7287 156.34C43.4787 156.39 43.3137 156.425 43.2337 156.445V163H41.8387V155.53C42.1687 155.41 42.5787 155.3 43.0687 155.2C43.5587 155.09 44.1087 155.035 44.7187 155.035ZM49.0198 163H47.6248V155.2H49.0198V163ZM48.3148 153.79C48.0648 153.79 47.8498 153.71 47.6698 153.55C47.4998 153.38 47.4148 153.155 47.4148 152.875C47.4148 152.595 47.4998 152.375 47.6698 152.215C47.8498 152.045 48.0648 151.96 48.3148 151.96C48.5648 151.96 48.7748 152.045 48.9448 152.215C49.1248 152.375 49.2148 152.595 49.2148 152.875C49.2148 153.155 49.1248 153.38 48.9448 153.55C48.7748 153.71 48.5648 153.79 48.3148 153.79ZM51.4188 155.425C51.7388 155.345 52.1638 155.26 52.6938 155.17C53.2238 155.08 53.8338 155.035 54.5238 155.035C55.1438 155.035 55.6588 155.125 56.0688 155.305C56.4788 155.475 56.8038 155.72 57.0438 156.04C57.2938 156.35 57.4688 156.725 57.5688 157.165C57.6688 157.605 57.7188 158.09 57.7188 158.62V163H56.3238V158.92C56.3238 158.44 56.2888 158.03 56.2188 157.69C56.1588 157.35 56.0538 157.075 55.9038 156.865C55.7538 156.655 55.5538 156.505 55.3038 156.415C55.0538 156.315 54.7438 156.265 54.3738 156.265C54.2238 156.265 54.0688 156.27 53.9088 156.28C53.7488 156.29 53.5938 156.305 53.4438 156.325C53.3038 156.335 53.1738 156.35 53.0538 156.37C52.9438 156.39 52.8638 156.405 52.8138 156.415V163H51.4188V155.425ZM64.922 162.22C64.802 162.3 64.567 162.405 64.217 162.535C63.877 162.655 63.477 162.715 63.017 162.715C62.547 162.715 62.102 162.64 61.682 162.49C61.272 162.34 60.912 162.11 60.602 161.8C60.292 161.48 60.047 161.085 59.867 160.615C59.687 160.145 59.597 159.585 59.597 158.935C59.597 158.365 59.682 157.845 59.852 157.375C60.022 156.895 60.267 156.485 60.587 156.145C60.917 155.795 61.317 155.525 61.787 155.335C62.257 155.135 62.787 155.035 63.377 155.035C64.027 155.035 64.592 155.085 65.072 155.185C65.562 155.275 65.972 155.36 66.302 155.44V162.4C66.302 163.6 65.992 164.47 65.372 165.01C64.752 165.55 63.812 165.82 62.552 165.82C62.062 165.82 61.597 165.78 61.157 165.7C60.727 165.62 60.352 165.525 60.032 165.415L60.287 164.2C60.567 164.31 60.907 164.405 61.307 164.485C61.717 164.575 62.142 164.62 62.582 164.62C63.412 164.62 64.007 164.455 64.367 164.125C64.737 163.795 64.922 163.27 64.922 162.55V162.22ZM64.907 156.43C64.767 156.39 64.577 156.355 64.337 156.325C64.107 156.285 63.792 156.265 63.392 156.265C62.642 156.265 62.062 156.51 61.652 157C61.252 157.49 61.052 158.14 61.052 158.95C61.052 159.4 61.107 159.785 61.217 160.105C61.337 160.425 61.492 160.69 61.682 160.9C61.882 161.11 62.107 161.265 62.357 161.365C62.617 161.465 62.882 161.515 63.152 161.515C63.522 161.515 63.862 161.465 64.172 161.365C64.482 161.255 64.727 161.13 64.907 160.99V156.43ZM73.4806 155.2H76.4356V156.37H73.4806V159.97C73.4806 160.36 73.5106 160.685 73.5706 160.945C73.6306 161.195 73.7206 161.395 73.8406 161.545C73.9606 161.685 74.1106 161.785 74.2906 161.845C74.4706 161.905 74.6806 161.935 74.9206 161.935C75.3406 161.935 75.6756 161.89 75.9256 161.8C76.1856 161.7 76.3656 161.63 76.4656 161.59L76.7356 162.745C76.5956 162.815 76.3506 162.9 76.0006 163C75.6506 163.11 75.2506 163.165 74.8006 163.165C74.2706 163.165 73.8306 163.1 73.4806 162.97C73.1406 162.83 72.8656 162.625 72.6556 162.355C72.4456 162.085 72.2956 161.755 72.2056 161.365C72.1256 160.965 72.0856 160.505 72.0856 159.985V153.025L73.4806 152.785V155.2ZM84.8907 159.1C84.8907 159.72 84.8007 160.28 84.6207 160.78C84.4407 161.28 84.1857 161.71 83.8557 162.07C83.5357 162.43 83.1507 162.71 82.7007 162.91C82.2507 163.1 81.7607 163.195 81.2307 163.195C80.7007 163.195 80.2107 163.1 79.7607 162.91C79.3107 162.71 78.9207 162.43 78.5907 162.07C78.2707 161.71 78.0207 161.28 77.8407 160.78C77.6607 160.28 77.5707 159.72 77.5707 159.1C77.5707 158.49 77.6607 157.935 77.8407 157.435C78.0207 156.925 78.2707 156.49 78.5907 156.13C78.9207 155.77 79.3107 155.495 79.7607 155.305C80.2107 155.105 80.7007 155.005 81.2307 155.005C81.7607 155.005 82.2507 155.105 82.7007 155.305C83.1507 155.495 83.5357 155.77 83.8557 156.13C84.1857 156.49 84.4407 156.925 84.6207 157.435C84.8007 157.935 84.8907 158.49 84.8907 159.1ZM83.4357 159.1C83.4357 158.22 83.2357 157.525 82.8357 157.015C82.4457 156.495 81.9107 156.235 81.2307 156.235C80.5507 156.235 80.0107 156.495 79.6107 157.015C79.2207 157.525 79.0257 158.22 79.0257 159.1C79.0257 159.98 79.2207 160.68 79.6107 161.2C80.0107 161.71 80.5507 161.965 81.2307 161.965C81.9107 161.965 82.4457 161.71 82.8357 161.2C83.2357 160.68 83.4357 159.98 83.4357 159.1ZM91.63 155.2H94.585V156.37H91.63V159.97C91.63 160.36 91.66 160.685 91.72 160.945C91.78 161.195 91.87 161.395 91.99 161.545C92.11 161.685 92.26 161.785 92.44 161.845C92.62 161.905 92.83 161.935 93.07 161.935C93.49 161.935 93.825 161.89 94.075 161.8C94.335 161.7 94.515 161.63 94.615 161.59L94.885 162.745C94.745 162.815 94.5 162.9 94.15 163C93.8 163.11 93.4 163.165 92.95 163.165C92.42 163.165 91.98 163.1 91.63 162.97C91.29 162.83 91.015 162.625 90.805 162.355C90.595 162.085 90.445 161.755 90.355 161.365C90.275 160.965 90.235 160.505 90.235 159.985V153.025L91.63 152.785V155.2ZM96.3602 163V151.6L97.7552 151.36V155.35C98.0152 155.25 98.2902 155.175 98.5802 155.125C98.8802 155.065 99.1752 155.035 99.4652 155.035C100.085 155.035 100.6 155.125 101.01 155.305C101.42 155.475 101.745 155.72 101.985 156.04C102.235 156.35 102.41 156.725 102.51 157.165C102.61 157.605 102.66 158.09 102.66 158.62V163H101.265V158.92C101.265 158.44 101.23 158.03 101.16 157.69C101.1 157.35 100.995 157.075 100.845 156.865C100.695 156.655 100.495 156.505 100.245 156.415C99.9952 156.315 99.6852 156.265 99.3152 156.265C99.1652 156.265 99.0102 156.275 98.8502 156.295C98.6902 156.315 98.5352 156.34 98.3852 156.37C98.2452 156.39 98.1152 156.415 97.9952 156.445C97.8852 156.475 97.8052 156.5 97.7552 156.52V163H96.3602ZM104.494 159.115C104.494 158.425 104.594 157.825 104.794 157.315C104.994 156.795 105.259 156.365 105.589 156.025C105.919 155.685 106.299 155.43 106.729 155.26C107.159 155.09 107.599 155.005 108.049 155.005C109.099 155.005 109.904 155.335 110.464 155.995C111.024 156.645 111.304 157.64 111.304 158.98C111.304 159.04 111.304 159.12 111.304 159.22C111.304 159.31 111.299 159.395 111.289 159.475H105.949C106.009 160.285 106.244 160.9 106.654 161.32C107.064 161.74 107.704 161.95 108.574 161.95C109.064 161.95 109.474 161.91 109.804 161.83C110.144 161.74 110.399 161.655 110.569 161.575L110.764 162.745C110.594 162.835 110.294 162.93 109.864 163.03C109.444 163.13 108.964 163.18 108.424 163.18C107.744 163.18 107.154 163.08 106.654 162.88C106.164 162.67 105.759 162.385 105.439 162.025C105.119 161.665 104.879 161.24 104.719 160.75C104.569 160.25 104.494 159.705 104.494 159.115ZM109.849 158.35C109.859 157.72 109.699 157.205 109.369 156.805C109.049 156.395 108.604 156.19 108.034 156.19C107.714 156.19 107.429 156.255 107.179 156.385C106.939 156.505 106.734 156.665 106.564 156.865C106.394 157.065 106.259 157.295 106.159 157.555C106.069 157.815 106.009 158.08 105.979 158.35H109.849ZM118.085 155.2H121.04V156.37H118.085V159.97C118.085 160.36 118.115 160.685 118.175 160.945C118.235 161.195 118.325 161.395 118.445 161.545C118.565 161.685 118.715 161.785 118.895 161.845C119.075 161.905 119.285 161.935 119.525 161.935C119.945 161.935 120.28 161.89 120.53 161.8C120.79 161.7 120.97 161.63 121.07 161.59L121.34 162.745C121.2 162.815 120.955 162.9 120.605 163C120.255 163.11 119.855 163.165 119.405 163.165C118.875 163.165 118.435 163.1 118.085 162.97C117.745 162.83 117.47 162.625 117.26 162.355C117.05 162.085 116.9 161.755 116.81 161.365C116.73 160.965 116.69 160.505 116.69 159.985V153.025L118.085 152.785V155.2ZM125.455 161.995C125.785 161.995 126.075 161.99 126.325 161.98C126.585 161.96 126.8 161.93 126.97 161.89V159.565C126.87 159.515 126.705 159.475 126.475 159.445C126.255 159.405 125.985 159.385 125.665 159.385C125.455 159.385 125.23 159.4 124.99 159.43C124.76 159.46 124.545 159.525 124.345 159.625C124.155 159.715 123.995 159.845 123.865 160.015C123.735 160.175 123.67 160.39 123.67 160.66C123.67 161.16 123.83 161.51 124.15 161.71C124.47 161.9 124.905 161.995 125.455 161.995ZM125.335 155.005C125.895 155.005 126.365 155.08 126.745 155.23C127.135 155.37 127.445 155.575 127.675 155.845C127.915 156.105 128.085 156.42 128.185 156.79C128.285 157.15 128.335 157.55 128.335 157.99V162.865C128.215 162.885 128.045 162.915 127.825 162.955C127.615 162.985 127.375 163.015 127.105 163.045C126.835 163.075 126.54 163.1 126.22 163.12C125.91 163.15 125.6 163.165 125.29 163.165C124.85 163.165 124.445 163.12 124.075 163.03C123.705 162.94 123.385 162.8 123.115 162.61C122.845 162.41 122.635 162.15 122.485 161.83C122.335 161.51 122.26 161.125 122.26 160.675C122.26 160.245 122.345 159.875 122.515 159.565C122.695 159.255 122.935 159.005 123.235 158.815C123.535 158.625 123.885 158.485 124.285 158.395C124.685 158.305 125.105 158.26 125.545 158.26C125.685 158.26 125.83 158.27 125.98 158.29C126.13 158.3 126.27 158.32 126.4 158.35C126.54 158.37 126.66 158.39 126.76 158.41C126.86 158.43 126.93 158.445 126.97 158.455V158.065C126.97 157.835 126.945 157.61 126.895 157.39C126.845 157.16 126.755 156.96 126.625 156.79C126.495 156.61 126.315 156.47 126.085 156.37C125.865 156.26 125.575 156.205 125.215 156.205C124.755 156.205 124.35 156.24 124 156.31C123.66 156.37 123.405 156.435 123.235 156.505L123.07 155.35C123.25 155.27 123.55 155.195 123.97 155.125C124.39 155.045 124.845 155.005 125.335 155.005ZM132.047 155.545C132.217 155.435 132.472 155.32 132.812 155.2C133.162 155.08 133.562 155.02 134.012 155.02C134.572 155.02 135.067 155.12 135.497 155.32C135.937 155.52 136.307 155.8 136.607 156.16C136.907 156.52 137.132 156.95 137.282 157.45C137.442 157.95 137.522 158.5 137.522 159.1C137.522 159.73 137.427 160.3 137.237 160.81C137.057 161.31 136.797 161.735 136.457 162.085C136.117 162.435 135.707 162.705 135.227 162.895C134.747 163.085 134.207 163.18 133.607 163.18C132.957 163.18 132.382 163.135 131.882 163.045C131.382 162.955 130.972 162.865 130.652 162.775V151.6L132.047 151.36V155.545ZM132.047 161.785C132.187 161.825 132.382 161.865 132.632 161.905C132.892 161.935 133.212 161.95 133.592 161.95C134.342 161.95 134.942 161.705 135.392 161.215C135.842 160.715 136.067 160.01 136.067 159.1C136.067 158.7 136.027 158.325 135.947 157.975C135.867 157.625 135.737 157.325 135.557 157.075C135.377 156.815 135.142 156.615 134.852 156.475C134.572 156.325 134.232 156.25 133.832 156.25C133.452 156.25 133.102 156.315 132.782 156.445C132.462 156.575 132.217 156.71 132.047 156.85V161.785ZM141.825 163.15C140.965 163.13 140.355 162.945 139.995 162.595C139.635 162.245 139.455 161.7 139.455 160.96V151.6L140.85 151.36V160.735C140.85 160.965 140.87 161.155 140.91 161.305C140.95 161.455 141.015 161.575 141.105 161.665C141.195 161.755 141.315 161.825 141.465 161.875C141.615 161.915 141.8 161.95 142.02 161.98L141.825 163.15ZM143.152 159.115C143.152 158.425 143.252 157.825 143.452 157.315C143.652 156.795 143.917 156.365 144.247 156.025C144.577 155.685 144.957 155.43 145.387 155.26C145.817 155.09 146.257 155.005 146.707 155.005C147.757 155.005 148.562 155.335 149.122 155.995C149.682 156.645 149.962 157.64 149.962 158.98C149.962 159.04 149.962 159.12 149.962 159.22C149.962 159.31 149.957 159.395 149.947 159.475H144.607C144.667 160.285 144.902 160.9 145.312 161.32C145.722 161.74 146.362 161.95 147.232 161.95C147.722 161.95 148.132 161.91 148.462 161.83C148.802 161.74 149.057 161.655 149.227 161.575L149.422 162.745C149.252 162.835 148.952 162.93 148.522 163.03C148.102 163.13 147.622 163.18 147.082 163.18C146.402 163.18 145.812 163.08 145.312 162.88C144.822 162.67 144.417 162.385 144.097 162.025C143.777 161.665 143.537 161.24 143.377 160.75C143.227 160.25 143.152 159.705 143.152 159.115ZM148.507 158.35C148.517 157.72 148.357 157.205 148.027 156.805C147.707 156.395 147.262 156.19 146.692 156.19C146.372 156.19 146.087 156.255 145.837 156.385C145.597 156.505 145.392 156.665 145.222 156.865C145.052 157.065 144.917 157.295 144.817 157.555C144.727 157.815 144.667 158.08 144.637 158.35H148.507ZM157.252 161.995C157.822 161.995 158.242 161.92 158.512 161.77C158.792 161.62 158.932 161.38 158.932 161.05C158.932 160.71 158.797 160.44 158.527 160.24C158.257 160.04 157.812 159.815 157.192 159.565C156.892 159.445 156.602 159.325 156.322 159.205C156.052 159.075 155.817 158.925 155.617 158.755C155.417 158.585 155.257 158.38 155.137 158.14C155.017 157.9 154.957 157.605 154.957 157.255C154.957 156.565 155.212 156.02 155.722 155.62C156.232 155.21 156.927 155.005 157.807 155.005C158.027 155.005 158.247 155.02 158.467 155.05C158.687 155.07 158.892 155.1 159.082 155.14C159.272 155.17 159.437 155.205 159.577 155.245C159.727 155.285 159.842 155.32 159.922 155.35L159.667 156.55C159.517 156.47 159.282 156.39 158.962 156.31C158.642 156.22 158.257 156.175 157.807 156.175C157.417 156.175 157.077 156.255 156.787 156.415C156.497 156.565 156.352 156.805 156.352 157.135C156.352 157.305 156.382 157.455 156.442 157.585C156.512 157.715 156.612 157.835 156.742 157.945C156.882 158.045 157.052 158.14 157.252 158.23C157.452 158.32 157.692 158.415 157.972 158.515C158.342 158.655 158.672 158.795 158.962 158.935C159.252 159.065 159.497 159.22 159.697 159.4C159.907 159.58 160.067 159.8 160.177 160.06C160.287 160.31 160.342 160.62 160.342 160.99C160.342 161.71 160.072 162.255 159.532 162.625C159.002 162.995 158.242 163.18 157.252 163.18C156.562 163.18 156.022 163.12 155.632 163C155.242 162.89 154.977 162.805 154.837 162.745L155.092 161.545C155.252 161.605 155.507 161.695 155.857 161.815C156.207 161.935 156.672 161.995 157.252 161.995ZM168.342 162.775C168.022 162.855 167.597 162.94 167.067 163.03C166.547 163.12 165.942 163.165 165.252 163.165C164.652 163.165 164.147 163.08 163.737 162.91C163.327 162.73 162.997 162.48 162.747 162.16C162.497 161.84 162.317 161.465 162.207 161.035C162.097 160.595 162.042 160.11 162.042 159.58V155.2H163.437V159.28C163.437 160.23 163.587 160.91 163.887 161.32C164.187 161.73 164.692 161.935 165.402 161.935C165.552 161.935 165.707 161.93 165.867 161.92C166.027 161.91 166.177 161.9 166.317 161.89C166.457 161.87 166.582 161.855 166.692 161.845C166.812 161.825 166.897 161.805 166.947 161.785V155.2H168.342V162.775ZM173.625 155.035C173.745 155.035 173.88 155.045 174.03 155.065C174.19 155.075 174.345 155.095 174.495 155.125C174.645 155.145 174.78 155.17 174.9 155.2C175.03 155.22 175.125 155.24 175.185 155.26L174.945 156.475C174.835 156.435 174.65 156.39 174.39 156.34C174.14 156.28 173.815 156.25 173.415 156.25C173.155 156.25 172.895 156.28 172.635 156.34C172.385 156.39 172.22 156.425 172.14 156.445V163H170.745V155.53C171.075 155.41 171.485 155.3 171.975 155.2C172.465 155.09 173.015 155.035 173.625 155.035ZM182.943 155.2C182.553 156.66 182.093 158.06 181.563 159.4C181.043 160.74 180.538 161.94 180.048 163H178.788C178.298 161.94 177.788 160.74 177.258 159.4C176.738 158.06 176.283 156.66 175.893 155.2H177.393C177.513 155.69 177.653 156.215 177.813 156.775C177.983 157.325 178.158 157.875 178.338 158.425C178.528 158.965 178.718 159.49 178.908 160C179.098 160.51 179.278 160.965 179.448 161.365C179.618 160.965 179.798 160.51 179.988 160C180.178 159.49 180.363 158.965 180.543 158.425C180.733 157.875 180.908 157.325 181.068 156.775C181.238 156.215 181.383 155.69 181.503 155.2H182.943ZM185.778 163H184.383V155.2H185.778V163ZM185.073 153.79C184.823 153.79 184.608 153.71 184.428 153.55C184.258 153.38 184.173 153.155 184.173 152.875C184.173 152.595 184.258 152.375 184.428 152.215C184.608 152.045 184.823 151.96 185.073 151.96C185.323 151.96 185.533 152.045 185.703 152.215C185.883 152.375 185.973 152.595 185.973 152.875C185.973 153.155 185.883 153.38 185.703 153.55C185.533 153.71 185.323 153.79 185.073 153.79ZM194.267 155.2C193.877 156.66 193.417 158.06 192.887 159.4C192.367 160.74 191.862 161.94 191.372 163H190.112C189.622 161.94 189.112 160.74 188.582 159.4C188.062 158.06 187.607 156.66 187.217 155.2H188.717C188.837 155.69 188.977 156.215 189.137 156.775C189.307 157.325 189.482 157.875 189.662 158.425C189.852 158.965 190.042 159.49 190.232 160C190.422 160.51 190.602 160.965 190.772 161.365C190.942 160.965 191.122 160.51 191.312 160C191.502 159.49 191.687 158.965 191.867 158.425C192.057 157.875 192.232 157.325 192.392 156.775C192.562 156.215 192.707 155.69 192.827 155.2H194.267ZM198.346 161.995C198.676 161.995 198.966 161.99 199.216 161.98C199.476 161.96 199.691 161.93 199.861 161.89V159.565C199.761 159.515 199.596 159.475 199.366 159.445C199.146 159.405 198.876 159.385 198.556 159.385C198.346 159.385 198.121 159.4 197.881 159.43C197.651 159.46 197.436 159.525 197.236 159.625C197.046 159.715 196.886 159.845 196.756 160.015C196.626 160.175 196.561 160.39 196.561 160.66C196.561 161.16 196.721 161.51 197.041 161.71C197.361 161.9 197.796 161.995 198.346 161.995ZM198.226 155.005C198.786 155.005 199.256 155.08 199.636 155.23C200.026 155.37 200.336 155.575 200.566 155.845C200.806 156.105 200.976 156.42 201.076 156.79C201.176 157.15 201.226 157.55 201.226 157.99V162.865C201.106 162.885 200.936 162.915 200.716 162.955C200.506 162.985 200.266 163.015 199.996 163.045C199.726 163.075 199.431 163.1 199.111 163.12C198.801 163.15 198.491 163.165 198.181 163.165C197.741 163.165 197.336 163.12 196.966 163.03C196.596 162.94 196.276 162.8 196.006 162.61C195.736 162.41 195.526 162.15 195.376 161.83C195.226 161.51 195.151 161.125 195.151 160.675C195.151 160.245 195.236 159.875 195.406 159.565C195.586 159.255 195.826 159.005 196.126 158.815C196.426 158.625 196.776 158.485 197.176 158.395C197.576 158.305 197.996 158.26 198.436 158.26C198.576 158.26 198.721 158.27 198.871 158.29C199.021 158.3 199.161 158.32 199.291 158.35C199.431 158.37 199.551 158.39 199.651 158.41C199.751 158.43 199.821 158.445 199.861 158.455V158.065C199.861 157.835 199.836 157.61 199.786 157.39C199.736 157.16 199.646 156.96 199.516 156.79C199.386 156.61 199.206 156.47 198.976 156.37C198.756 156.26 198.466 156.205 198.106 156.205C197.646 156.205 197.241 156.24 196.891 156.31C196.551 156.37 196.296 156.435 196.126 156.505L195.961 155.35C196.141 155.27 196.441 155.195 196.861 155.125C197.281 155.045 197.736 155.005 198.226 155.005ZM205.883 163.15C205.023 163.13 204.413 162.945 204.053 162.595C203.693 162.245 203.513 161.7 203.513 160.96V151.6L204.908 151.36V160.735C204.908 160.965 204.928 161.155 204.968 161.305C205.008 161.455 205.073 161.575 205.163 161.665C205.253 161.755 205.373 161.825 205.523 161.875C205.673 161.915 205.858 161.95 206.078 161.98L205.883 163.15ZM34.015 188.995C34.585 188.995 35.005 188.92 35.275 188.77C35.555 188.62 35.695 188.38 35.695 188.05C35.695 187.71 35.56 187.44 35.29 187.24C35.02 187.04 34.575 186.815 33.955 186.565C33.655 186.445 33.365 186.325 33.085 186.205C32.815 186.075 32.58 185.925 32.38 185.755C32.18 185.585 32.02 185.38 31.9 185.14C31.78 184.9 31.72 184.605 31.72 184.255C31.72 183.565 31.975 183.02 32.485 182.62C32.995 182.21 33.69 182.005 34.57 182.005C34.79 182.005 35.01 182.02 35.23 182.05C35.45 182.07 35.655 182.1 35.845 182.14C36.035 182.17 36.2 182.205 36.34 182.245C36.49 182.285 36.605 182.32 36.685 182.35L36.43 183.55C36.28 183.47 36.045 183.39 35.725 183.31C35.405 183.22 35.02 183.175 34.57 183.175C34.18 183.175 33.84 183.255 33.55 183.415C33.26 183.565 33.115 183.805 33.115 184.135C33.115 184.305 33.145 184.455 33.205 184.585C33.275 184.715 33.375 184.835 33.505 184.945C33.645 185.045 33.815 185.14 34.015 185.23C34.215 185.32 34.455 185.415 34.735 185.515C35.105 185.655 35.435 185.795 35.725 185.935C36.015 186.065 36.26 186.22 36.46 186.4C36.67 186.58 36.83 186.8 36.94 187.06C37.05 187.31 37.105 187.62 37.105 187.99C37.105 188.71 36.835 189.255 36.295 189.625C35.765 189.995 35.005 190.18 34.015 190.18C33.325 190.18 32.785 190.12 32.395 190C32.005 189.89 31.74 189.805 31.6 189.745L31.855 188.545C32.015 188.605 32.27 188.695 32.62 188.815C32.97 188.935 33.435 188.995 34.015 188.995ZM40.1993 182.2H43.1543V183.37H40.1993V186.97C40.1993 187.36 40.2293 187.685 40.2893 187.945C40.3493 188.195 40.4393 188.395 40.5593 188.545C40.6793 188.685 40.8293 188.785 41.0093 188.845C41.1893 188.905 41.3993 188.935 41.6393 188.935C42.0593 188.935 42.3943 188.89 42.6443 188.8C42.9043 188.7 43.0843 188.63 43.1843 188.59L43.4543 189.745C43.3143 189.815 43.0693 189.9 42.7193 190C42.3693 190.11 41.9693 190.165 41.5193 190.165C40.9893 190.165 40.5493 190.1 40.1993 189.97C39.8593 189.83 39.5843 189.625 39.3743 189.355C39.1643 189.085 39.0143 188.755 38.9243 188.365C38.8443 187.965 38.8043 187.505 38.8043 186.985V180.025L40.1993 179.785V182.2ZM47.8095 182.035C47.9295 182.035 48.0645 182.045 48.2145 182.065C48.3745 182.075 48.5295 182.095 48.6795 182.125C48.8295 182.145 48.9645 182.17 49.0845 182.2C49.2145 182.22 49.3095 182.24 49.3695 182.26L49.1295 183.475C49.0195 183.435 48.8345 183.39 48.5745 183.34C48.3245 183.28 47.9995 183.25 47.5995 183.25C47.3395 183.25 47.0795 183.28 46.8195 183.34C46.5695 183.39 46.4045 183.425 46.3245 183.445V190H44.9295V182.53C45.2595 182.41 45.6695 182.3 46.1595 182.2C46.6495 182.09 47.1995 182.035 47.8095 182.035ZM53.3556 188.995C53.6856 188.995 53.9756 188.99 54.2256 188.98C54.4856 188.96 54.7006 188.93 54.8706 188.89V186.565C54.7706 186.515 54.6056 186.475 54.3756 186.445C54.1556 186.405 53.8856 186.385 53.5656 186.385C53.3556 186.385 53.1306 186.4 52.8906 186.43C52.6606 186.46 52.4456 186.525 52.2456 186.625C52.0556 186.715 51.8956 186.845 51.7656 187.015C51.6356 187.175 51.5706 187.39 51.5706 187.66C51.5706 188.16 51.7306 188.51 52.0506 188.71C52.3706 188.9 52.8056 188.995 53.3556 188.995ZM53.2356 182.005C53.7956 182.005 54.2656 182.08 54.6456 182.23C55.0356 182.37 55.3456 182.575 55.5756 182.845C55.8156 183.105 55.9856 183.42 56.0856 183.79C56.1856 184.15 56.2356 184.55 56.2356 184.99V189.865C56.1156 189.885 55.9456 189.915 55.7256 189.955C55.5156 189.985 55.2756 190.015 55.0056 190.045C54.7356 190.075 54.4406 190.1 54.1206 190.12C53.8106 190.15 53.5006 190.165 53.1906 190.165C52.7506 190.165 52.3456 190.12 51.9756 190.03C51.6056 189.94 51.2856 189.8 51.0156 189.61C50.7456 189.41 50.5356 189.15 50.3856 188.83C50.2356 188.51 50.1606 188.125 50.1606 187.675C50.1606 187.245 50.2456 186.875 50.4156 186.565C50.5956 186.255 50.8356 186.005 51.1356 185.815C51.4356 185.625 51.7856 185.485 52.1856 185.395C52.5856 185.305 53.0056 185.26 53.4456 185.26C53.5856 185.26 53.7306 185.27 53.8806 185.29C54.0306 185.3 54.1706 185.32 54.3006 185.35C54.4406 185.37 54.5606 185.39 54.6606 185.41C54.7606 185.43 54.8306 185.445 54.8706 185.455V185.065C54.8706 184.835 54.8456 184.61 54.7956 184.39C54.7456 184.16 54.6556 183.96 54.5256 183.79C54.3956 183.61 54.2156 183.47 53.9856 183.37C53.7656 183.26 53.4756 183.205 53.1156 183.205C52.6556 183.205 52.2506 183.24 51.9006 183.31C51.5606 183.37 51.3056 183.435 51.1356 183.505L50.9706 182.35C51.1506 182.27 51.4506 182.195 51.8706 182.125C52.2906 182.045 52.7456 182.005 53.2356 182.005ZM59.8575 182.2H62.8125V183.37H59.8575V186.97C59.8575 187.36 59.8875 187.685 59.9475 187.945C60.0075 188.195 60.0975 188.395 60.2175 188.545C60.3375 188.685 60.4875 188.785 60.6675 188.845C60.8475 188.905 61.0575 188.935 61.2975 188.935C61.7175 188.935 62.0525 188.89 62.3025 188.8C62.5625 188.7 62.7425 188.63 62.8425 188.59L63.1125 189.745C62.9725 189.815 62.7275 189.9 62.3775 190C62.0275 190.11 61.6275 190.165 61.1775 190.165C60.6475 190.165 60.2075 190.1 59.8575 189.97C59.5175 189.83 59.2425 189.625 59.0325 189.355C58.8225 189.085 58.6725 188.755 58.5825 188.365C58.5025 187.965 58.4625 187.505 58.4625 186.985V180.025L59.8575 179.785V182.2ZM64.0062 186.115C64.0062 185.425 64.1062 184.825 64.3062 184.315C64.5062 183.795 64.7712 183.365 65.1012 183.025C65.4312 182.685 65.8112 182.43 66.2412 182.26C66.6712 182.09 67.1112 182.005 67.5612 182.005C68.6112 182.005 69.4162 182.335 69.9762 182.995C70.5362 183.645 70.8162 184.64 70.8162 185.98C70.8162 186.04 70.8162 186.12 70.8162 186.22C70.8162 186.31 70.8112 186.395 70.8012 186.475H65.4612C65.5212 187.285 65.7562 187.9 66.1662 188.32C66.5762 188.74 67.2162 188.95 68.0862 188.95C68.5762 188.95 68.9862 188.91 69.3162 188.83C69.6562 188.74 69.9112 188.655 70.0812 188.575L70.2762 189.745C70.1062 189.835 69.8062 189.93 69.3762 190.03C68.9562 190.13 68.4762 190.18 67.9362 190.18C67.2562 190.18 66.6662 190.08 66.1662 189.88C65.6762 189.67 65.2712 189.385 64.9512 189.025C64.6312 188.665 64.3912 188.24 64.2312 187.75C64.0812 187.25 64.0062 186.705 64.0062 186.115ZM69.3612 185.35C69.3712 184.72 69.2112 184.205 68.8812 183.805C68.5612 183.395 68.1162 183.19 67.5462 183.19C67.2262 183.19 66.9412 183.255 66.6912 183.385C66.4512 183.505 66.2462 183.665 66.0762 183.865C65.9062 184.065 65.7712 184.295 65.6712 184.555C65.5812 184.815 65.5212 185.08 65.4912 185.35H69.3612ZM77.7101 189.22C77.5901 189.3 77.3551 189.405 77.0051 189.535C76.6651 189.655 76.2651 189.715 75.8051 189.715C75.3351 189.715 74.8901 189.64 74.4701 189.49C74.0601 189.34 73.7001 189.11 73.3901 188.8C73.0801 188.48 72.8351 188.085 72.6551 187.615C72.4751 187.145 72.3851 186.585 72.3851 185.935C72.3851 185.365 72.4701 184.845 72.6401 184.375C72.8101 183.895 73.0551 183.485 73.3751 183.145C73.7051 182.795 74.1051 182.525 74.5751 182.335C75.0451 182.135 75.5751 182.035 76.1651 182.035C76.8151 182.035 77.3801 182.085 77.8601 182.185C78.3501 182.275 78.7601 182.36 79.0901 182.44V189.4C79.0901 190.6 78.7801 191.47 78.1601 192.01C77.5401 192.55 76.6001 192.82 75.3401 192.82C74.8501 192.82 74.3851 192.78 73.9451 192.7C73.5151 192.62 73.1401 192.525 72.8201 192.415L73.0751 191.2C73.3551 191.31 73.6951 191.405 74.0951 191.485C74.5051 191.575 74.9301 191.62 75.3701 191.62C76.2001 191.62 76.7951 191.455 77.1551 191.125C77.5251 190.795 77.7101 190.27 77.7101 189.55V189.22ZM77.6951 183.43C77.5551 183.39 77.3651 183.355 77.1251 183.325C76.8951 183.285 76.5801 183.265 76.1801 183.265C75.4301 183.265 74.8501 183.51 74.4401 184C74.0401 184.49 73.8401 185.14 73.8401 185.95C73.8401 186.4 73.8951 186.785 74.0051 187.105C74.1251 187.425 74.2801 187.69 74.4701 187.9C74.6701 188.11 74.8951 188.265 75.1451 188.365C75.4051 188.465 75.6701 188.515 75.9401 188.515C76.3101 188.515 76.6501 188.465 76.9601 188.365C77.2701 188.255 77.5151 188.13 77.6951 187.99V183.43ZM82.887 190H81.492V182.2H82.887V190ZM82.182 180.79C81.932 180.79 81.717 180.71 81.537 180.55C81.367 180.38 81.282 180.155 81.282 179.875C81.282 179.595 81.367 179.375 81.537 179.215C81.717 179.045 81.932 178.96 82.182 178.96C82.432 178.96 82.642 179.045 82.812 179.215C82.992 179.375 83.082 179.595 83.082 179.875C83.082 180.155 82.992 180.38 82.812 180.55C82.642 180.71 82.432 180.79 82.182 180.79ZM84.8509 186.115C84.8509 185.425 84.9509 184.825 85.1509 184.315C85.3509 183.795 85.6159 183.365 85.9459 183.025C86.2759 182.685 86.6559 182.43 87.0859 182.26C87.5159 182.09 87.9559 182.005 88.4059 182.005C89.4559 182.005 90.2609 182.335 90.8209 182.995C91.3809 183.645 91.6609 184.64 91.6609 185.98C91.6609 186.04 91.6609 186.12 91.6609 186.22C91.6609 186.31 91.6559 186.395 91.6459 186.475H86.3059C86.3659 187.285 86.6009 187.9 87.0109 188.32C87.4209 188.74 88.0609 188.95 88.9309 188.95C89.4209 188.95 89.8309 188.91 90.1609 188.83C90.5009 188.74 90.7559 188.655 90.9259 188.575L91.1209 189.745C90.9509 189.835 90.6509 189.93 90.2209 190.03C89.8009 190.13 89.3209 190.18 88.7809 190.18C88.1009 190.18 87.5109 190.08 87.0109 189.88C86.5209 189.67 86.1159 189.385 85.7959 189.025C85.4759 188.665 85.2359 188.24 85.0759 187.75C84.9259 187.25 84.8509 186.705 84.8509 186.115ZM90.2059 185.35C90.2159 184.72 90.0559 184.205 89.7259 183.805C89.4059 183.395 88.9609 183.19 88.3909 183.19C88.0709 183.19 87.7859 183.255 87.5359 183.385C87.2959 183.505 87.0909 183.665 86.9209 183.865C86.7509 184.065 86.6159 184.295 86.5159 184.555C86.4259 184.815 86.3659 185.08 86.3359 185.35H90.2059ZM95.4798 188.995C96.0498 188.995 96.4698 188.92 96.7398 188.77C97.0198 188.62 97.1598 188.38 97.1598 188.05C97.1598 187.71 97.0248 187.44 96.7548 187.24C96.4848 187.04 96.0398 186.815 95.4198 186.565C95.1198 186.445 94.8298 186.325 94.5498 186.205C94.2798 186.075 94.0448 185.925 93.8448 185.755C93.6448 185.585 93.4848 185.38 93.3648 185.14C93.2448 184.9 93.1848 184.605 93.1848 184.255C93.1848 183.565 93.4398 183.02 93.9498 182.62C94.4598 182.21 95.1548 182.005 96.0348 182.005C96.2548 182.005 96.4748 182.02 96.6948 182.05C96.9148 182.07 97.1198 182.1 97.3098 182.14C97.4998 182.17 97.6648 182.205 97.8048 182.245C97.9548 182.285 98.0698 182.32 98.1498 182.35L97.8948 183.55C97.7448 183.47 97.5098 183.39 97.1898 183.31C96.8698 183.22 96.4848 183.175 96.0348 183.175C95.6448 183.175 95.3048 183.255 95.0148 183.415C94.7248 183.565 94.5798 183.805 94.5798 184.135C94.5798 184.305 94.6098 184.455 94.6698 184.585C94.7398 184.715 94.8398 184.835 94.9698 184.945C95.1098 185.045 95.2798 185.14 95.4798 185.23C95.6798 185.32 95.9198 185.415 96.1998 185.515C96.5698 185.655 96.8998 185.795 97.1898 185.935C97.4798 186.065 97.7248 186.22 97.9248 186.4C98.1348 186.58 98.2948 186.8 98.4048 187.06C98.5148 187.31 98.5698 187.62 98.5698 187.99C98.5698 188.71 98.2998 189.255 97.7598 189.625C97.2298 189.995 96.4698 190.18 95.4798 190.18C94.7898 190.18 94.2498 190.12 93.8598 190C93.4698 189.89 93.2048 189.805 93.0648 189.745L93.3198 188.545C93.4798 188.605 93.7348 188.695 94.0848 188.815C94.4348 188.935 94.8998 188.995 95.4798 188.995ZM105.136 182.2H108.091V183.37H105.136V186.97C105.136 187.36 105.166 187.685 105.226 187.945C105.286 188.195 105.376 188.395 105.496 188.545C105.616 188.685 105.766 188.785 105.946 188.845C106.126 188.905 106.336 188.935 106.576 188.935C106.996 188.935 107.331 188.89 107.581 188.8C107.841 188.7 108.021 188.63 108.121 188.59L108.391 189.745C108.251 189.815 108.006 189.9 107.656 190C107.306 190.11 106.906 190.165 106.456 190.165C105.926 190.165 105.486 190.1 105.136 189.97C104.796 189.83 104.521 189.625 104.311 189.355C104.101 189.085 103.951 188.755 103.861 188.365C103.781 187.965 103.741 187.505 103.741 186.985V180.025L105.136 179.785V182.2ZM116.546 186.1C116.546 186.72 116.456 187.28 116.276 187.78C116.096 188.28 115.841 188.71 115.511 189.07C115.191 189.43 114.806 189.71 114.356 189.91C113.906 190.1 113.416 190.195 112.886 190.195C112.356 190.195 111.866 190.1 111.416 189.91C110.966 189.71 110.576 189.43 110.246 189.07C109.926 188.71 109.676 188.28 109.496 187.78C109.316 187.28 109.226 186.72 109.226 186.1C109.226 185.49 109.316 184.935 109.496 184.435C109.676 183.925 109.926 183.49 110.246 183.13C110.576 182.77 110.966 182.495 111.416 182.305C111.866 182.105 112.356 182.005 112.886 182.005C113.416 182.005 113.906 182.105 114.356 182.305C114.806 182.495 115.191 182.77 115.511 183.13C115.841 183.49 116.096 183.925 116.276 184.435C116.456 184.935 116.546 185.49 116.546 186.1ZM115.091 186.1C115.091 185.22 114.891 184.525 114.491 184.015C114.101 183.495 113.566 183.235 112.886 183.235C112.206 183.235 111.666 183.495 111.266 184.015C110.876 184.525 110.681 185.22 110.681 186.1C110.681 186.98 110.876 187.68 111.266 188.2C111.666 188.71 112.206 188.965 112.886 188.965C113.566 188.965 114.101 188.71 114.491 188.2C114.891 187.68 115.091 186.98 115.091 186.1ZM121.545 186.115C121.545 185.425 121.645 184.825 121.845 184.315C122.045 183.795 122.31 183.365 122.64 183.025C122.97 182.685 123.35 182.43 123.78 182.26C124.21 182.09 124.65 182.005 125.1 182.005C126.15 182.005 126.955 182.335 127.515 182.995C128.075 183.645 128.355 184.64 128.355 185.98C128.355 186.04 128.355 186.12 128.355 186.22C128.355 186.31 128.35 186.395 128.34 186.475H123C123.06 187.285 123.295 187.9 123.705 188.32C124.115 188.74 124.755 188.95 125.625 188.95C126.115 188.95 126.525 188.91 126.855 188.83C127.195 188.74 127.45 188.655 127.62 188.575L127.815 189.745C127.645 189.835 127.345 189.93 126.915 190.03C126.495 190.13 126.015 190.18 125.475 190.18C124.795 190.18 124.205 190.08 123.705 189.88C123.215 189.67 122.81 189.385 122.49 189.025C122.17 188.665 121.93 188.24 121.77 187.75C121.62 187.25 121.545 186.705 121.545 186.115ZM126.9 185.35C126.91 184.72 126.75 184.205 126.42 183.805C126.1 183.395 125.655 183.19 125.085 183.19C124.765 183.19 124.48 183.255 124.23 183.385C123.99 183.505 123.785 183.665 123.615 183.865C123.445 184.065 123.31 184.295 123.21 184.555C123.12 184.815 123.06 185.08 123.03 185.35H126.9ZM130.359 182.425C130.679 182.345 131.104 182.26 131.634 182.17C132.164 182.08 132.774 182.035 133.464 182.035C134.084 182.035 134.599 182.125 135.009 182.305C135.419 182.475 135.744 182.72 135.984 183.04C136.234 183.35 136.409 183.725 136.509 184.165C136.609 184.605 136.659 185.09 136.659 185.62V190H135.264V185.92C135.264 185.44 135.229 185.03 135.159 184.69C135.099 184.35 134.994 184.075 134.844 183.865C134.694 183.655 134.494 183.505 134.244 183.415C133.994 183.315 133.684 183.265 133.314 183.265C133.164 183.265 133.009 183.27 132.849 183.28C132.689 183.29 132.534 183.305 132.384 183.325C132.244 183.335 132.114 183.35 131.994 183.37C131.884 183.39 131.804 183.405 131.754 183.415V190H130.359V182.425ZM140.787 188.995C141.357 188.995 141.777 188.92 142.047 188.77C142.327 188.62 142.467 188.38 142.467 188.05C142.467 187.71 142.332 187.44 142.062 187.24C141.792 187.04 141.347 186.815 140.727 186.565C140.427 186.445 140.137 186.325 139.857 186.205C139.587 186.075 139.352 185.925 139.152 185.755C138.952 185.585 138.792 185.38 138.672 185.14C138.552 184.9 138.492 184.605 138.492 184.255C138.492 183.565 138.747 183.02 139.257 182.62C139.767 182.21 140.462 182.005 141.342 182.005C141.562 182.005 141.782 182.02 142.002 182.05C142.222 182.07 142.427 182.1 142.617 182.14C142.807 182.17 142.972 182.205 143.112 182.245C143.262 182.285 143.377 182.32 143.457 182.35L143.202 183.55C143.052 183.47 142.817 183.39 142.497 183.31C142.177 183.22 141.792 183.175 141.342 183.175C140.952 183.175 140.612 183.255 140.322 183.415C140.032 183.565 139.887 183.805 139.887 184.135C139.887 184.305 139.917 184.455 139.977 184.585C140.047 184.715 140.147 184.835 140.277 184.945C140.417 185.045 140.587 185.14 140.787 185.23C140.987 185.32 141.227 185.415 141.507 185.515C141.877 185.655 142.207 185.795 142.497 185.935C142.787 186.065 143.032 186.22 143.232 186.4C143.442 186.58 143.602 186.8 143.712 187.06C143.822 187.31 143.877 187.62 143.877 187.99C143.877 188.71 143.607 189.255 143.067 189.625C142.537 189.995 141.777 190.18 140.787 190.18C140.097 190.18 139.557 190.12 139.167 190C138.777 189.89 138.512 189.805 138.372 189.745L138.627 188.545C138.787 188.605 139.042 188.695 139.392 188.815C139.742 188.935 140.207 188.995 140.787 188.995ZM151.877 189.775C151.557 189.855 151.132 189.94 150.602 190.03C150.082 190.12 149.477 190.165 148.787 190.165C148.187 190.165 147.682 190.08 147.272 189.91C146.862 189.73 146.532 189.48 146.282 189.16C146.032 188.84 145.852 188.465 145.742 188.035C145.632 187.595 145.577 187.11 145.577 186.58V182.2H146.972V186.28C146.972 187.23 147.122 187.91 147.422 188.32C147.722 188.73 148.227 188.935 148.937 188.935C149.087 188.935 149.242 188.93 149.402 188.92C149.562 188.91 149.712 188.9 149.852 188.89C149.992 188.87 150.117 188.855 150.227 188.845C150.347 188.825 150.432 188.805 150.482 188.785V182.2H151.877V189.775ZM157.16 182.035C157.28 182.035 157.415 182.045 157.565 182.065C157.725 182.075 157.88 182.095 158.03 182.125C158.18 182.145 158.315 182.17 158.435 182.2C158.565 182.22 158.66 182.24 158.72 182.26L158.48 183.475C158.37 183.435 158.185 183.39 157.925 183.34C157.675 183.28 157.35 183.25 156.95 183.25C156.69 183.25 156.43 183.28 156.17 183.34C155.92 183.39 155.755 183.425 155.675 183.445V190H154.28V182.53C154.61 182.41 155.02 182.3 155.51 182.2C156 182.09 156.55 182.035 157.16 182.035ZM159.631 186.115C159.631 185.425 159.731 184.825 159.931 184.315C160.131 183.795 160.396 183.365 160.726 183.025C161.056 182.685 161.436 182.43 161.866 182.26C162.296 182.09 162.736 182.005 163.186 182.005C164.236 182.005 165.041 182.335 165.601 182.995C166.161 183.645 166.441 184.64 166.441 185.98C166.441 186.04 166.441 186.12 166.441 186.22C166.441 186.31 166.436 186.395 166.426 186.475H161.086C161.146 187.285 161.381 187.9 161.791 188.32C162.201 188.74 162.841 188.95 163.711 188.95C164.201 188.95 164.611 188.91 164.941 188.83C165.281 188.74 165.536 188.655 165.706 188.575L165.901 189.745C165.731 189.835 165.431 189.93 165.001 190.03C164.581 190.13 164.101 190.18 163.561 190.18C162.881 190.18 162.291 190.08 161.791 189.88C161.301 189.67 160.896 189.385 160.576 189.025C160.256 188.665 160.016 188.24 159.856 187.75C159.706 187.25 159.631 186.705 159.631 186.115ZM164.986 185.35C164.996 184.72 164.836 184.205 164.506 183.805C164.186 183.395 163.741 183.19 163.171 183.19C162.851 183.19 162.566 183.255 162.316 183.385C162.076 183.505 161.871 183.665 161.701 183.865C161.531 184.065 161.396 184.295 161.296 184.555C161.206 184.815 161.146 185.08 161.116 185.35H164.986ZM37.615 213.115C37.615 212.205 37.39 211.505 36.94 211.015C36.49 210.525 35.89 210.28 35.14 210.28C34.72 210.28 34.39 210.295 34.15 210.325C33.92 210.355 33.735 210.39 33.595 210.43V215.35C33.765 215.49 34.01 215.625 34.33 215.755C34.65 215.885 35 215.95 35.38 215.95C35.78 215.95 36.12 215.88 36.4 215.74C36.69 215.59 36.925 215.39 37.105 215.14C37.285 214.88 37.415 214.58 37.495 214.24C37.575 213.89 37.615 213.515 37.615 213.115ZM39.07 213.115C39.07 213.705 38.99 214.25 38.83 214.75C38.68 215.25 38.455 215.68 38.155 216.04C37.855 216.4 37.485 216.68 37.045 216.88C36.615 217.08 36.12 217.18 35.56 217.18C35.11 217.18 34.71 217.12 34.36 217C34.02 216.88 33.765 216.765 33.595 216.655V219.775H32.2V209.44C32.53 209.36 32.94 209.275 33.43 209.185C33.93 209.085 34.505 209.035 35.155 209.035C35.755 209.035 36.295 209.13 36.775 209.32C37.255 209.51 37.665 209.78 38.005 210.13C38.345 210.48 38.605 210.91 38.785 211.42C38.975 211.92 39.07 212.485 39.07 213.115ZM43.913 209.035C44.033 209.035 44.168 209.045 44.318 209.065C44.478 209.075 44.633 209.095 44.783 209.125C44.933 209.145 45.068 209.17 45.188 209.2C45.318 209.22 45.413 209.24 45.473 209.26L45.233 210.475C45.123 210.435 44.938 210.39 44.678 210.34C44.428 210.28 44.103 210.25 43.703 210.25C43.443 210.25 43.183 210.28 42.923 210.34C42.673 210.39 42.508 210.425 42.428 210.445V217H41.033V209.53C41.363 209.41 41.773 209.3 42.263 209.2C42.753 209.09 43.303 209.035 43.913 209.035ZM53.7041 213.1C53.7041 213.72 53.6141 214.28 53.4341 214.78C53.2541 215.28 52.9991 215.71 52.6691 216.07C52.3491 216.43 51.9641 216.71 51.5141 216.91C51.0641 217.1 50.5741 217.195 50.0441 217.195C49.5141 217.195 49.0241 217.1 48.5741 216.91C48.1241 216.71 47.7341 216.43 47.4041 216.07C47.0841 215.71 46.8341 215.28 46.6541 214.78C46.4741 214.28 46.3841 213.72 46.3841 213.1C46.3841 212.49 46.4741 211.935 46.6541 211.435C46.8341 210.925 47.0841 210.49 47.4041 210.13C47.7341 209.77 48.1241 209.495 48.5741 209.305C49.0241 209.105 49.5141 209.005 50.0441 209.005C50.5741 209.005 51.0641 209.105 51.5141 209.305C51.9641 209.495 52.3491 209.77 52.6691 210.13C52.9991 210.49 53.2541 210.925 53.4341 211.435C53.6141 211.935 53.7041 212.49 53.7041 213.1ZM52.2491 213.1C52.2491 212.22 52.0491 211.525 51.6491 211.015C51.2591 210.495 50.7241 210.235 50.0441 210.235C49.3641 210.235 48.8241 210.495 48.4241 211.015C48.0341 211.525 47.8391 212.22 47.8391 213.1C47.8391 213.98 48.0341 214.68 48.4241 215.2C48.8241 215.71 49.3641 215.965 50.0441 215.965C50.7241 215.965 51.2591 215.71 51.6491 215.2C52.0491 214.68 52.2491 213.98 52.2491 213.1ZM58.3068 215.995C58.6368 215.995 58.9268 215.99 59.1768 215.98C59.4368 215.96 59.6518 215.93 59.8218 215.89V213.565C59.7218 213.515 59.5568 213.475 59.3268 213.445C59.1068 213.405 58.8368 213.385 58.5168 213.385C58.3068 213.385 58.0818 213.4 57.8418 213.43C57.6118 213.46 57.3968 213.525 57.1968 213.625C57.0068 213.715 56.8468 213.845 56.7168 214.015C56.5868 214.175 56.5218 214.39 56.5218 214.66C56.5218 215.16 56.6818 215.51 57.0018 215.71C57.3218 215.9 57.7568 215.995 58.3068 215.995ZM58.1868 209.005C58.7468 209.005 59.2168 209.08 59.5968 209.23C59.9868 209.37 60.2968 209.575 60.5268 209.845C60.7668 210.105 60.9368 210.42 61.0368 210.79C61.1368 211.15 61.1868 211.55 61.1868 211.99V216.865C61.0668 216.885 60.8968 216.915 60.6768 216.955C60.4668 216.985 60.2268 217.015 59.9568 217.045C59.6868 217.075 59.3918 217.1 59.0718 217.12C58.7618 217.15 58.4518 217.165 58.1418 217.165C57.7018 217.165 57.2968 217.12 56.9268 217.03C56.5568 216.94 56.2368 216.8 55.9668 216.61C55.6968 216.41 55.4868 216.15 55.3368 215.83C55.1868 215.51 55.1118 215.125 55.1118 214.675C55.1118 214.245 55.1968 213.875 55.3668 213.565C55.5468 213.255 55.7868 213.005 56.0868 212.815C56.3868 212.625 56.7368 212.485 57.1368 212.395C57.5368 212.305 57.9568 212.26 58.3968 212.26C58.5368 212.26 58.6818 212.27 58.8318 212.29C58.9818 212.3 59.1218 212.32 59.2518 212.35C59.3918 212.37 59.5118 212.39 59.6118 212.41C59.7118 212.43 59.7818 212.445 59.8218 212.455V212.065C59.8218 211.835 59.7968 211.61 59.7468 211.39C59.6968 211.16 59.6068 210.96 59.4768 210.79C59.3468 210.61 59.1668 210.47 58.9368 210.37C58.7168 210.26 58.4268 210.205 58.0668 210.205C57.6068 210.205 57.2018 210.24 56.8518 210.31C56.5118 210.37 56.2568 210.435 56.0868 210.505L55.9218 209.35C56.1018 209.27 56.4018 209.195 56.8218 209.125C57.2418 209.045 57.6968 209.005 58.1868 209.005ZM66.8937 217.18C66.2637 217.18 65.7087 217.08 65.2287 216.88C64.7587 216.68 64.3587 216.4 64.0287 216.04C63.7087 215.68 63.4687 215.255 63.3087 214.765C63.1487 214.265 63.0687 213.715 63.0687 213.115C63.0687 212.515 63.1537 211.965 63.3237 211.465C63.5037 210.965 63.7537 210.535 64.0737 210.175C64.3937 209.805 64.7837 209.52 65.2437 209.32C65.7137 209.11 66.2337 209.005 66.8037 209.005C67.1537 209.005 67.5037 209.035 67.8537 209.095C68.2037 209.155 68.5387 209.25 68.8587 209.38L68.5437 210.565C68.3337 210.465 68.0887 210.385 67.8087 210.325C67.5387 210.265 67.2487 210.235 66.9387 210.235C66.1587 210.235 65.5587 210.48 65.1387 210.97C64.7287 211.46 64.5237 212.175 64.5237 213.115C64.5237 213.535 64.5687 213.92 64.6587 214.27C64.7587 214.62 64.9087 214.92 65.1087 215.17C65.3187 215.42 65.5837 215.615 65.9037 215.755C66.2237 215.885 66.6137 215.95 67.0737 215.95C67.4437 215.95 67.7787 215.915 68.0787 215.845C68.3787 215.775 68.6137 215.7 68.7837 215.62L68.9787 216.79C68.8987 216.84 68.7837 216.89 68.6337 216.94C68.4837 216.98 68.3137 217.015 68.1237 217.045C67.9337 217.085 67.7287 217.115 67.5087 217.135C67.2987 217.165 67.0937 217.18 66.8937 217.18ZM71.7814 209.2H74.7364V210.37H71.7814V213.97C71.7814 214.36 71.8114 214.685 71.8714 214.945C71.9314 215.195 72.0214 215.395 72.1414 215.545C72.2614 215.685 72.4114 215.785 72.5914 215.845C72.7714 215.905 72.9814 215.935 73.2214 215.935C73.6414 215.935 73.9764 215.89 74.2264 215.8C74.4864 215.7 74.6664 215.63 74.7664 215.59L75.0364 216.745C74.8964 216.815 74.6514 216.9 74.3014 217C73.9514 217.11 73.5514 217.165 73.1014 217.165C72.5714 217.165 72.1314 217.1 71.7814 216.97C71.4414 216.83 71.1664 216.625 70.9564 216.355C70.7464 216.085 70.5964 215.755 70.5064 215.365C70.4264 214.965 70.3864 214.505 70.3864 213.985V207.025L71.7814 206.785V209.2ZM77.9065 217H76.5115V209.2H77.9065V217ZM77.2015 207.79C76.9515 207.79 76.7365 207.71 76.5565 207.55C76.3865 207.38 76.3015 207.155 76.3015 206.875C76.3015 206.595 76.3865 206.375 76.5565 206.215C76.7365 206.045 76.9515 205.96 77.2015 205.96C77.4515 205.96 77.6615 206.045 77.8315 206.215C78.0115 206.375 78.1015 206.595 78.1015 206.875C78.1015 207.155 78.0115 207.38 77.8315 207.55C77.6615 207.71 77.4515 207.79 77.2015 207.79ZM86.3955 209.2C86.0055 210.66 85.5455 212.06 85.0155 213.4C84.4955 214.74 83.9905 215.94 83.5005 217H82.2405C81.7505 215.94 81.2405 214.74 80.7105 213.4C80.1905 212.06 79.7355 210.66 79.3455 209.2H80.8455C80.9655 209.69 81.1055 210.215 81.2655 210.775C81.4355 211.325 81.6105 211.875 81.7905 212.425C81.9805 212.965 82.1705 213.49 82.3605 214C82.5505 214.51 82.7305 214.965 82.9005 215.365C83.0705 214.965 83.2505 214.51 83.4405 214C83.6305 213.49 83.8155 212.965 83.9955 212.425C84.1855 211.875 84.3605 211.325 84.5205 210.775C84.6905 210.215 84.8355 209.69 84.9555 209.2H86.3955ZM87.1947 213.115C87.1947 212.425 87.2947 211.825 87.4947 211.315C87.6947 210.795 87.9597 210.365 88.2897 210.025C88.6197 209.685 88.9997 209.43 89.4297 209.26C89.8597 209.09 90.2997 209.005 90.7497 209.005C91.7997 209.005 92.6047 209.335 93.1647 209.995C93.7247 210.645 94.0047 211.64 94.0047 212.98C94.0047 213.04 94.0047 213.12 94.0047 213.22C94.0047 213.31 93.9997 213.395 93.9897 213.475H88.6497C88.7097 214.285 88.9447 214.9 89.3547 215.32C89.7647 215.74 90.4047 215.95 91.2747 215.95C91.7647 215.95 92.1747 215.91 92.5047 215.83C92.8447 215.74 93.0997 215.655 93.2697 215.575L93.4647 216.745C93.2947 216.835 92.9947 216.93 92.5647 217.03C92.1447 217.13 91.6647 217.18 91.1247 217.18C90.4447 217.18 89.8547 217.08 89.3547 216.88C88.8647 216.67 88.4597 216.385 88.1397 216.025C87.8197 215.665 87.5797 215.24 87.4197 214.75C87.2697 214.25 87.1947 213.705 87.1947 213.115ZM92.5497 212.35C92.5597 211.72 92.3997 211.205 92.0697 210.805C91.7497 210.395 91.3047 210.19 90.7347 210.19C90.4147 210.19 90.1297 210.255 89.8797 210.385C89.6397 210.505 89.4347 210.665 89.2647 210.865C89.0947 211.065 88.9597 211.295 88.8597 211.555C88.7697 211.815 88.7097 212.08 88.6797 212.35H92.5497ZM104.52 210.85C104.35 210.71 104.105 210.575 103.785 210.445C103.465 210.315 103.115 210.25 102.735 210.25C102.335 210.25 101.99 210.325 101.7 210.475C101.42 210.615 101.19 210.815 101.01 211.075C100.83 211.325 100.7 211.625 100.62 211.975C100.54 212.325 100.5 212.7 100.5 213.1C100.5 214.01 100.725 214.715 101.175 215.215C101.625 215.705 102.225 215.95 102.975 215.95C103.355 215.95 103.67 215.935 103.92 215.905C104.18 215.865 104.38 215.825 104.52 215.785V210.85ZM104.52 205.6L105.915 205.36V216.775C105.595 216.865 105.185 216.955 104.685 217.045C104.185 217.135 103.61 217.18 102.96 217.18C102.36 217.18 101.82 217.085 101.34 216.895C100.86 216.705 100.45 216.435 100.11 216.085C99.7703 215.735 99.5053 215.31 99.3153 214.81C99.1353 214.3 99.0453 213.73 99.0453 213.1C99.0453 212.5 99.1203 211.95 99.2703 211.45C99.4303 210.95 99.6603 210.52 99.9603 210.16C100.26 209.8 100.625 209.52 101.055 209.32C101.495 209.12 101.995 209.02 102.555 209.02C103.005 209.02 103.4 209.08 103.74 209.2C104.09 209.32 104.35 209.435 104.52 209.545V205.6ZM115.198 213.1C115.198 213.72 115.108 214.28 114.928 214.78C114.748 215.28 114.493 215.71 114.163 216.07C113.843 216.43 113.458 216.71 113.008 216.91C112.558 217.1 112.068 217.195 111.538 217.195C111.008 217.195 110.518 217.1 110.068 216.91C109.618 216.71 109.228 216.43 108.898 216.07C108.578 215.71 108.328 215.28 108.148 214.78C107.968 214.28 107.878 213.72 107.878 213.1C107.878 212.49 107.968 211.935 108.148 211.435C108.328 210.925 108.578 210.49 108.898 210.13C109.228 209.77 109.618 209.495 110.068 209.305C110.518 209.105 111.008 209.005 111.538 209.005C112.068 209.005 112.558 209.105 113.008 209.305C113.458 209.495 113.843 209.77 114.163 210.13C114.493 210.49 114.748 210.925 114.928 211.435C115.108 211.935 115.198 212.49 115.198 213.1ZM113.743 213.1C113.743 212.22 113.543 211.525 113.143 211.015C112.753 210.495 112.218 210.235 111.538 210.235C110.858 210.235 110.318 210.495 109.918 211.015C109.528 211.525 109.333 212.22 109.333 213.1C109.333 213.98 109.528 214.68 109.918 215.2C110.318 215.71 110.858 215.965 111.538 215.965C112.218 215.965 112.753 215.71 113.143 215.2C113.543 214.68 113.743 213.98 113.743 213.1ZM117.161 209.425C117.481 209.345 117.901 209.26 118.421 209.17C118.951 209.08 119.561 209.035 120.251 209.035C120.751 209.035 121.171 209.105 121.511 209.245C121.851 209.375 122.136 209.57 122.366 209.83C122.436 209.78 122.546 209.71 122.696 209.62C122.846 209.53 123.031 209.445 123.251 209.365C123.471 209.275 123.716 209.2 123.986 209.14C124.256 209.07 124.546 209.035 124.856 209.035C125.456 209.035 125.946 209.125 126.326 209.305C126.706 209.475 127.001 209.72 127.211 210.04C127.431 210.36 127.576 210.74 127.646 211.18C127.726 211.62 127.766 212.1 127.766 212.62V217H126.371V212.92C126.371 212.46 126.346 212.065 126.296 211.735C126.256 211.405 126.171 211.13 126.041 210.91C125.921 210.69 125.751 210.53 125.531 210.43C125.321 210.32 125.046 210.265 124.706 210.265C124.236 210.265 123.846 210.33 123.536 210.46C123.236 210.58 123.031 210.69 122.921 210.79C123.001 211.05 123.061 211.335 123.101 211.645C123.141 211.955 123.161 212.28 123.161 212.62V217H121.766V212.92C121.766 212.46 121.741 212.065 121.691 211.735C121.641 211.405 121.551 211.13 121.421 210.91C121.301 210.69 121.131 210.53 120.911 210.43C120.701 210.32 120.431 210.265 120.101 210.265C119.961 210.265 119.811 210.27 119.651 210.28C119.491 210.29 119.336 210.305 119.186 210.325C119.046 210.335 118.916 210.35 118.796 210.37C118.676 210.39 118.596 210.405 118.556 210.415V217H117.161V209.425ZM131.476 217H130.081V209.2H131.476V217ZM130.771 207.79C130.521 207.79 130.306 207.71 130.126 207.55C129.956 207.38 129.871 207.155 129.871 206.875C129.871 206.595 129.956 206.375 130.126 206.215C130.306 206.045 130.521 205.96 130.771 205.96C131.021 205.96 131.231 206.045 131.401 206.215C131.581 206.375 131.671 206.595 131.671 206.875C131.671 207.155 131.581 207.38 131.401 207.55C131.231 207.71 131.021 207.79 130.771 207.79ZM133.875 209.425C134.195 209.345 134.62 209.26 135.15 209.17C135.68 209.08 136.29 209.035 136.98 209.035C137.6 209.035 138.115 209.125 138.525 209.305C138.935 209.475 139.26 209.72 139.5 210.04C139.75 210.35 139.925 210.725 140.025 211.165C140.125 211.605 140.175 212.09 140.175 212.62V217H138.78V212.92C138.78 212.44 138.745 212.03 138.675 211.69C138.615 211.35 138.51 211.075 138.36 210.865C138.21 210.655 138.01 210.505 137.76 210.415C137.51 210.315 137.2 210.265 136.83 210.265C136.68 210.265 136.525 210.27 136.365 210.28C136.205 210.29 136.05 210.305 135.9 210.325C135.76 210.335 135.63 210.35 135.51 210.37C135.4 210.39 135.32 210.405 135.27 210.415V217H133.875V209.425ZM145.128 215.995C145.458 215.995 145.748 215.99 145.998 215.98C146.258 215.96 146.473 215.93 146.643 215.89V213.565C146.543 213.515 146.378 213.475 146.148 213.445C145.928 213.405 145.658 213.385 145.338 213.385C145.128 213.385 144.903 213.4 144.663 213.43C144.433 213.46 144.218 213.525 144.018 213.625C143.828 213.715 143.668 213.845 143.538 214.015C143.408 214.175 143.343 214.39 143.343 214.66C143.343 215.16 143.503 215.51 143.823 215.71C144.143 215.9 144.578 215.995 145.128 215.995ZM145.008 209.005C145.568 209.005 146.038 209.08 146.418 209.23C146.808 209.37 147.118 209.575 147.348 209.845C147.588 210.105 147.758 210.42 147.858 210.79C147.958 211.15 148.008 211.55 148.008 211.99V216.865C147.888 216.885 147.718 216.915 147.498 216.955C147.288 216.985 147.048 217.015 146.778 217.045C146.508 217.075 146.213 217.1 145.893 217.12C145.583 217.15 145.273 217.165 144.963 217.165C144.523 217.165 144.118 217.12 143.748 217.03C143.378 216.94 143.058 216.8 142.788 216.61C142.518 216.41 142.308 216.15 142.158 215.83C142.008 215.51 141.933 215.125 141.933 214.675C141.933 214.245 142.018 213.875 142.188 213.565C142.368 213.255 142.608 213.005 142.908 212.815C143.208 212.625 143.558 212.485 143.958 212.395C144.358 212.305 144.778 212.26 145.218 212.26C145.358 212.26 145.503 212.27 145.653 212.29C145.803 212.3 145.943 212.32 146.073 212.35C146.213 212.37 146.333 212.39 146.433 212.41C146.533 212.43 146.603 212.445 146.643 212.455V212.065C146.643 211.835 146.618 211.61 146.568 211.39C146.518 211.16 146.428 210.96 146.298 210.79C146.168 210.61 145.988 210.47 145.758 210.37C145.538 210.26 145.248 210.205 144.888 210.205C144.428 210.205 144.023 210.24 143.673 210.31C143.333 210.37 143.078 210.435 142.908 210.505L142.743 209.35C142.923 209.27 143.223 209.195 143.643 209.125C144.063 209.045 144.518 209.005 145.008 209.005ZM151.63 209.2H154.585V210.37H151.63V213.97C151.63 214.36 151.66 214.685 151.72 214.945C151.78 215.195 151.87 215.395 151.99 215.545C152.11 215.685 152.26 215.785 152.44 215.845C152.62 215.905 152.83 215.935 153.07 215.935C153.49 215.935 153.825 215.89 154.075 215.8C154.335 215.7 154.515 215.63 154.615 215.59L154.885 216.745C154.745 216.815 154.5 216.9 154.15 217C153.8 217.11 153.4 217.165 152.95 217.165C152.42 217.165 151.98 217.1 151.63 216.97C151.29 216.83 151.015 216.625 150.805 216.355C150.595 216.085 150.445 215.755 150.355 215.365C150.275 214.965 150.235 214.505 150.235 213.985V207.025L151.63 206.785V209.2ZM157.755 217H156.36V209.2H157.755V217ZM157.05 207.79C156.8 207.79 156.585 207.71 156.405 207.55C156.235 207.38 156.15 207.155 156.15 206.875C156.15 206.595 156.235 206.375 156.405 206.215C156.585 206.045 156.8 205.96 157.05 205.96C157.3 205.96 157.51 206.045 157.68 206.215C157.86 206.375 157.95 206.595 157.95 206.875C157.95 207.155 157.86 207.38 157.68 207.55C157.51 207.71 157.3 207.79 157.05 207.79ZM167.039 213.1C167.039 213.72 166.949 214.28 166.769 214.78C166.589 215.28 166.334 215.71 166.004 216.07C165.684 216.43 165.299 216.71 164.849 216.91C164.399 217.1 163.909 217.195 163.379 217.195C162.849 217.195 162.359 217.1 161.909 216.91C161.459 216.71 161.069 216.43 160.739 216.07C160.419 215.71 160.169 215.28 159.989 214.78C159.809 214.28 159.719 213.72 159.719 213.1C159.719 212.49 159.809 211.935 159.989 211.435C160.169 210.925 160.419 210.49 160.739 210.13C161.069 209.77 161.459 209.495 161.909 209.305C162.359 209.105 162.849 209.005 163.379 209.005C163.909 209.005 164.399 209.105 164.849 209.305C165.299 209.495 165.684 209.77 166.004 210.13C166.334 210.49 166.589 210.925 166.769 211.435C166.949 211.935 167.039 212.49 167.039 213.1ZM165.584 213.1C165.584 212.22 165.384 211.525 164.984 211.015C164.594 210.495 164.059 210.235 163.379 210.235C162.699 210.235 162.159 210.495 161.759 211.015C161.369 211.525 161.174 212.22 161.174 213.1C161.174 213.98 161.369 214.68 161.759 215.2C162.159 215.71 162.699 215.965 163.379 215.965C164.059 215.965 164.594 215.71 164.984 215.2C165.384 214.68 165.584 213.98 165.584 213.1ZM169.002 209.425C169.322 209.345 169.747 209.26 170.277 209.17C170.807 209.08 171.417 209.035 172.107 209.035C172.727 209.035 173.242 209.125 173.652 209.305C174.062 209.475 174.387 209.72 174.627 210.04C174.877 210.35 175.052 210.725 175.152 211.165C175.252 211.605 175.302 212.09 175.302 212.62V217H173.907V212.92C173.907 212.44 173.872 212.03 173.802 211.69C173.742 211.35 173.637 211.075 173.487 210.865C173.337 210.655 173.137 210.505 172.887 210.415C172.637 210.315 172.327 210.265 171.957 210.265C171.807 210.265 171.652 210.27 171.492 210.28C171.332 210.29 171.177 210.305 171.027 210.325C170.887 210.335 170.757 210.35 170.637 210.37C170.527 210.39 170.447 210.405 170.397 210.415V217H169.002V209.425Z" fill="#747582"/>
<path opacity="0.4" d="M62.6666 67.1334V79.0501C62.6166 83.8001 61.3165 85.0001 56.3665 85.0001H40.6333C35.6 85.0001 34.3333 83.7501 34.3333 78.7834V67.1334C34.3333 62.6334 35.3833 61.1834 39.3333 60.9501C39.7333 60.9334 40.1666 60.9167 40.6333 60.9167H56.3665C61.3999 60.9167 62.6666 62.1667 62.6666 67.1334Z" fill="#80CC28"/>
<path d="M67.6666 61.2167V72.8667C67.6666 77.3667 66.6166 78.8167 62.6666 79.05V67.1333C62.6666 62.1667 61.3999 60.9167 56.3665 60.9167H40.6333C40.1666 60.9167 39.7333 60.9333 39.3333 60.95C39.3833 56.2 40.6833 55 45.6333 55H61.3665C66.3999 55 67.6666 56.25 67.6666 61.2167Z" fill="#80CC28"/>
<path d="M42.6001 80.9333H39.7334C39.0501 80.9333 38.4834 80.3667 38.4834 79.6833C38.4834 79 39.0501 78.4333 39.7334 78.4333H42.6001C43.2835 78.4333 43.8501 79 43.8501 79.6833C43.8501 80.3667 43.3001 80.9333 42.6001 80.9333Z" fill="#80CC28"/>
<path d="M51.9167 80.9333H46.1833C45.5 80.9333 44.9333 80.3667 44.9333 79.6833C44.9333 79 45.5 78.4333 46.1833 78.4333H51.9167C52.6 78.4333 53.1667 79 53.1667 79.6833C53.1667 80.3667 52.6167 80.9333 51.9167 80.9333Z" fill="#80CC28"/>
<path d="M62.6666 69.7666H34.3333V72.2666H62.6666V69.7666Z" fill="#80CC28"/>
</svg>
