<svg width="200" height="80" viewBox="0 0 200 80" fill="none" xmlns="http://www.w3.org/2000/svg">
<g clip-path="url(#clip0_1_1434)">
<path fill-rule="evenodd" clip-rule="evenodd" d="M76.1431 49.8687L77.8261 45.9578C79.6439 47.3172 82.0659 48.0238 84.4556 48.0238C86.2195 48.0238 87.3361 47.3442 87.3361 46.3139C87.3091 43.4333 76.7688 45.6881 76.6879 38.4652C76.6609 34.7972 79.919 31.9706 84.5365 31.9706C87.2822 31.9706 90.0224 32.6503 91.9805 34.1984L90.4054 38.1901C88.6145 37.0466 86.3867 36.232 84.2668 36.232C82.8265 36.232 81.8771 36.9117 81.8771 37.7802C81.9041 40.6068 92.5254 39.0586 92.6332 45.9578C92.6332 49.7068 89.456 52.3446 84.8925 52.3446C81.5481 52.3392 78.4788 51.5517 76.1431 49.8687ZM140.771 44.5445C139.93 46.0118 138.355 47.0151 136.532 47.0151C133.84 47.0151 131.671 44.8412 131.671 42.1549C131.671 39.4686 133.845 37.2947 136.532 37.2947C138.349 37.2947 139.93 38.298 140.771 39.7653L145.416 37.1868C143.679 34.0905 140.334 31.9706 136.532 31.9706C130.905 31.9706 126.342 36.5341 126.342 42.1603C126.342 47.7865 130.905 52.35 136.532 52.35C140.361 52.35 143.679 50.257 145.416 47.1338L140.771 44.5445ZM94.9689 23.5178H100.784V51.9616H94.9689V23.5178ZM147.698 23.5178V51.9616H153.513V43.4279L160.412 51.9616H167.856L159.079 41.8258L167.203 32.3698H160.083L153.507 40.2184V23.5178H147.698Z" fill="#B7C0CC"/>
<path d="M118.062 44.5984C117.22 45.9847 115.483 47.015 113.525 47.015C110.834 47.015 108.665 44.8411 108.665 42.1548C108.665 39.4685 110.839 37.2946 113.525 37.2946C115.483 37.2946 117.22 38.3788 118.062 39.7921V44.5984ZM118.062 32.375V34.6838C117.112 33.0817 114.75 31.9651 112.274 31.9651C107.165 31.9651 103.147 36.4747 103.147 42.1278C103.147 47.781 107.165 52.3445 112.274 52.3445C114.744 52.3445 117.107 51.2333 118.062 49.6258V51.9345H123.877V32.375H118.062Z" fill="#B7C0CC"/>
<path fill-rule="evenodd" clip-rule="evenodd" d="M40.2012 44.5715C40.2012 46.5566 38.5991 48.1587 36.614 48.1587C34.6289 48.1587 33.0269 46.5512 33.0269 44.5715C33.0269 42.5919 34.6289 40.9844 36.614 40.9844H40.2012V44.5715ZM41.9921 44.5715C41.9921 42.5865 43.5942 40.9844 45.5792 40.9844C47.5643 40.9844 49.1664 42.5865 49.1664 44.5715V53.5368C49.1664 55.5219 47.5643 57.1239 45.5792 57.1239C43.5942 57.1239 41.9921 55.5219 41.9921 53.5368V44.5715Z" fill="#B7C0CC"/>
<path fill-rule="evenodd" clip-rule="evenodd" d="M45.5794 30.1743C43.5943 30.1743 41.9922 28.5722 41.9922 26.5872C41.9922 24.6021 43.5943 23 45.5794 23C47.5644 23 49.1665 24.6021 49.1665 26.5872V30.1743H45.5794ZM45.5794 31.9922C47.5644 31.9922 49.1665 33.5943 49.1665 35.5794C49.1665 37.5644 47.5644 39.1665 45.5794 39.1665H36.5872C34.6021 39.1665 33 37.559 33 35.5794C33 33.5997 34.6021 31.9922 36.5872 31.9922H45.5794Z" fill="#B7C0CC"/>
<path fill-rule="evenodd" clip-rule="evenodd" d="M59.9496 35.5794C59.9496 33.5943 61.5517 31.9922 63.5368 31.9922C65.5218 31.9922 67.1239 33.5943 67.1239 35.5794C67.1239 37.5644 65.5218 39.1665 63.5368 39.1665H59.9496V35.5794ZM58.1587 35.5794C58.1587 37.5644 56.5566 39.1665 54.5715 39.1665C52.5865 39.1665 50.9844 37.5644 50.9844 35.5794V26.5872C50.9844 24.6021 52.5865 23 54.5715 23C56.5566 23 58.1587 24.6021 58.1587 26.5872V35.5794Z" fill="#B7C0CC"/>
<path fill-rule="evenodd" clip-rule="evenodd" d="M54.5715 49.9496C56.5566 49.9496 58.1587 51.5517 58.1587 53.5368C58.1587 55.5219 56.5566 57.1239 54.5715 57.1239C52.5865 57.1239 50.9844 55.5219 50.9844 53.5368V49.9496H54.5715ZM54.5715 48.1587C52.5865 48.1587 50.9844 46.5566 50.9844 44.5715C50.9844 42.5865 52.5865 40.9844 54.5715 40.9844H63.5637C65.5488 40.9844 67.1509 42.5865 67.1509 44.5715C67.1509 46.5566 65.5488 48.1587 63.5637 48.1587H54.5715Z" fill="#B7C0CC"/>
</g>
<defs>
<clipPath id="clip0_1_1434">
<rect width="134.856" height="34.1239" fill="white" transform="translate(33 23)"/>
</clipPath>
</defs>
</svg>
