<svg width="138" height="86" viewBox="0 0 138 86" fill="none" xmlns="http://www.w3.org/2000/svg">
<path d="M1.90779 80.066C3.36334 74.7758 5.50377 69.7094 8.2744 64.996C9.98566 61.9487 12.0203 58.6472 14.2954 55.2013C16.7107 51.4987 19.3804 47.9726 22.2853 44.6484C23.8558 42.8644 25.5425 41.1879 27.3343 39.6297C29.1751 37.9893 31.1608 36.5209 33.2674 35.2423C35.4107 33.9069 37.7068 32.8338 40.1078 32.0454C42.5214 31.214 45.0402 30.7184 47.5951 30.5722L48.0187 30.5595C47.9844 30.7007 47.9216 30.844 47.8764 30.9918C46.1978 36.5836 46.3753 42.5962 48.382 48.1248C49.4297 50.9182 51.0286 53.4748 53.0812 55.6389C55.2298 57.9073 57.9131 59.5906 60.875 60.5282C62.4223 61.07 64.0424 61.3612 65.6743 61.3908C67.503 61.4376 69.313 61.0641 70.9667 60.2987C72.5531 59.5148 73.9531 58.4004 75.075 57.0284C76.1969 55.6565 77.0155 54.0579 77.4774 52.3371C78.3124 49.2194 78.0321 45.8918 76.685 42.9328C75.4669 40.2161 73.7319 37.7609 71.5792 35.7077C69.4797 33.6704 67.0845 31.9676 64.4782 30.6595C61.2219 29.0342 57.7214 27.976 54.1269 27.5302C54.5214 26.8143 54.963 26.1262 55.449 25.4704C58.2879 21.5802 61.9582 18.385 66.1944 16.1158C70.1298 13.9727 74.3723 12.4457 78.7778 11.5867C82.6208 10.8165 86.5488 10.5226 90.4746 10.7115C93.8082 10.9493 97.1175 11.4889 100.362 12.3239C105.451 13.5774 110.396 15.3872 115.107 17.7209C118.279 19.2609 121.333 21.0394 124.244 23.0411C126.57 24.6631 128.2 25.9181 129.442 26.9231C130.533 27.7767 131.231 28.3692 131.789 28.8038L130.743 28.7218C127.763 28.4877 125.064 28.3262 122.785 28.2449C118.234 28.0932 115.322 28.1955 115.274 28.7366C115.227 29.2778 117.892 30.0026 122.331 30.8099C124.557 31.2246 127.203 31.6443 130.158 32.0594L131.278 32.2171C131.76 32.2902 132.246 32.3215 132.732 32.3107C133.044 32.2986 133.353 32.2592 133.657 32.193C134.045 32.1097 134.418 31.9723 134.766 31.7849C135.483 31.3989 136.056 30.7911 136.402 30.0498C136.783 29.0779 136.977 28.04 136.976 26.9905L137.172 24.5653C138.012 11.0898 137.884 0.14061 136.846 0.144798C135.808 0.14898 134.269 11.0717 133.418 24.5537L133.323 26.3299C132.857 25.7299 132.352 25.1611 131.812 24.6271C130.234 23.002 128.537 21.4985 126.736 20.1293C123.794 17.8451 120.653 15.8358 117.352 14.1268C112.434 11.5273 107.235 9.51609 101.865 8.13477C98.3339 7.21159 94.7294 6.62102 91.098 6.37074C86.7608 6.13702 82.4185 6.45059 78.1723 7.30411C73.2621 8.25963 68.536 9.96947 64.1588 12.374C59.2674 15.0159 55.0407 18.736 51.7895 23.2605C50.8473 24.5602 50.0394 25.9543 49.3782 27.4215C48.8053 27.4332 48.2325 27.4448 47.6687 27.4964C44.808 27.7018 41.9926 28.2942 39.2984 29.2577C36.6823 30.1813 34.1858 31.4101 31.8595 32.9191C29.6262 34.3377 27.5281 35.9594 25.5911 37.764C23.7526 39.4275 22.027 41.2131 20.4255 43.109C17.5204 46.5728 14.8757 50.2509 12.513 54.1133C10.2869 57.6906 8.34864 61.0701 6.69819 64.2519C4.04919 69.1534 2.13879 74.4311 1.02883 79.9143C0.75484 81.3727 0.592816 82.8515 0.544193 84.3377C0.54155 85.3499 0.553304 85.8406 0.647898 85.8743C0.742493 85.9081 0.984089 83.7572 1.92967 80.0528L1.90779 80.066ZM52.2422 32.024C52.3626 31.6048 52.5181 31.1948 52.6737 30.7848C56.156 31.1781 59.5445 32.2142 62.669 33.841C64.9478 35.0345 67.0365 36.5694 68.8626 38.3925C70.6709 40.1651 72.1182 42.2753 73.1215 44.6021C74.0866 46.8081 74.2615 49.2743 73.6159 51.5757C73.3123 52.7099 72.7739 53.7639 72.0358 54.6691C71.2977 55.5743 70.3765 56.3103 69.3322 56.8293C67.1237 57.6644 64.6751 57.638 62.4633 56.7551C60.1236 55.9818 58.0122 54.6204 56.3303 52.8007C54.6745 50.9818 53.3961 48.8499 52.5716 46.5326C51.7301 44.2104 51.2711 41.7698 51.2129 39.3079C51.1386 36.8393 51.4792 34.381 52.2203 32.0371" fill="#4F1F3C" fill-opacity="0.3"/>
</svg>
