<svg width="113" height="126" viewBox="0 0 113 126" fill="none" xmlns="http://www.w3.org/2000/svg">
<path opacity="0.2" d="M54.1892 70.4012C57.6141 68.7003 60.814 66.5408 63.6747 64.0001C66.4859 61.4379 68.9599 58.5674 71.0253 55.4713C73.0931 52.4712 74.8032 49.2976 76.1185 46.019C77.4487 42.7458 78.1867 39.3599 78.2989 36.0159C78.3479 34.3307 78.1368 32.6837 77.6722 31.1259C77.2128 29.4983 76.3606 28.0401 75.1761 26.8548C73.8361 25.5481 72.0004 24.7716 69.9614 24.649C67.8638 24.5757 65.6992 25.0746 63.7185 26.0879C62.7861 26.5423 61.8839 27.0634 61.0208 27.6458C60.2107 28.2248 59.4273 28.8393 58.6739 29.487C57.9479 30.1085 57.2589 30.7685 56.6114 31.4628L55.5781 32.5118L54.682 33.5567C52.446 36.2486 50.4634 39.1031 48.7619 42.0797C47.0551 44.9805 45.7608 48.0368 44.9176 51.1575C44.1206 54.1176 43.7704 57.109 43.8778 60.0383L43.9014 61.0977L44.0293 62.1307C44.1076 62.8092 44.1879 63.5162 44.2832 64.1682C44.5069 65.4824 44.8052 66.7746 45.1767 68.0395C45.3962 68.771 45.6584 69.4883 45.9207 70.2055C45.1491 70.4335 44.4352 70.5922 43.607 70.8141C40.5412 71.5197 37.4486 71.8423 34.4125 71.7734C31.5125 71.6717 28.7113 71.1461 26.1057 70.2146C21.2099 68.2817 17.0106 65.2498 13.8234 61.3467C10.8401 57.6868 8.4787 53.5725 6.80738 49.1224C5.26125 45.0541 4.08795 40.8247 3.29894 36.4753C2.56236 32.6756 2.10525 28.7958 1.93065 24.8617C1.64245 19.0996 2.37239 13.192 4.09156 7.37306C5.40817 3.20282 6.67349 0.904938 6.41103 0.90487C5.97647 1.38629 5.62075 1.92201 5.3587 2.4897C4.4957 4.04755 3.75235 5.64873 3.13519 7.27909C1.0135 13.1756 -0.0242571 19.2305 0.0704436 25.1607C0.0897372 29.2126 0.409371 33.2169 1.02704 37.145C1.69297 41.6511 2.76057 46.0431 4.21917 50.277C5.83537 54.9937 8.1924 59.3693 11.22 63.2734C14.553 67.5881 19.0191 70.9644 24.2715 73.1399C27.1604 74.2442 30.2806 74.8904 33.5217 75.0554C36.9134 75.1914 40.3781 74.8769 43.8177 74.1209C45.004 73.8757 46.1845 73.5685 47.3533 73.2009C48.6234 75.8254 50.1609 78.3003 51.9471 80.5958C56.7607 86.6571 62.6101 91.8749 69.3065 96.0806C74.131 99.1637 79.2712 101.834 84.677 104.065C90.6393 106.584 96.9697 108.442 103.559 109.608L105.64 109.889L103.63 110.635C101.483 111.488 99.4418 112.418 97.5049 113.322C94.0952 114.964 90.7863 116.834 87.6071 118.915C82.1678 122.479 79.2858 125.253 79.5601 125.603C79.8343 125.954 83.2261 123.952 88.7059 121.062C91.4752 119.635 94.7654 117.971 98.4971 116.364C100.371 115.548 102.34 114.742 104.386 113.972C105.422 113.593 106.47 113.207 107.532 112.84C108.069 112.653 108.553 112.516 109.331 112.195C110.356 111.797 111.263 111.11 111.913 110.237C112.251 109.764 112.492 109.244 112.62 108.709C112.713 108.29 112.749 107.869 112.727 107.457C112.676 106.851 112.556 106.262 112.367 105.7C112.098 104.793 111.805 103.903 111.538 103.025C110.973 101.275 110.407 99.5996 109.858 98.0022C108.714 94.8398 107.574 92.0931 106.523 89.7335C104.456 85.1691 102.764 82.4854 102.238 82.74C101.712 82.9945 102.405 86.1364 103.764 91.0489L106.24 99.621C106.71 101.232 107.196 102.917 107.697 104.676C107.945 105.552 108.207 106.449 108.47 107.345C108.478 107.369 108.492 107.39 108.511 107.407C107.756 107.146 106.67 106.811 105.092 106.395C98.9729 104.717 93.0381 102.641 87.3257 100.18C82.198 97.9025 77.3067 95.2512 72.6899 92.247C66.366 88.1989 60.8291 83.2211 56.2479 77.4654C54.7633 75.5391 53.4589 73.4829 52.3467 71.3155C52.9771 71.0345 53.6075 70.7535 54.2239 70.4521L54.1892 70.4012ZM50.1145 65.8934C49.7674 64.7795 49.486 63.6403 49.2715 62.4805C49.1752 61.9039 49.1148 61.3028 49.0354 60.6997L48.9293 59.8012L48.9088 58.8742C48.7856 56.362 49.0707 53.7906 49.7542 51.2463C50.463 48.5509 51.5631 45.9088 53.0216 43.399C54.5198 40.7141 56.2773 38.1382 58.2683 35.7092L59.0302 34.8007L59.8337 33.9533C60.3605 33.3914 60.9156 32.8528 61.4965 32.3401C62.0594 31.8065 62.6272 31.4337 63.2725 30.9184C63.8632 30.5131 64.4819 30.1506 65.1221 29.835C66.1823 29.2003 67.3857 28.8871 68.5447 28.9442C69.7038 29.0012 70.7535 29.4253 71.5304 30.1504C73.1432 31.9859 73.9399 34.394 73.7841 36.9621C73.7155 39.8173 73.1171 42.7128 72.0157 45.5188C70.8622 48.4751 69.3533 51.3408 67.5213 54.0544C65.7424 56.8065 63.5954 59.3634 61.1432 61.6502C58.6539 63.8875 55.864 65.7922 52.8738 67.2958C52.2285 67.6318 51.5693 67.9475 50.915 68.2448C50.6111 67.4664 50.326 66.6901 50.0489 65.8485" fill="#5B1727"/>
</svg>
